<?xml version="1.0" encoding="utf-8"?>
<!-- Generator: Adobe Illustrator 19.1.0, SVG Export Plug-In . SVG Version: 6.00 Build 0)  -->
<svg version="1.1" id="Laag_1" xmlns="http://www.w3.org/2000/svg" xmlns:xlink="http://www.w3.org/1999/xlink" x="0px" y="0px"
	 viewBox="-225.5 217.2 118.5 46.7" style="enable-background:new -225.5 217.2 118.5 46.7;" xml:space="preserve">
<style type="text/css">
	.st0{fill:#FFFFFF;}
</style>
<g>
	<path class="st0" d="M-169.9,260.4v-0.2c0.4-0.1,0.4-0.1,0.4-0.6v-1.4c0-0.7-0.3-0.9-0.7-0.9c-0.2,0-0.5,0.1-0.7,0.3v2
		c0,0.4,0.1,0.5,0.4,0.6v0.2h-1.9v-0.2c0.5-0.1,0.5-0.1,0.5-0.6v-4c-0.4-0.1-0.8-0.1-1.6-0.1h-0.4v3.9c0,0.7,0.1,0.7,0.7,0.8v0.3
		h-2.4v-0.3c0.7-0.1,0.7-0.1,0.7-0.8v-3.9h-0.4c-0.7,0-0.9,0.1-1,0.3c-0.1,0.1-0.2,0.4-0.3,0.7h-0.3c0.1-0.5,0.1-1.1,0.1-1.6h0.1
		c0.1,0.1,0.2,0.2,0.4,0.2h3.4c0.7,0,0.8-0.1,0.8-0.1v-0.1c0.2-0.1,0.7-0.1,0.9-0.2v2.5c0.3-0.3,0.7-0.5,1.1-0.5
		c0.7,0,1.1,0.4,1.1,1.3v1.5c0,0.5,0.1,0.6,0.5,0.6v0.2L-169.9,260.4L-169.9,260.4L-169.9,260.4z M-164.6,259.7
		c-0.5,0.7-1.1,0.9-1.4,0.9c-1,0-1.6-0.8-1.6-1.8c0-0.6,0.2-1.1,0.6-1.5c0.4-0.4,0.8-0.6,1.3-0.6c0.7,0,1.3,0.6,1.3,1.3
		c0,0.1-0.1,0.3-0.2,0.3c-0.1,0-1.2,0.1-2,0.1c0,1,0.6,1.4,1.1,1.4c0.3,0,0.6-0.1,0.9-0.4L-164.6,259.7z M-166.7,258.1
		c0.4,0,0.7,0,1.1,0c0.1,0,0.1,0,0.2-0.1c0-0.4-0.2-0.8-0.6-0.8C-166.3,257-166.7,257.4-166.7,258.1z M-157.2,255.4
		c-0.4,0-0.6,0.1-0.7,0.5c0,0.2-0.1,0.6-0.1,1.3v3.3h-0.4l-3.4-4.2l0,0v1.9c0,0.7,0,1.1,0.1,1.3c0.1,0.4,0.2,0.5,0.8,0.5v0.3h-2
		v-0.3c0.4,0,0.7-0.1,0.7-0.5c0-0.3,0.1-0.7,0.1-1.3v-1.8c0-0.5,0-0.7-0.1-0.9c-0.1-0.2-0.4-0.3-0.7-0.3V255h1.4l3.2,3.8l0,0v-1.6
		c0-0.7-0.1-1.1-0.1-1.3c-0.1-0.4-0.2-0.4-0.8-0.5v-0.3h2V255.4z M-153.8,259.7c-0.5,0.7-1.1,0.9-1.4,0.9c-1,0-1.6-0.8-1.6-1.8
		c0-0.6,0.2-1.1,0.6-1.5c0.4-0.4,0.8-0.6,1.3-0.6c0.7,0,1.3,0.6,1.3,1.3c0,0.1-0.1,0.3-0.2,0.3s-1.2,0.1-2,0.1c0,1,0.6,1.4,1.1,1.4
		c0.3,0,0.6-0.1,0.9-0.4L-153.8,259.7z M-155.9,258.1c0.4,0,0.7,0,1.1,0c0.1,0,0.1,0,0.2-0.1c0-0.4-0.2-0.8-0.6-0.8
		C-155.6,257-155.9,257.4-155.9,258.1z M-151.7,260.4c-0.1,0.1-0.3,0.1-0.4,0.1c-0.6,0-0.9-0.3-0.9-1v-2.3h-0.5l-0.1-0.1l0.2-0.3
		h0.4v-0.6l0.8-0.6l0.1,0.1v1.2h0.8c0.1,0.1,0.1,0.3-0.1,0.4h-0.8v2.1c0,0.7,0.3,0.7,0.4,0.7c0.1,0,0.3-0.1,0.4-0.1l0.1,0.2
		L-151.7,260.4z M-148.5,260.4v-0.2c0.4-0.1,0.4-0.1,0.4-0.6v-1.4c0-0.7-0.3-0.9-0.7-0.9c-0.2,0-0.5,0.1-0.7,0.3v2
		c0,0.4,0.1,0.5,0.4,0.6v0.2h-1.9v-0.2c0.4-0.1,0.5-0.1,0.5-0.6v-3.9c0-0.5,0-0.5-0.5-0.6v-0.2c0.4-0.1,1-0.1,1.4-0.3v2.6
		c0.3-0.3,0.7-0.5,1.1-0.5c0.7,0,1.1,0.4,1.1,1.3v1.5c0,0.5,0.1,0.5,0.5,0.6v0.2L-148.5,260.4L-148.5,260.4L-148.5,260.4z
		 M-143.2,259.7c-0.5,0.7-1.1,0.9-1.4,0.9c-1,0-1.6-0.8-1.6-1.8c0-0.6,0.2-1.1,0.6-1.5c0.4-0.4,0.8-0.6,1.3-0.6
		c0.7,0,1.3,0.6,1.3,1.3c0,0.1-0.1,0.3-0.2,0.3s-1.2,0.1-2,0.1c0,1,0.6,1.4,1.1,1.4c0.3,0,0.6-0.1,0.9-0.4L-143.2,259.7z
		 M-145.4,258.1c0.4,0,0.7,0,1.1,0c0.1,0,0.1,0,0.2-0.1c0-0.4-0.2-0.8-0.6-0.8C-145,257-145.3,257.4-145.4,258.1z M-141.3,257.6
		c0.3-0.4,0.6-0.9,1-0.9c0.3,0,0.5,0.2,0.5,0.4s-0.1,0.4-0.4,0.5c-0.1,0.1-0.2,0-0.2,0c-0.1-0.1-0.2-0.1-0.4-0.1
		c-0.1,0-0.4,0.1-0.5,0.5v1.5c0,0.5,0.1,0.5,0.7,0.6v0.2h-2.1v-0.2c0.4-0.1,0.5-0.1,0.5-0.6v-1.8c0-0.4-0.1-0.5-0.4-0.6v-0.2
		c0.4-0.1,0.9-0.1,1.3-0.3L-141.3,257.6L-141.3,257.6z M-139.7,260.4v-0.2c0.5-0.1,0.5-0.1,0.5-0.7v-3.8c0-0.5-0.1-0.5-0.5-0.6v-0.2
		c0.4-0.1,1-0.1,1.4-0.3v4.9c0,0.5,0.1,0.6,0.6,0.7v0.2H-139.7L-139.7,260.4z M-134.6,260.5c-0.2,0-0.4-0.1-0.4-0.1
		s-0.1-0.2-0.2-0.3c-0.3,0.2-0.7,0.5-0.9,0.5c-0.7,0-1-0.5-1-1c0-0.4,0.2-0.7,0.7-0.8c0.5-0.1,1.1-0.4,1.3-0.5V258
		c0-0.5-0.2-0.8-0.6-0.8c-0.1,0-0.2,0.1-0.3,0.1c-0.1,0.1-0.1,0.3-0.2,0.5s-0.1,0.2-0.3,0.2c-0.2,0-0.4-0.1-0.4-0.4
		c0-0.1,0.1-0.2,0.3-0.4c0.3-0.2,0.8-0.5,1.3-0.6c0.3,0,0.5,0.1,0.7,0.2c0.3,0.2,0.4,0.6,0.4,1v1.4c0,0.4,0.1,0.4,0.3,0.4
		c0.1,0,0.2,0,0.3-0.1l0.1,0.2L-134.6,260.5z M-135.4,258.4c-0.1,0.1-0.4,0.2-0.5,0.3c-0.3,0.1-0.4,0.3-0.4,0.6
		c0,0.4,0.3,0.6,0.5,0.6c0.1,0,0.3-0.1,0.4-0.2V258.4L-135.4,258.4z M-131.3,260.4v-0.2c0.4-0.1,0.4-0.1,0.4-0.7v-1.3
		c0-0.6-0.2-0.8-0.6-0.8c-0.2,0-0.5,0.1-0.7,0.3v1.9c0,0.5,0.1,0.5,0.4,0.6v0.2h-1.9v-0.2c0.5-0.1,0.6-0.1,0.6-0.6v-1.7
		c0-0.5-0.1-0.5-0.4-0.6v-0.2c0.4-0.1,0.9-0.1,1.3-0.3v0.6c0.1-0.1,0.3-0.2,0.5-0.4c0.2-0.1,0.4-0.2,0.7-0.2c0.7,0,1,0.4,1,1.3v1.6
		c0,0.5,0.1,0.5,0.5,0.6v0.2L-131.3,260.4L-131.3,260.4z M-125,260.2c-0.2,0-0.9,0.1-1.5,0.3V260l-0.5,0.3c-0.2,0.1-0.4,0.1-0.5,0.1
		c-0.7,0-1.6-0.6-1.6-1.8c0-1.1,1-2,2.2-2c0.1,0,0.2,0,0.4,0.1v-1c0-0.4-0.1-0.5-0.6-0.6v-0.2c0.5-0.1,1.1-0.1,1.5-0.3v4.7
		c0,0.4,0.1,0.4,0.4,0.5h0.2L-125,260.2L-125,260.2z M-126.5,257.5c-0.1-0.3-0.4-0.4-0.7-0.4c-0.3,0-0.9,0.2-0.9,1.5
		c0,1,0.6,1.4,1,1.4c0.2,0,0.4-0.1,0.6-0.2L-126.5,257.5L-126.5,257.5z M-122.5,257.8c-0.2-0.5-0.4-0.8-0.9-0.8
		c-0.2,0-0.4,0.2-0.4,0.5c0,0.3,0.2,0.4,0.7,0.7c0.7,0.3,1.1,0.6,1.1,1.2c0,0.8-0.7,1.2-1.4,1.2c-0.4,0-0.8-0.1-1-0.3
		c-0.1-0.1-0.1-0.7-0.1-1h0.2c0.1,0.5,0.5,1,1,1c0.3,0,0.5-0.2,0.5-0.5s-0.1-0.4-0.6-0.7s-1-0.5-1-1.2c0-0.6,0.5-1.1,1.3-1.1
		c0.4,0,0.6,0.1,0.7,0.1c0.1,0.2,0.1,0.7,0.2,0.9L-122.5,257.8L-122.5,257.8z"/>
	<g>
		<path class="st0" d="M-167.3,226.7c-0.8,0.1-1.2,0.3-1.3,0.8c-0.1,0.4-0.1,1-0.1,2.1v0.7c0,1.6-0.2,2.7-1,3.6
			c-0.7,0.7-1.5,1-2.5,1c-0.9,0-1.7-0.2-2.3-0.7c-0.8-0.7-1.2-1.7-1.2-3.3v-2.8c0-1.3-0.1-1.3-1.2-1.4v-0.4h3.8v0.4
			c-1,0.1-1.2,0.1-1.2,1.4v2.5c0,2.2,0.8,3.4,2.4,3.4c1.9,0,2.4-1.5,2.4-3.8v-0.7c0-1.1-0.1-1.7-0.1-2.1c-0.1-0.5-0.4-0.7-1.3-0.8
			v-0.4h3.5L-167.3,226.7L-167.3,226.7z M-158.2,227.3c0.4,0,0.8-0.4,0.8-0.8c0-0.5-0.4-0.9-0.8-0.9s-0.8,0.4-0.8,0.9
			C-159.1,227-158.7,227.3-158.2,227.3z M-156.3,234.7v-0.4c-0.9-0.1-1-0.1-1-1.1v-4.8c-0.5,0.1-1.8,0.4-2.4,0.5v0.4
			c0.7,0.1,1,0.1,1,1v2.8c0,1-0.1,1-1,1.1v0.4L-156.3,234.7L-156.3,234.7z M-148.1,230.8c0.1-1,0.6-1.8,1.3-1.8c0.7,0,1,0.7,1,1.5
			c0,0.2-0.1,0.3-0.3,0.3H-148.1z M-144.7,231.2c0.2,0,0.4-0.1,0.4-0.4c0-1.6-1-2.4-2.4-2.4c-0.7,0-1.4,0.2-2,0.9
			c-0.6,0.6-1,1.6-1,2.5c0,1.6,1.1,3,2.9,3c0.5,0,1.6-0.3,2.4-1.4l-0.2-0.3c-0.5,0.4-1,0.7-1.6,0.7c-1,0-2-0.6-2-2.4L-144.7,231.2z
			 M-123.7,230.8c0.1-1,0.6-1.8,1.3-1.8c0.7,0,1,0.7,1,1.5c0,0.2-0.1,0.3-0.3,0.3H-123.7z M-120.2,231.2c0.3,0,0.4-0.1,0.4-0.4
			c0-1.6-1-2.4-2.4-2.4c-0.7,0-1.4,0.2-2,0.9c-0.6,0.6-1,1.6-1,2.5c0,1.6,1.1,3,2.9,3c0.5,0,1.6-0.3,2.4-1.4l-0.2-0.3
			c-0.5,0.4-1,0.7-1.6,0.7c-1,0-2-0.6-2-2.4L-120.2,231.2z M-141.3,229.9v-1.6c-0.7,0.3-1.5,0.4-2.2,0.5v0.4c0.7,0.1,0.8,0.2,0.8,1
			v3c0,0.9-0.1,1-1,1v0.4h3.6v-0.4c-1-0.1-1.2-0.1-1.2-1v-2.6c0.3-0.7,0.7-1,1-1c0.2,0,0.5,0.1,0.7,0.4c0.1,0.1,0.2,0.1,0.3,0
			c0.3-0.2,0.5-0.6,0.5-1c0-0.4-0.4-0.7-0.9-0.7C-140.2,228.4-140.9,229.1-141.3,229.9L-141.3,229.9z M-134.2,230.2
			c0-0.3-0.1-1.3-0.3-1.6c-0.3-0.1-0.7-0.2-1.3-0.2c-1.4,0-2.3,0.9-2.3,1.9c0,1.1,1,1.6,1.8,2c0.8,0.4,1.1,0.7,1.1,1.2
			c0,0.5-0.4,0.9-0.9,0.9c-0.9,0-1.5-0.9-1.8-1.8l-0.4,0.1c0,0.6,0.1,1.6,0.2,1.8c0.3,0.2,1,0.4,1.7,0.4c1.2,0,2.4-0.7,2.4-2
			c0-1-0.7-1.6-1.9-2c-0.7-0.3-1.1-0.6-1.1-1.1s0.4-0.9,0.8-0.9c0.7,0,1.2,0.6,1.5,1.4L-134.2,230.2z M-131.6,227.3
			c0.4,0,0.8-0.4,0.8-0.8c0-0.5-0.4-0.9-0.8-0.9c-0.4,0-0.8,0.4-0.8,0.9C-132.6,227-132,227.3-131.6,227.3z M-129.8,234.7v-0.4
			c-0.9-0.1-1-0.1-1-1.1v-4.8c-0.5,0.1-1.7,0.4-2.4,0.5v0.4c0.7,0.1,1,0.1,1,1v2.8c0,1-0.1,1-1,1.1v0.4L-129.8,234.7
			C-129.8,234.6-129.8,234.7-129.8,234.7z M-117.6,227.3c0.4,0,0.8-0.4,0.8-0.8c0-0.5-0.4-0.9-0.8-0.9c-0.4,0-0.8,0.4-0.8,0.9
			C-118.3,227-117.9,227.3-117.6,227.3z M-115.7,234.7v-0.4c-0.9-0.1-1-0.1-1-1.1v-4.8c-0.5,0.1-1.7,0.4-2.4,0.5v0.4
			c0.7,0.1,1,0.1,1,1v2.8c0,1-0.1,1-1,1.1v0.4L-115.7,234.7C-115.7,234.6-115.7,234.7-115.7,234.7z M-114.5,227.6v1.1h-0.7l-0.3,0.5
			v0.1h1v3.9c0,1.2,0.7,1.7,1.6,1.7c0.2,0,0.3-0.1,0.4-0.1c0.2-0.1,1-0.4,1.3-0.7l-0.1-0.4c-0.2,0.1-0.6,0.2-0.9,0.2
			c-0.3,0-0.8-0.2-0.8-1.3v-3.4h1.6c0.1-0.1,0.1-0.4,0.1-0.7h-1.7v-1.9l-0.2-0.1C-113.5,227-114.2,227.3-114.5,227.6z M-128.6,227.6
			v1.1h-0.7l-0.3,0.5v0.1h1v3.9c0,1.2,0.7,1.7,1.6,1.7c0.2,0,0.3-0.1,0.4-0.1c0.2-0.1,1-0.4,1.3-0.7l-0.1-0.4
			c-0.2,0.1-0.6,0.2-0.9,0.2c-0.3,0-0.8-0.2-0.8-1.3v-3.4h1.6c0.1-0.1,0.2-0.4,0.1-0.7h-1.7v-1.9l-0.2-0.1
			C-127.6,227-128.3,227.3-128.6,227.6z M-152.2,234.7c0.7-2.1,1.1-3.4,1.6-4.8c0.2-0.7,0.4-0.7,1-0.8v-0.4h-2.7v0.4
			c0.1,0,0.4,0.1,0.5,0.1c0.3,0.1,0.4,0.3,0.2,0.7l-1.2,4h-0.1l0,0l-1.1-4c-0.1-0.4-0.1-0.6,0.1-0.7c0.1-0.1,0.4-0.1,0.6-0.1v-0.4
			h-3.3v0.4c0.8,0.1,0.7,0.1,1,0.9l1.6,4.7H-152.2z M-167.4,229.3c0.7,0.1,1,0.2,1,1v2.9c0,0.9-0.1,1-1,1.1v0.4h3.3v-0.4
			c-0.7-0.1-0.8-0.1-0.8-1v-3.3c0.4-0.3,0.9-0.6,1.2-0.6c0.7,0,1.3,0.4,1.3,1.4v2.4c0,1-0.1,1-0.8,1.1v0.4h3.2v-0.4
			c-0.7-0.1-1-0.1-1-1v-2.7c0-1.4-0.7-2.2-1.8-2.2c-0.4,0-0.7,0.1-0.9,0.2l-1.2,0.8v-1c-0.5,0.1-1.8,0.4-2.4,0.5L-167.4,229.3
			L-167.4,229.3z M-161,241.3c0.4,0,0.8-0.4,0.8-0.8c0-0.5-0.4-0.9-0.8-0.9c-0.4,0-0.8,0.4-0.8,0.9
			C-161.9,240.9-161.5,241.3-161,241.3z M-159.1,248.6v-0.4c-0.9-0.1-1-0.1-1-1.1v-4.8c-0.5,0.1-1.7,0.4-2.4,0.5v0.4
			c0.7,0.1,1,0.1,1,1v2.8c0,1-0.1,1-1,1.1v0.4L-159.1,248.6L-159.1,248.6z M-167.1,244.7c0.1-1,0.6-1.8,1.3-1.8c0.7,0,1,0.7,1,1.5
			c0,0.2-0.1,0.3-0.3,0.3H-167.1z M-163.7,245.2c0.2,0,0.4-0.1,0.4-0.4c0-1.6-1-2.4-2.4-2.4c-0.7,0-1.4,0.2-2,0.9
			c-0.6,0.6-1,1.6-1,2.5c0,1.6,1.1,3,2.9,3c0.5,0,1.6-0.3,2.4-1.4l-0.2-0.3c-0.5,0.4-1,0.7-1.6,0.7c-1,0-2-0.6-2-2.4L-163.7,245.2z
			 M-149.8,244.7c0.1-1,0.6-1.8,1.3-1.8c0.7,0,1,0.7,1,1.5c0,0.2-0.1,0.3-0.3,0.3H-149.8z M-146.3,245.2c0.2,0,0.4-0.1,0.4-0.4
			c0-1.6-1-2.4-2.4-2.4c-0.7,0-1.4,0.2-2,0.9c-0.6,0.6-1,1.6-1,2.5c0,1.6,1.1,3,2.9,3c0.5,0,1.6-0.3,2.4-1.4l-0.2-0.3
			c-0.5,0.4-1,0.7-1.6,0.7c-1,0-2-0.6-2-2.4L-146.3,245.2z M-169.9,246.2c-0.2,0.7-0.5,1-0.8,1.3c-0.4,0.4-0.8,0.5-1.4,0.5
			c-0.5,0-0.8,0-1.1-0.1c-0.3-0.1-0.3-0.4-0.3-1.1V242c0-1.2,0.1-1.3,1.3-1.3v-0.4h-4v0.4c1.1,0.1,1.3,0.1,1.3,1.3v4.9
			c0,1.2-0.1,1.3-1.4,1.3v0.4h6.5c0.1-0.4,0.4-1.9,0.5-2.4L-169.9,246.2z M-154.3,247.5c-0.3,0.2-0.7,0.4-1,0.4
			c-0.7,0-1.8-0.7-1.8-2.4c0-2.1,1.1-2.5,1.6-2.5c0.6,0,1,0.1,1.3,0.6L-154.3,247.5L-154.3,247.5z M-151.7,247.9l-0.4-0.1
			c-0.5-0.1-0.7-0.1-0.7-0.9v-7.7c-0.6,0.2-1.7,0.4-2.5,0.5v0.4c1,0.1,1.1,0.1,1.1,1v1.5c-0.4-0.1-0.8-0.1-1-0.1
			c-2.3,0-3.5,1.6-3.5,3.5c0,2,1.4,2.9,2.6,2.9c0.1,0,0.6,0,1-0.2l0.8-0.5v0.8c0.5-0.1,1.8-0.4,2.5-0.5V247.9z M-145.3,243.2
			c0.7,0.1,1,0.2,1,1v2.9c0,0.9-0.1,1-1,1.1v0.4h3.3v-0.4c-0.7-0.1-0.8-0.1-0.8-1v-3.3c0.4-0.3,0.9-0.6,1.2-0.6
			c0.7,0,1.3,0.4,1.3,1.4v2.4c0,1-0.1,1-0.8,1.1v0.4h3.1v-0.4c-0.7-0.1-0.9-0.1-0.9-1v-2.7c0-1.4-0.7-2.2-1.8-2.2
			c-0.4,0-0.7,0.1-0.9,0.2l-1.1,0.8v-1c-0.5,0.1-1.7,0.4-2.4,0.5V243.2z"/>
		<g>
			<path class="st0" d="M-212.4,229.6c0.2-0.1,0.5-0.1,0.7-0.1v1.6c0,0.2,0,0.2,0.2,0.2v0.1h-1v-0.1c0.2,0,0.2,0,0.2-0.2v-1.2
				c0-0.1,0-0.1-0.1-0.1h-0.1L-212.4,229.6L-212.4,229.6z M-192.7,229.5c0,0.1-0.1,0.3-0.1,0.6h0.1c0.1-0.1,0.1-0.2,0.3-0.2h0.7
				c-0.3,0.5-0.6,1-1,1.6v0.1l0.4-0.1c0.3-0.6,0.5-1.3,0.8-1.9v-0.1L-192.7,229.5L-192.7,229.5L-192.7,229.5z M-191,229.5l-0.1,1
				c0.1,0,0.1-0.1,0.3-0.1c0.2,0,0.4,0.1,0.4,0.4c0,0.2-0.1,0.4-0.2,0.4c-0.1,0-0.3-0.1-0.4-0.2c0,0-0.1,0-0.1,0
				c-0.1,0.1-0.1,0.1-0.1,0.1c0,0.1,0,0.1,0.1,0.1c0.1,0.1,0.2,0.1,0.4,0.1c0.1,0,0.4-0.1,0.5-0.2c0.2-0.1,0.3-0.4,0.3-0.6
				c0-0.2-0.2-0.5-0.7-0.5c-0.1,0-0.2,0.1-0.4,0.1l0.1-0.4h0.8l0.1-0.4L-191,229.5L-191,229.5L-191,229.5z M-210.9,229.5l-0.1,1
				c0.1,0,0.1-0.1,0.3-0.1c0.2,0,0.4,0.1,0.4,0.4c0,0.2-0.1,0.4-0.2,0.4c-0.1,0-0.3-0.1-0.4-0.2c0,0-0.1,0-0.1,0
				c-0.1,0.1-0.1,0.1-0.1,0.1c0,0.1,0,0.1,0.1,0.1c0.1,0.1,0.2,0.1,0.4,0.1c0.1,0,0.4-0.1,0.5-0.2c0.2-0.1,0.3-0.4,0.3-0.6
				c0-0.2-0.2-0.5-0.7-0.5c-0.1,0-0.2,0.1-0.4,0.1l0.1-0.4h0.8l0.1-0.4L-210.9,229.5L-210.9,229.5L-210.9,229.5z M-181.4,240.5
				c0,12.7-8.9,23.1-19.8,23.1c-10.9,0-19.8-10.4-19.8-23.1s8.9-23.1,19.8-23.1C-190.3,217.5-181.4,227.9-181.4,240.5z
				 M-181.2,240.5c0-12.9-9-23.4-20.1-23.4c-11.1,0-20.1,10.5-20.1,23.4s9.1,23.4,20.1,23.4C-190.1,263.9-181.2,253.5-181.2,240.5z
				 M-201.9,226.5c0.1,0.1,0.2,0.1,0.3,0.1c0.1-0.1,0.3-0.2,0.3-0.2c-0.1,0-0.1,0-0.2,0c-0.1,0-0.1,0.1-0.1,0.1
				C-201.8,226.4-201.8,226.4-201.9,226.5 M-201.8,226c-0.1,0-0.1,0.1-0.1,0.1c0.1,0,0.1-0.1,0.1,0c0,0,0.1,0,0.1,0
				c0.1,0,0.1-0.1,0.1,0c0.1,0,0.1-0.1,0-0.1s-0.1,0-0.1,0c-0.1,0.1-0.1,0-0.1,0C-201.8,226-201.8,226-201.8,226 M-201.6,225.4
				L-201.6,225.4L-201.6,225.4L-201.6,225.4z M-201.1,225.1c-0.2,0-0.6,0.1-0.6,0.1v0.1h0.1l0,0c0,0,0,0,0,0.1s0.1,0.1,0.1,0.1
				s0.1-0.1,0.1-0.1c0-0.1,0-0.1-0.1-0.1c0.1,0,0.1-0.1,0.3-0.1C-201,225.3-201,225.3-201.1,225.1C-201,225.1-201,225.1-201.1,225.1
				 M-201.9,225c0.4-0.2,0.7-0.4,1.2-0.4c0.4,0,0.5,0.3,0.5,0.3c0.1-0.1,0.1-0.6-0.4-0.6C-201.4,224.5-201.8,224.9-201.9,225
				 M-201.3,236.3c-0.9-0.1-1-0.7-1-1c0-0.2,0.2-0.1-0.1-0.3c-0.7-0.4-1.3-0.1-1.3-0.1l0.1,0.1c0.6,0,0.8,0.2,0.8,0.2
				c-0.1,1.6,1,1.5,1,1.5c0.1,0.3,0.4,0.4,0.7,0.4c0.1,0,0.2-0.1,0.3-0.1C-201.2,236.9-201.3,236.3-201.3,236.3 M-198.8,236.6
				l0.4-0.1c0.1-0.2,0.2-0.3,0.3-0.4c0.1,0,0.1-0.1,0.1-0.1c0-0.2,0-0.3-0.1-0.5c-0.5-0.7-0.5-1.3-0.6-1.3c0-0.1-0.1,0-0.1,0
				s0.3,1.3-0.2,1.4c0,0,0.1,0.7-0.6,0.8c-0.1,0-0.1,0.1-0.1,0.1c0,0.1-0.1,0.3-0.1,0.4C-199.3,236.8-199,236.7-198.8,236.6
				C-198.8,236.7-198.8,236.7-198.8,236.6 M-198.6,233.5c0.1,0,0.2-0.1,0.5-0.1c0.3,0,0.4,0.2,0.4,0.2l0.1,0.3c0,0,0.3,0.1,0.4,0
				s0.1-0.2-0.1-0.4c-0.2-0.2-0.3-0.3-0.7-0.3C-198.5,233.2-198.8,233.4-198.6,233.5L-198.6,233.5 M-205.5,231.6
				c-0.4,0.2-0.5,0.8-0.4,1.6c0.1,1,0.6,1.2,1,0.6c0.4-0.4,0.5-0.9,0.4-0.9c-0.2,0.1-0.7,0.1-0.8-0.1
				C-205.7,232.3-205.5,231.9-205.5,231.6L-205.5,231.6 M-199,248.8c-0.4-0.4-1-0.8-1.4-1.5c-1-1.7-1.2-3-1.2-6.9c0-0.1,0-0.3,0-0.4
				l-0.6-0.1c0,0-0.1,4-0.1,4.5c0,0.6,0.1,1.2,0.3,0c0.1-0.6-0.1-2.4,0.1-2.4c0.2,0,0.2,6.8,0,6.8c-0.4,0-0.6-0.1-1.3-0.1
				c-0.2-0.3-0.9-0.3-1-0.2c0,0,0.2,0.1,0.4,0.2l-7.1,2l-0.4-0.3l-3,1.3l3.3-0.3l0.1-0.5l7.3-1.9c0.3,0.1,0.7,0.3,0.7,0.3
				c0.1,0.1,1-0.1,1,0.3c0,0.2-0.3,0.4-0.5,0.4s-0.6,0-0.6,0.1s0.7,0.1,0.8,0.1c0.2-0.1,0.9-0.3,1.4-0.8
				C-200.8,249.3-199.3,249.2-199,248.8C-199,248.9-199,248.9-199,248.8 M-211.2,251.1l-1.9,0.3l2.1-0.6L-211.2,251.1z
				 M-210.7,238.5c0,0,1,0.1,1-0.4c0-0.2-0.1-0.3-0.2-0.3c-0.1,0-0.2,0.1-0.1,0.3C-210,238.2-210,238.3-210.7,238.5 M-211.4,238
				c0,0.1,0.1,0.1,0.1,0.1c0.1,0,0.1-0.1,0.1-0.1V238h0.1c0,0,0.1,0,0.1-0.1c0,0,0-0.1-0.1-0.1h-0.4c0,0-0.1,0-0.1,0.1
				c0,0,0,0,0.1,0h0.1C-211.4,238-211.4,238-211.4,238 M-208.6,241.7c0.1-0.2,0.6-0.2,0.7,0.1c0,0-0.4,0-0.4,0.1
				c0,0,0.4,0.1,0.4,0.4c0,0-0.1-0.2-0.4-0.2c0,0,0.1,0.4-0.1,0.5c0,0-0.1-0.4-0.3-0.4s-0.2,0.2-0.2,0.3c0,0-0.1-0.1-0.1-0.4
				c0-0.1-0.1-0.2-0.1-0.2s-0.7-0.1-1.3-0.8c0,0-0.4,0.2-1,0.3c0,0-0.1,0.1,0.1,0.1c0.1,0,0.9,0,1.3,0.7c0.1,0.1,0.2,0.2,0.6,0.2
				c0,0,0,0.4-0.7,0.4c0,0,0.4,0.3,0.7,0.6c0.1,0.1,0.1,0.1,0.3,0c0.1-0.1,0.6-0.4,0.8,0.1c0,0-0.3-0.1-0.4,0c0,0,0.3,0.3,0.2,0.6
				c0,0-0.2-0.3-0.4-0.2c-0.1,0,0.1,0.3-0.1,0.4c0,0,0-0.4-0.3-0.4c0,0,0.1,0.2-0.2,0.3c0,0,0.1-0.4-0.1-0.6c-0.1,0-1.5-0.2-1.7-0.8
				c0,0,0.2-0.1,0.4-0.1c0,0-0.8-0.6-1-1c0,0-0.1-0.1-0.1,0.1c0.1,0.1,0.2,0.2,0.1,1c0,0.2,0.1,0.4,0.3,0.6c0,0-0.5,0.2-1-0.4
				c0,0,0,1.1,0.6,1.2c0.2,0,0.7,0,0.7,0.7c0,0-0.2-0.3-0.4-0.2c0,0,0.1,0.2,0.1,0.4c0,0-0.2-0.3-0.4-0.2c0,0,0.1,0.2,0,0.4
				c0,0-0.2-0.4-0.3-0.4c-0.1,0-0.2,0.2-0.2,0.4c0,0-0.4-0.1-0.1-0.4c0.1-0.1,0.1-0.1,0.2-0.2s-1.6-0.7-1.4-1.9c0,0,0.3,0.2,0.4,0.1
				s0.1-0.5-0.3-0.8c0,0,0.3-0.1,0.4-0.1c0.1,0,0.1-0.1,0.1-0.3c-0.1,0-0.5,0-0.7-0.2c-0.1-0.1-0.2-0.4-0.1-0.7
				c0.1-0.3,0.4-0.7,0.6-1c0.1-0.1,0.1-0.2,0.2-0.3c0.1-0.2,0.3-0.6,0.2-0.8c-0.1-0.1-0.1-0.1-0.3-0.1c-0.1,0-0.1,0-0.1,0
				c0.1,0.3-0.1,0.6-0.4,0.8c-0.4,0.3-0.4,0.7-0.4,0.7s-0.1-0.7-0.1-1.3c0.1-0.4,0.4-0.8,0.7-0.4c0,0,0.1,0,0.2,0
				c0.3,0,0.4,0.1,0.5,0.3c0.2,0.4-0.1,1-0.2,1.1s-0.1,0.1-0.2,0.3c-0.2,0.3-0.5,0.7-0.6,1c0.1,0.1,0.1,0.2,0.2,0.3
				c0.2,0.1,0.5,0.1,0.6,0.1c0,0,0.7-0.6,1.2-0.7c0.2-0.1,0.2-0.3,0.1-0.2c-0.1,0-0.7,0.1-1-0.2c0,0,0.7-0.2,0.7-0.6
				c0,0-0.3,0.2-0.7,0.1c0,0,0.6-0.4,0.4-0.8c-0.1-0.1-0.1-0.6,0-0.7c0.1-0.1-0.1-0.2-0.2-0.2c0,0,0.3-0.3,0.5,0h0.1
				c0.1,0,0.3-0.1,0.4-0.1s0.3-0.1,0.4,0.1c0,0,0.1,0.1,0.3,0.1c0.1,0,0.1,0.1,0.1,0.3c0,0.1-0.1,0.1-0.4,0.1
				c-0.1,0-0.3,0.4-0.2,0.4s0.4-0.1,0.6-0.1c0.1,0,0.1,0.1,0.1,0.3c-0.1,0.1-0.1,0-0.3,0s-0.3,0.2-0.1,0.4c0.1,0.1,0.7,0.3,1-0.5
				c0,0,0.1,0.1,0.1,0.6l1.1-0.9c0,0-0.1-0.6,0.4-0.8c0,0-0.1,0.2-0.1,0.4c0,0,0.3-0.2,0.4-0.2c0,0-0.3,0.4-0.3,0.4
				c0,0,0.4-0.1,0.5,0c0,0-0.4,0.2-0.4,0.3c0,0.1,0.3,0.1,0.4,0.1c0,0-0.1,0.3-0.6,0.2c0,0-0.4,0.7-1.1,1.1c-0.1,0.1,0,0.4,0.4,0.2
				c0.1-0.1,0.3-0.1,0.3-0.2c0,0,0.4,0.7-0.8,0.8c0,0,0.7,0.7,0.8,0.9C-208.7,241.9-208.6,241.7-208.6,241.7 M-189,245.1
				c0,0.1,0,0.1-0.1,0.1s-0.1,0-0.1,0.1c-0.1,0.1-0.1,0.1,0,0.1C-189,245.4-188.9,245.2-189,245.1c0.1-0.1,0.2-0.1,0.3-0.1
				c0.1,0,0-0.1,0-0.1h-0.1c0-0.1,0-0.2-0.1-0.2c0.1,0,0.4,0,0.6-0.1c0-0.1,0.1-0.1,0.1-0.1l-0.1-0.1c-0.1-0.1-0.4-0.1-0.5,0
				c-0.3,0.1-0.4,0-0.4-0.1V244c0.1,0.1,0.2,0,0.2,0c0.1-0.1,0.1-0.1,0-0.1c-0.2-0.1-0.3,0.1-0.3,0.1c-0.1,0.1-0.1,0.2,0,0.2
				c0.1,0.1,0.4,0.1,0.6,0.1c0.1-0.1,0.4,0,0.4,0c0,0,0,0.1,0,0.1l-0.1,0.1c-0.1,0.1-0.4,0.1-0.7,0.1c-0.2-0.1-0.4,0.1-0.5,0.1
				c-0.1,0.1-0.2,0.1-0.3,0.1c-0.1-0.1,0.1-0.4,0.1-0.4c0.1-0.1,0-0.1-0.1-0.1c-0.3,0.1-0.3-0.1-0.3-0.1c-0.1-0.1-0.1,0-0.1,0
				c-0.1,0.1,0.1,0.4-0.1,0.4c-0.4,0.1-0.6-0.3-0.6-0.3h-0.1c0.1,0.2,0.2,0.3,0.3,0.4c0.1,0.1,0.1,0.1,0.1,0.1l0.1,0.1l-0.1,0.2
				c0,0.1-0.3,0.3-0.3,0.3c-0.1,0-0.3,0.1-0.2,0.1c0.1,0.1,0.4,0,0.4,0c0-0.1,0.4-0.4,0.5-0.4c0,0,0.4-0.1,0.6-0.1
				c0.1-0.1,0.1,0,0.1,0c-0.1,0.1-0.2,0.4-0.2,0.4c-0.1,0-0.3,0.1-0.2,0.1c0.1,0.1,0.3-0.1,0.3-0.1c0-0.1,0.1-0.2,0.1-0.2l0.2-0.4
				l0.1-0.1c0,0,0.1,0.1,0.1,0.2C-188.8,245-189,245.1-189,245.1 M-188.8,237.7l0.1-0.3l-0.4,0.1v-0.3l-0.2,0.2l-0.2-0.1v0.3
				L-188.8,237.7z M-193.6,237.9c-0.4-0.1-0.4-0.1-0.3-0.2s0-0.1-0.1-0.1s-0.1,0-0.1,0.1C-194,238-193.6,237.9-193.6,237.9
				 M-194.3,237.1h-0.1v0.4h0.1V237.1z M-192.1,237.1h-0.1v0.4h0.1V237.1z M-194.7,238.5h-0.1v0.4h0.1V238.5z M-194.9,240.5h-0.1
				v0.4h0.1V240.5z M-193.6,241h-0.1v0.4h0.1V241z M-198.1,241.4c0-0.1,0-0.3-0.1-0.3c-0.1,0-0.3,0-0.4,0.8c0,0,0.3-0.1,0.4,0
				C-198.1,241.9-198.1,241.6-198.1,241.4 M-197.7,238c-0.1,0-0.3,0.1-0.4,0.4c-0.1,0.3-0.1,0.5-0.1,0.7c0.1,0,0.1,0,0.1,0
				c0.1-0.1,0.1-0.5,0.4-0.7c0,0,0,0,0-0.1C-197.6,238-197.7,238-197.7,238 M-198.6,239.1c0,0,0.1,0,0.1,0c0-0.1,0-0.4-0.1-0.7
				c-0.1-0.3-0.2-0.4-0.3-0.4c-0.1,0-0.2,0-0.4,0.2C-199,238.5-198.8,238.8-198.6,239.1C-198.8,239.1-198.6,239.1-198.6,239.1
				 M-196.5,240.5c0-0.3,0-0.6,0-0.9c-0.1,0.1-0.1,0.3-0.1,0.4C-196.6,240.2-196.6,240.3-196.5,240.5 M-198.1,243.7
				C-198,243.7-198,243.8-198.1,243.7c0.1,0.1,0.1,0.1,0.1,0.2c0.1,0.4,0,1.3,0,1.3c0.3-0.6,0.4-1,0.2-1.4c0-0.1-0.1-0.1-0.1-0.3
				C-197.9,243.4-198.2,243.7-198.1,243.7 M-197.6,240.1c0.1-0.1,0.1-0.4-0.1-0.7v-0.1c0,0,0.1-0.5,0.5-0.8c0.1-0.1,0.2-0.1,0.3,0
				c0.1,0.1,0.1,0.4,0.1,0.8c0-0.1-0.1-0.2-0.1-0.3c-0.1-0.1-0.2-0.2-0.4-0.1c-0.1,0.1-0.2,0.2-0.1,0.4c0.1,0.3,0.3,0.7,0.5,1.6
				l0.1,0.3c0.1,0.7-0.1,1.3-0.4,2.3c-0.2,0.8-0.6,2.4-0.4,3.3c0.2-1.4,0.6-2.9,0.8-3.3c0.1-0.1,0.1-0.4,0.3-0.7
				c-0.1,1.6-0.2,3.2-0.7,4.7c-0.1,0.6-0.4,1-0.7,1.3c-0.2,0.3-0.4,0.4-0.4,0.4l0,0l0,0c0,0,0,0-0.1,0l0,0c-0.2-0.1-0.8-0.5-1.4-1.2
				c-0.2-0.2-0.4-0.4-0.5-0.7c-0.7-1.3-1-2.2-1-4.4c0-0.4,0-1,0-1.6c0-0.2,0-0.4,0-0.6c0-1.9,0.1-2.8,0.1-2.8s0.4-0.1,1.3-0.4
				c0.4-0.1,1-0.1,1.6-0.1c0,0,0,0.1,0,0.1c0.1,0.1,0.1,0.1,0.2,0.1c-0.1,0.1-0.3,0.2-0.4,0.4c-0.1-0.2-0.2-0.4-0.4-0.4
				c-0.3-0.1-0.6,0-0.8,0.4c-0.3-0.1-0.6-0.1-0.8,0.1c-0.4,0.3-0.4,1.1,0.1,2.2c-0.1,0.1-0.1,0.3-0.1,0.4c-0.4,1.6,0.2,2.4,0.7,3.3
				c0.3,0.7,0.9,2.7,1,2.8c0.1-0.3-0.1-2.2-0.6-3.1c-0.3-0.7-1-1.6-0.6-2.8c0.1-0.4,0.4-1,0.5-1.6c0-0.3-0.4-0.7-0.5-0.3
				c0,0.1-0.1,0.3-0.1,0.5c-0.2-0.6-0.3-1-0.1-1.2c0.1-0.1,0.4-0.1,0.5,0c0.3,0.1,0.4,0.6,0.5,0.8l0,0c0.1,0.2,0.1,0.4,0,0.7
				c-0.1,0.4-0.3,0.5,0,0.7c0.1,0.1,0.4,0.2,0.4,0.2s-0.7,1.6,0.4,1.8c0.2,0.1,0.5-0.1,0.5-0.2c0-0.1-0.1-0.4,0.1-0.8
				c0.1-0.1,0.3-0.6,0.2-0.8c0-0.1-0.1-0.3-0.1-0.4 M-198.5,243.8c0.1-0.1,0.4-0.5,0.4-0.5c0.4-0.4,0.7-0.5,0.8-1
				c0.1-0.4,0.1-0.4,0.2-1c0.1-0.5-0.2-1-0.3-0.6c-0.1,0.4-0.1,1-0.3,1.4c-0.1,0.4-0.4,0.6-0.6,0.8c-0.1,0.1-0.1,0.1-0.1,0.1
				l-0.1-0.1c-0.7-0.3-1-0.4-1-1c-0.1-0.7,0.1-0.8-0.2-1.5c-0.1-0.1-0.1,0.1-0.2,0.3c0,0.1,0,0.2,0,0.4c0.1,0.4-0.1,0.7,0.1,1.3
				c0.2,0.6,0.6,0.7,1.3,1c-0.1,0.1-0.2,0.4-0.2,0.6c-0.1,0.4,0.1,1,0.3,1.3C-198.6,245-198.6,244.3-198.5,243.8 M-196.6,238.2
				C-196.6,238.2-196.6,238.2-196.6,238.2c0,0,0-0.1,0-0.1c0-0.2-0.1-0.4-0.4-0.5c-0.1,0.1-0.2,0.1-0.4,0.1c0.1,0.1,0.1,0.3,0.1,0.4
				C-197,238-196.7,238.1-196.6,238.2 M-198.5,240.3c0-0.1,0-0.1-0.1-0.1c0.1,0,0.1-0.1,0.1-0.1V240h-0.1c-0.1,0.1-0.6,0.2-0.6,0.2
				l-0.1,0.1c0,0,0,0.1,0.1,0.1c0,0,0.1,0,0.3-0.1v0.1c0,0.1,0.1,0.1,0.1,0.1C-198.6,240.5-198.5,240.4-198.5,240.3 M-197.6,240.1
				c-0.3-0.1-0.5-0.2-0.5-0.2h-0.1v0.1c0,0,0.1,0,0.1,0.1c-0.1,0-0.1,0.1-0.1,0.1c0,0.1,0.1,0.1,0.1,0.1c0.1,0,0.1-0.1,0.1-0.1
				c0-0.1,0-0.1,0-0.1C-197.9,240-197.8,240.1-197.6,240.1 M-198.2,241.1c-0.1,0-0.3,0-0.4,0.8c0,0,0.3-0.1,0.4,0c0,0,0-0.4,0.1-0.5
				C-198.1,241.3-198.1,241.1-198.2,241.1 M-198.2,240.7C-198.3,240.7-198.2,240.7-198.2,240.7c-0.1,0-0.2,0.1-0.1,0.1
				s0.1-0.1,0.1,0c0,0,0.1,0,0.1,0c0.1,0,0.1,0,0.1,0c0.1,0,0.1-0.1,0-0.1c-0.1,0-0.1,0-0.1,0C-198.2,240.8-198.2,240.8-198.2,240.7
				 M-208.8,248.5L-208.8,248.5L-208.8,248.5L-208.8,248.5 M-213.8,248.5L-213.8,248.5C-213.7,248.5-213.7,248.5-213.8,248.5
				C-213.7,248.5-213.8,248.5-213.8,248.5 M-205.1,256.4c0,2.2,1.8,3.9,3.9,3.9s3.9-1.8,3.9-3.9V251h-7.9V256.4 M-188.2,252.2
				c-2.5,4-6.3,6.8-10.6,7.6c-0.7,0.5-1.5,0.7-2.4,0.7c-0.9,0-1.7-0.3-2.4-0.7c-4.3-0.7-8.1-3.6-10.5-7.6h8.9V251v-0.1h0.1h8h0.1
				v0.1v1.2H-188.2 M-198.6,256.7c0-0.1,0.1-0.5-0.3-0.6c-0.4-0.1-0.7,0.4-0.7,0.4c0,0.1-0.1,0.1-0.1,0.1c-0.1,0-0.6,0.1-0.6,0.5
				c0,0.4,0.4,0.4,0.5,0.4c0.2,0,0.4,0,0.6-0.1c0.1,0,0.2,0,0.3-0.1c0.1-0.1,0.1-0.2,0.1-0.3C-198.8,257-198.6,256.9-198.6,256.7
				 M-198.2,257.4c0.1,0,0.1,0.1,0.1,0.2c0,0.1-0.1,0.1-0.2,0.1c-0.1,0-0.2,0-0.4,0c0,0.1-0.1,0.2-0.1,0.4c0,0.1-0.1,0.1-0.2,0.1
				c-0.1,0-0.1-0.1-0.1-0.2c0-0.1,0-0.1,0-0.2l0,0c-0.2,0.1-0.4,0.1-0.7,0.1c-0.5-0.1-0.9-0.4-0.9-0.8s0.4-0.7,0.7-0.8l-1.2-1.6
				l-1.3,1.6c0.3,0.1,0.7,0.4,0.7,0.8s-0.3,0.8-0.8,0.8c-0.3,0-0.5-0.1-0.7-0.1l0,0c0,0.1,0,0.1,0,0.2s-0.1,0.2-0.1,0.2
				c-0.1,0-0.2-0.1-0.2-0.1c0-0.1,0-0.2-0.1-0.4c-0.1,0-0.2,0-0.4,0c-0.1,0-0.2-0.1-0.2-0.1c0-0.1,0.1-0.2,0.1-0.2
				c0.1,0,0.1,0,0.2,0l0,0c-0.1-0.1-0.2-0.4-0.3-0.7c-0.1-0.5,0.1-1,0.6-1c0.4-0.1,0.7,0.1,0.9,0.4l1.3-1.7l-0.7-1l0,0l-1.3,1
				l-0.2-0.3l0.7-0.5l-0.2-0.3l-0.7,0.5l-0.5-0.7l0.3-0.2l0.2,0.3l0.3-0.3l-0.2-0.3l0.3-0.2l0.5,0.7l0.3-0.2l-0.4-1l0.3-0.2l1.8,2.2
				l1.8-2.2l0.3,0.2l-0.5,0.7l0.3,0.2l0.5-0.7l0.3,0.2l-0.2,0.3l0.3,0.3l0.2-0.3l0.3,0.2l-0.5,0.7l-0.6-0.4l-0.2,0.3l0.7,0.5
				l-0.2,0.3l-1.3-1l0,0l-0.7,1l1.3,1.7c0.1-0.3,0.5-0.5,0.9-0.4c0.4,0.1,0.7,0.5,0.6,1c-0.1,0.3-0.1,0.5-0.3,0.7l0,0
				C-198.5,257.4-198.3,257.4-198.2,257.4 M-202.3,257.2c0-0.4-0.6-0.5-0.6-0.5c-0.1,0-0.1-0.1-0.1-0.1c0,0-0.2-0.6-0.7-0.4
				c-0.4,0.1-0.3,0.4-0.3,0.6c0.1,0.2,0.1,0.4,0.2,0.5c0.1,0.1,0.1,0.2,0.1,0.3c0.1,0,0.2,0,0.3,0.1c0.2,0.1,0.4,0.1,0.6,0.1
				C-202.5,257.5-202.2,257.5-202.3,257.2 M-203.6,261.8c-0.1-0.1-0.1-0.1-0.2-0.1c-0.1,0-0.4,0-0.5,0.4c-0.1,0.3,0.1,0.4,0.4,0.5
				c0.2,0,0.2,0,0.2-0.1L-203.6,261.8z M-203.5,261.3c0.1-0.4,0-0.4-0.3-0.4v-0.1l1.2,0.2v0.1c-0.3,0-0.3,0-0.4,0.4l-0.1,1.1
				c-0.1,0.4,0,0.4,0.2,0.4v0.1l-1.2-0.2c-0.4-0.1-0.7-0.4-0.7-0.7c0.1-0.4,0.4-0.6,0.8-0.5c0.1,0,0.1,0,0.2,0l0.2,0.1L-203.5,261.3
				L-203.5,261.3z M-206.4,261.1l-0.1-0.1c-0.1,0-0.2-0.1-0.3-0.1c-0.1,0-0.2,0.1-0.3,0.3c-0.1,0.3,0.1,0.5,0.3,0.6
				c0.2,0.1,0.2,0.1,0.2-0.1L-206.4,261.1z M-206.2,260.6c0.1-0.3,0.1-0.4-0.1-0.5l0.1-0.1l1.1,0.4l-0.1,0.1
				c-0.3-0.1-0.3-0.1-0.4,0.2l-0.4,1c-0.1,0.4-0.1,0.4,0.1,0.4l-0.1,0.1l-1.1-0.4c-0.2-0.1-0.4-0.1-0.4-0.3
				c-0.1-0.1-0.1-0.3-0.1-0.5c0.1-0.3,0.4-0.4,0.6-0.4c0-0.1-0.1-0.4-0.1-0.6c-0.1-0.2-0.1-0.3-0.1-0.4c-0.1-0.1-0.1-0.1-0.1-0.2
				l0.1-0.1l0.1,0.1c0.4,0.1,0.4,0.3,0.5,0.5c0.1,0.1,0.1,0.4,0.1,0.6c0,0.1,0.1,0.1,0.1,0.2h0.1L-206.2,260.6z M-208.8,259.8
				l-0.5-0.3l-0.1,0.7l0,0L-208.8,259.8z M-209,258.8L-209,258.8c-0.2-0.1-0.2-0.1-0.3,0.1l-0.1,0.3l0.6,0.4c0.1,0,0.1-0.1,0.3-0.2
				c0.1-0.1,0.1-0.1,0-0.2l-0.1-0.1l0.1-0.1l0.7,0.4l-0.1,0.1c-0.2-0.1-0.3-0.1-0.5,0.1l-1.5,1.1l-0.1-0.1l0.3-1.9
				c0.1-0.3-0.1-0.4-0.2-0.4l0.1-0.1l1,0.6L-209,258.8z M-210.8,258.1c0.2-0.3,0.3-0.3,0.5-0.1l0.1-0.1l-1.4-1.2
				c-0.1,0.1-0.4,0.3-0.4,0.4l0.1,0.1c0.1-0.1,0.2-0.1,0.4-0.1s0.2,0.1,0.4,0.1c0.1,0.1,0.2,0.1,0.2,0.2s0,0.1-0.1,0.3l-0.3,0.4
				l-0.2-0.2c-0.2-0.1-0.2-0.2-0.1-0.4l-0.1-0.1l-0.5,0.7l0.1,0.1c0.2-0.1,0.2-0.1,0.4,0l0.2,0.2l-0.4,0.4c-0.1,0.1-0.1,0.1-0.1,0
				l-0.1-0.1c-0.1-0.1-0.2-0.2-0.2-0.3c0-0.1,0-0.1,0.1-0.3l-0.1-0.1c-0.1,0.2-0.3,0.4-0.3,0.4l1.3,1.1l0.1-0.1
				c-0.2-0.2-0.2-0.2,0-0.5L-210.8,258.1z M-212.7,256.6c0.1-0.2,0.3-0.4,0.4-0.5c0-0.1-0.1-0.4-0.3-0.6c-0.4-0.4-0.8-0.5-1.1-0.2
				c-0.3,0.3-0.2,0.6-0.1,1l0.1,0.1c0.1,0.1,0.1,0.4-0.1,0.4c-0.1,0.1-0.3,0.1-0.4,0c-0.1-0.2-0.1-0.4,0-0.7l-0.1-0.1
				c-0.1,0.2-0.2,0.3-0.3,0.4c0.1,0.1,0.1,0.3,0.3,0.4c0.4,0.4,0.8,0.4,1.1,0.1c0.2-0.2,0.1-0.5,0.1-0.8l-0.1-0.1
				c-0.1-0.2-0.1-0.4,0.1-0.6c0.1-0.1,0.4-0.1,0.5,0.1C-212.5,255.8-212.6,256.3-212.7,256.6L-212.7,256.6z M-215.5,254.7
				c-0.3,0.2-0.3,0.2-0.5,0h-0.1l0.7,1l0.1-0.1c-0.1-0.2-0.1-0.3,0.1-0.5l0.9-0.7c0.3-0.2,0.3-0.2,0.5,0l0.1-0.1l-0.7-1l-0.1,0.1
				c0.1,0.2,0.1,0.3-0.1,0.5L-215.5,254.7z M-215.7,252.3c0.2-0.1,0.3-0.2,0.1-0.4c-0.2-0.4-0.7-0.5-1.2-0.2
				c-0.5,0.3-0.7,0.7-0.4,1.1c0.1,0.1,0.1,0.1,0.1,0.2c0,0,0.1,0,0.1-0.1L-215.7,252.3z M-217.3,252.9c-0.2-0.4-0.3-0.7-0.2-1
				c0.1-0.2,0.2-0.4,0.4-0.6c0.7-0.4,1.3,0,1.7,0.7l0.5,0.9l-0.1,0.1c-0.1-0.2-0.1-0.2-0.4-0.1l-1,0.5c-0.4,0.2-0.4,0.2-0.2,0.5
				l-0.1,0.1L-217.3,252.9z M-218.1,249.8c-0.3,0.1-0.4,0.1-0.5-0.1l-0.1,0.1l0.4,1.1l0.1-0.1c-0.1-0.3-0.1-0.3,0.2-0.4l1.1-0.4
				c0.3-0.1,0.4-0.1,0.5,0.1l0.1-0.1l-0.4-1.1l-0.2,0.1c0.1,0.3,0.1,0.3-0.2,0.4L-218.1,249.8z M-219,248.9l0.1-0.1
				c-0.1-0.3-0.1-0.4,0.3-0.4l0.7-0.2c0.4-0.1,0.6-0.2,0.7-0.4c0.1-0.2,0.1-0.4,0-0.7c-0.1-0.3-0.2-0.5-0.4-0.6
				c-0.2-0.1-0.5-0.1-0.8,0l-0.2,0.1c-0.3,0.1-0.4,0.1-0.6,0.1c-0.1,0-0.2-0.1-0.2-0.2h-0.1l0.3,0.9l0.1-0.1c-0.1-0.2,0-0.3,0.1-0.4
				c0.1-0.1,0.2-0.1,0.6-0.2l0.2-0.1c0.5-0.1,0.9-0.1,1,0.3c0.1,0.4-0.1,0.7-0.7,0.8l-0.6,0.1c-0.4,0.2-0.4,0.1-0.6-0.1l-0.1,0.1
				L-219,248.9z M-220.3,243.4l1.5,0.4l-1.3,0.9l0.1,0.8h0.1c0-0.3,0-0.4,0.4-0.4l0.7-0.1c0.3,0,0.4,0,0.5,0c0.1,0,0.2,0.1,0.2,0.3
				h0.1l-0.1-0.9h-0.1c0,0.2,0,0.4-0.1,0.4c-0.1,0-0.2,0.1-0.6,0.1l-0.7,0.1l0,0l1.5-0.9V244l-1.7-0.7l0,0l1.3-0.2
				c0.3-0.1,0.4,0,0.4,0.3h0.1l-0.1-1.2h-0.1c0,0.4,0,0.4-0.3,0.4l-1.2,0.2c-0.3,0.1-0.4,0-0.4-0.3h-0.1L-220.3,243.4z
				 M-219.4,240.5c-0.3,0-0.5,0.2-0.5,0.5c0,0.3,0.2,0.5,0.5,0.5c0.3,0,0.5-0.2,0.5-0.5C-218.9,240.8-219.1,240.5-219.4,240.5
				 M-219,239.1l0.1-0.5l-0.7,0.1l0,0L-219,239.1z M-218.3,238.5L-218.3,238.5c0-0.2,0-0.2-0.2-0.1l-0.3,0.1l-0.1,0.7
				c0.1,0,0.2,0.1,0.4,0.1c0.1,0.1,0.1,0,0.2-0.1v-0.1h0.1l-0.1,0.9h-0.1c0-0.2,0-0.3-0.3-0.4l-1.6-0.8v-0.1l1.9-0.6
				c0.3-0.1,0.3-0.2,0.3-0.4h0.1l-0.1,1.1L-218.3,238.5z M-219.1,234.9c-0.2,0-0.4,0-0.6-0.1c-0.1,0.1-0.1,0.3-0.2,0.7
				c-0.1,0.7,0.2,1.4,0.9,1.6c0.5,0.1,1.2-0.2,1.3-1c0.1-0.3,0-0.6,0-0.7c-0.1-0.1-0.4-0.2-0.6-0.3v0.1c0.3,0.2,0.5,0.4,0.4,0.8
				c-0.1,0.4-0.5,0.7-1.1,0.6c-0.5-0.1-0.8-0.4-0.7-0.9c0.1-0.3,0.2-0.5,0.7-0.5L-219.1,234.9z M-218.1,233.8l0.1-0.5l-0.7,0.1l0,0
				L-218.1,233.8z M-217.4,233.4L-217.4,233.4c0-0.2,0-0.2-0.2-0.2h-0.3l-0.2,0.7c0.1,0,0.1,0.1,0.3,0.2c0.1,0.1,0.1,0.1,0.2-0.1
				l0.1-0.1l0.1,0.1l-0.2,0.8l-0.1-0.1c0-0.2,0.1-0.3-0.2-0.5l-1.4-1.2v-0.1l1.9-0.1c0.3,0,0.3-0.1,0.4-0.3h0.1l-0.3,1L-217.4,233.4
				z M-216.9,231.1c0.2,0.1,0.4,0.1,0.4-0.1c0.2-0.4,0-0.9-0.5-1.1c-0.6-0.2-1-0.1-1.1,0.4c-0.1,0.1-0.1,0.2-0.1,0.2
				s0.1,0.1,0.1,0.1L-216.9,231.1z M-218.3,230.2c0.1-0.4,0.4-0.7,0.7-0.8c0.2-0.1,0.5-0.1,0.7,0c0.7,0.4,0.8,1,0.4,1.8l-0.4,1
				l-0.1-0.1c0.1-0.3,0.1-0.3-0.2-0.4l-1-0.4c-0.3-0.1-0.4-0.1-0.5,0.1l-0.1-0.1L-218.3,230.2z M-215.8,229c0.3,0.1,0.3,0.2,0.1,0.5
				l0.1,0.1l1-1.6c-0.1-0.1-0.4-0.3-0.4-0.4l-0.1,0.1c0.1,0.1,0.1,0.2,0.2,0.3c0,0.1,0,0.2-0.1,0.4c-0.1,0.1-0.1,0.2-0.2,0.3
				c-0.1,0.1-0.1,0-0.3-0.1l-0.4-0.2l0.1-0.3c0.1-0.2,0.1-0.2,0.4-0.1l0.1-0.1l-0.6-0.4l-0.1,0.1c0.2,0.1,0.2,0.1,0.1,0.4l-0.2,0.2
				l-0.5-0.4c-0.1-0.1-0.1-0.1,0-0.1l0.1-0.1c0.1-0.2,0.2-0.3,0.3-0.3c0.1,0,0.1,0,0.4,0.1l0.1-0.1c-0.2-0.1-0.4-0.2-0.5-0.3
				l-0.9,1.5l0.1,0.1c0.1-0.2,0.2-0.2,0.5-0.1L-215.8,229z M-215.8,229c0.3,0.1,0.3,0.2,0.1,0.5l0.1,0.1l1-1.6
				c-0.1-0.1-0.4-0.3-0.4-0.4l-0.1,0.1c0.1,0.1,0.1,0.2,0.2,0.3c0,0.1,0,0.2-0.1,0.4c-0.1,0.1-0.1,0.2-0.2,0.3
				c-0.1,0.1-0.1,0-0.3-0.1l-0.4-0.2l0.1-0.3c0.1-0.2,0.1-0.2,0.4-0.1l0.1-0.1l-0.6-0.4l-0.1,0.1c0.2,0.1,0.2,0.1,0.1,0.4l-0.2,0.2
				l-0.5-0.4c-0.1-0.1-0.1-0.1,0-0.1l0.1-0.1c0.1-0.2,0.2-0.3,0.3-0.3c0.1,0,0.1,0,0.4,0.1l0.1-0.1c-0.2-0.1-0.4-0.2-0.5-0.3
				l-0.9,1.5l0.1,0.1c0.1-0.2,0.2-0.2,0.5-0.1L-215.8,229z M-214.6,224.4l0.7,1.4l-1.6-0.4l-0.5,0.6l0.1,0.1c0.2-0.2,0.2-0.3,0.5,0
				l0.5,0.5c0.2,0.2,0.3,0.3,0.4,0.4s0.1,0.2-0.1,0.4l0.1,0.1l0.6-0.7l-0.1-0.1c-0.1,0.1-0.2,0.2-0.4,0.1c-0.1-0.1-0.1-0.1-0.4-0.4
				l-0.5-0.5l0,0l1.7,0.5l0.1-0.1l-0.8-1.8l0,0l1,0.7c0.2,0.2,0.2,0.2,0.1,0.5l0.1,0.1l0.7-0.9l-0.1-0.1c-0.2,0.2-0.2,0.2-0.5,0.1
				l-0.9-0.7c-0.2-0.2-0.2-0.2-0.1-0.5l-0.1-0.1L-214.6,224.4z M-212.3,223c-0.2-0.3-0.2-0.3,0-0.5l-0.1-0.1l-0.9,0.8l0.1,0.1
				c0.2-0.2,0.3-0.2,0.5,0.1l0.7,0.8c0.2,0.3,0.2,0.3,0,0.5l0.1,0.1l0.9-0.8l-0.1-0.1c-0.2,0.2-0.3,0.2-0.5-0.1L-212.3,223z
				 M-210.7,222.5l0.4-0.3l-0.6-0.4l0,0L-210.7,222.5z M-209.7,222.8L-209.7,222.8c0.1-0.1,0.1-0.2,0-0.3l-0.3-0.1l-0.5,0.4
				c0,0.1,0.1,0.2,0.1,0.4c0.1,0.1,0.1,0.1,0.2,0.1l0.1-0.1l0.1,0.1l-0.7,0.5l-0.1-0.1c0.1-0.1,0.2-0.2,0.1-0.5l-0.4-1.8l0.1-0.2
				l1.6,1c0.2,0.1,0.3,0.1,0.5,0l0.1,0.1l-0.9,0.6L-209.7,222.8z M-208.1,220.6c-0.1-0.3-0.4-0.4-0.7-0.2c-0.2,0.1-0.4,0.4-0.2,0.7
				s0.4,0.4,0.7,0.2C-208.1,221.2-207.9,220.9-208.1,220.6 M-205.1,220.7c0-0.1-0.1-0.4-0.1-0.7h-0.1c0,0.2,0,0.4-0.1,0.4
				c-0.1,0.1-0.1,0.1-0.3,0.2c-0.1,0.1-0.2,0.1-0.3,0.1c-0.1,0-0.1-0.1-0.2-0.3l-0.3-1c-0.1-0.4-0.1-0.4,0.2-0.5l-0.1-0.1l-1.1,0.4
				l0.1,0.1c0.3-0.1,0.3-0.1,0.4,0.3l0.4,1c0.1,0.3,0.1,0.4-0.3,0.4l0.1,0.1L-205.1,220.7z M-205.1,218.5v0.1c0.3,0,0.3,0,0.4,0.4
				l0.1,0.7c0.1,0.4,0.2,0.6,0.4,0.7c0.2,0.1,0.4,0.1,0.7,0.1c0.3-0.1,0.5-0.1,0.7-0.4c0.1-0.3,0.1-0.6,0.1-0.9l-0.1-0.2
				c-0.1-0.3-0.1-0.5-0.1-0.6c0-0.1,0.1-0.2,0.3-0.2v-0.1l-0.9,0.1v0.1c0.2,0,0.3,0,0.4,0.1c0,0.1,0.1,0.3,0.1,0.6v0.2
				c0.1,0.5,0,0.9-0.4,1c-0.4,0.1-0.6-0.2-0.7-0.7l-0.1-0.7c-0.1-0.4,0-0.4,0.2-0.4v-0.1L-205.1,218.5z M-199.9,218.7
				c0-0.3,0-0.5-0.1-0.6c-0.1,0-0.4-0.1-0.7-0.1c-0.7,0-1.4,0.4-1.4,1.1c0,0.7,0.5,1.1,1.3,1.1c0.3,0,0.6-0.1,0.8-0.1
				c0-0.1,0-0.1,0-0.3v-0.2c0-0.2,0-0.2,0.2-0.3v-0.1h-1.1v0.1c0.4,0,0.4,0.1,0.4,0.3v0.3c0,0.3-0.1,0.3-0.2,0.3
				c-0.6,0-0.8-0.5-0.8-1c0-0.7,0.4-0.9,0.7-0.9c0.3,0,0.6,0.1,0.7,0.6L-199.9,218.7z M-198.3,220c-0.1,0.3-0.1,0.4,0.2,0.4
				c0.5,0.1,0.8-0.1,1-0.7c0.1-0.6-0.1-1-0.6-1c-0.1,0-0.2-0.1-0.2,0c0,0-0.1,0.1-0.1,0.1L-198.3,220z M-197.7,218.5
				c0.4,0.1,0.7,0.2,0.9,0.5c0.1,0.2,0.2,0.4,0.1,0.7c-0.1,0.8-0.9,1-1.6,0.8l-1-0.2v-0.1c0.3,0.1,0.4,0,0.4-0.3l0.2-1
				c0.1-0.4,0.1-0.4-0.2-0.4v-0.1L-197.7,218.5z M-195.8,219l-0.1,0.1c0.3,0.1,0.3,0.1,0.1,0.5l-0.3,0.7c-0.1,0.3-0.1,0.6,0,0.8
				c0.1,0.2,0.3,0.4,0.5,0.4c0.3,0.1,0.5,0.1,0.7,0.1c0.2-0.1,0.4-0.3,0.5-0.7l0.1-0.2c0.1-0.4,0.2-0.5,0.3-0.6
				c0.1-0.1,0.1-0.1,0.4-0.1l0.1-0.1l-0.9-0.4l-0.1,0.1c0.2,0.1,0.3,0.1,0.2,0.3c0,0.1-0.1,0.3-0.2,0.6l-0.1,0.2
				c-0.2,0.4-0.5,0.7-0.9,0.6c-0.4-0.1-0.4-0.5-0.2-1l0.2-0.6c0.1-0.3,0.1-0.4,0.4-0.2l0.1-0.1L-195.8,219z M-191.4,222.4
				c0.2-0.3,0.3-0.4,0.4-0.5c0.1-0.1,0.2-0.1,0.4,0l0.1-0.1l-0.8-0.5l-0.1,0.1c0.2,0.1,0.2,0.2,0.2,0.4c-0.1,0.1-0.1,0.2-0.3,0.5
				l-0.3,0.4l0,0l-0.3-1.9l-0.6-0.4l-0.1,0.1c0.3,0.2,0.3,0.3,0.1,0.6l-0.4,0.6c-0.2,0.3-0.3,0.4-0.4,0.5s-0.2,0.1-0.4,0l-0.1,0.1
				l0.8,0.4l0.1-0.1c-0.2-0.1-0.2-0.2-0.2-0.4c0.1-0.1,0.1-0.2,0.3-0.5l0.4-0.5l0,0l0.3,2.2l0.2,0.1L-191.4,222.4z M-190.4,223.3
				c-0.4,0.4-0.5,1-0.2,1.2c0.2,0.2,0.6,0.2,1-0.2c0.4-0.4,0.5-0.9,0.2-1.2C-189.5,222.9-190.1,222.9-190.4,223.3 M-189.2,223
				c0.5,0.5,0.5,1.2,0.1,1.6c-0.5,0.6-1.2,0.4-1.7,0c-0.6-0.5-0.5-1.3-0.1-1.6C-190.3,222.4-189.5,222.6-189.2,223 M-187.8,226
				c0.2-0.2,0.3-0.5,0.1-0.7c-0.1-0.2-0.5-0.2-0.7-0.1c-0.2,0.2-0.3,0.5-0.1,0.7C-188.4,226.2-188.1,226.2-187.8,226 M-187,227.1
				l0.1,0.1c0.1,0.1,0.3,0.3,0.6,0.1c0.2-0.1,0.1-0.4,0.1-0.5c-0.1-0.1-0.1-0.1-0.2-0.1L-187,227.1z M-187.1,227.2l-0.4,0.3
				c-0.3,0.1-0.2,0.3-0.1,0.4c0.1,0.1,0.4,0.3,0.6,0.1C-186.8,227.8-186.9,227.6-187.1,227.2L-187.1,227.2z M-187,226.5
				c0.3-0.2,0.3-0.2,0.1-0.4l0.1-0.1l0.7,1c0.2,0.4,0.3,0.7,0,0.9c-0.2,0.1-0.5,0-0.7-0.1l0,0c0.1,0.3,0.1,0.6-0.1,0.8
				c-0.4,0.3-0.8-0.1-1-0.5l-0.6-0.9l0.1-0.1c0.1,0.2,0.2,0.2,0.5,0.1L-187,226.5z M-186,229.5l0.2,0.5l0.5-0.5l0,0H-186z
				 M-186.4,230.3L-186.4,230.3c0.1,0.2,0.2,0.2,0.4,0l0.2-0.2l-0.3-0.6c-0.1,0-0.2,0-0.4,0.1c-0.1,0-0.1,0.1-0.1,0.2l0.1,0.1
				l-0.1,0.1l-0.4-0.8l0.1-0.1c0.1,0.1,0.1,0.2,0.5,0.2l1.9-0.1l0.1,0.1l-1.3,1.4c-0.2,0.2-0.1,0.3-0.1,0.5l-0.1,0.1L-186.4,230.3
				L-186.4,230.3z M-183.8,231.9l0.1,0.1c0.1,0.1,0.1,0.3,0.1,0.4s-0.1,0.1-0.3,0.2l0.1,0.1c0.1-0.1,0.4-0.2,0.6-0.3v-0.1
				c-0.1,0-0.1-0.1-0.1-0.1l-0.5-1.4c-0.1-0.1-0.1-0.1,0-0.2v-0.1c-0.1,0.1-0.4,0.1-0.7,0.2l0.1,0.1c0.2,0,0.3,0,0.4,0
				s0.1,0.1,0.2,0.4l0.1,0.1l-1.3,0.5c-0.4,0.1-0.4,0.1-0.6-0.1l-0.1,0.1l0.4,1.1l0.1-0.1c-0.1-0.3-0.1-0.4,0.2-0.4L-183.8,231.9z
				 M-184.2,233.9l0.1,0.5l0.6-0.4l0,0L-184.2,233.9z M-184.7,234.7L-184.7,234.7c0.1,0.2,0.1,0.2,0.3,0.1l0.2-0.1l-0.1-0.7
				c-0.1,0-0.2,0-0.4,0s-0.1,0-0.1,0.1v0.1h-0.1l-0.2-0.8h0.1c0.1,0.2,0.1,0.3,0.4,0.3l1.8,0.3l0.1,0.1l-1.6,1.2
				c-0.2,0.1-0.2,0.3-0.1,0.4h-0.1l-0.3-1H-184.7L-184.7,234.7z M-184.5,236.8c0.7,0.1,1.6,0.4,1.8,0.4c0.3,0.1,0.4,0.1,0.4,0.4h0.1
				l-0.1-0.9h-0.1v0.1c0,0.1-0.1,0.2-0.2,0.1c-0.1,0-1-0.1-1.2-0.2l1-0.7c0.1-0.1,0.2-0.1,0.2,0v0.1h0.1l-0.1-1.1h-0.1
				c0,0.2,0,0.3-0.2,0.4l-1.6,1L-184.5,236.8z M-183.4,238.5v0.5l0.7-0.3l0,0L-183.4,238.5z M-184.1,239.1L-184.1,239.1
				c0,0.2,0.1,0.2,0.3,0.1l0.3-0.1l-0.1-0.7c-0.1,0-0.2-0.1-0.4-0.1c-0.1,0-0.1,0-0.2,0.1v0.1h-0.1l-0.1-0.9h0.1
				c0.1,0.2,0.1,0.3,0.4,0.4l1.7,0.6l0.1,0.1l-1.7,0.8c-0.2,0.1-0.3,0.2-0.3,0.4h-0.1v-1L-184.1,239.1L-184.1,239.1z M-183,241.6
				c0.3,0,0.5-0.2,0.5-0.5c0-0.3-0.2-0.5-0.5-0.5s-0.5,0.2-0.5,0.5C-183.5,241.4-183.4,241.6-183,241.6 M-184.5,244.1
				c0.1,0.1,0.4,0.1,0.6,0.2v-0.1c-0.2-0.1-0.3-0.1-0.4-0.2c0-0.1,0-0.3,0-0.4c0-0.1,0-0.2,0.1-0.3c0.1-0.1,0.1-0.1,0.4-0.1l1,0.1
				c0.4,0.1,0.4,0.1,0.4,0.4h0.1l0.1-1.2h-0.1c-0.1,0.3-0.1,0.3-0.4,0.3l-1.1-0.1c-0.4,0-0.4-0.1-0.4-0.4h-0.1L-184.5,244.1z
				 M-183.2,246.1c0.4,0.1,0.4,0.1,0.3,0.4h0.1l0.2-1.1h-0.1c-0.1,0.3-0.1,0.3-0.4,0.2l-1-0.2c-0.4-0.1-0.4-0.1-0.3-0.4h-0.1
				l-0.2,1.1h0.1c0.1-0.3,0.1-0.3,0.4-0.2L-183.2,246.1z M-184.1,248.3l-0.1,0.1c-0.1,0.2-0.1,0.4,0.2,0.5c0.2,0.1,0.4-0.1,0.4-0.3
				c0.1-0.1,0.1-0.2-0.1-0.2L-184.1,248.3z M-184.4,248.3l-0.5-0.1c-0.3-0.1-0.4,0-0.4,0.1c-0.1,0.2,0,0.4,0.3,0.5
				c0.3,0.1,0.5-0.1,0.6-0.4L-184.4,248.3z M-183.6,248c0.3,0.1,0.4,0.1,0.4-0.1l0.1,0.1l-0.4,1.2c-0.1,0.4-0.4,0.7-0.7,0.5
				c-0.3-0.1-0.3-0.4-0.3-0.6l0,0c-0.1,0.3-0.4,0.5-0.7,0.4c-0.4-0.1-0.4-0.7-0.3-1.1l0.4-1l0.1,0.1c-0.1,0.3-0.1,0.3,0.3,0.4
				L-183.6,248z M-185.8,250.6c-0.3-0.1-0.3-0.2-0.2-0.5l-0.1-0.1l-0.8,1.7c0.1,0.1,0.4,0.3,0.4,0.4l0.1-0.1
				c-0.1-0.1-0.2-0.2-0.2-0.3c0-0.1,0-0.2,0.1-0.4s0.1-0.2,0.2-0.3c0.1-0.1,0.1,0,0.4,0.1l0.4,0.2l-0.1,0.3
				c-0.1,0.2-0.1,0.2-0.4,0.1l-0.1,0.1l0.7,0.3l0.1-0.1c-0.2-0.1-0.2-0.1-0.1-0.4l0.1-0.3l0.6,0.3c0.1,0.1,0.1,0.1,0.1,0.1l-0.2,0.2
				c-0.1,0.2-0.2,0.3-0.2,0.3c-0.1,0-0.1,0-0.4,0l-0.1,0.1c0.2,0.1,0.4,0.1,0.5,0.2l0.8-1.6l-0.1-0.1c-0.1,0.2-0.1,0.3-0.5,0.1
				L-185.8,250.6z M-187.1,254L-187.1,254c-0.1,0.1-0.2,0.3-0.2,0.4c0,0.1,0.1,0.3,0.2,0.4c0.2,0.1,0.5,0.1,0.6-0.1
				c0.1-0.1,0.1-0.1,0-0.2L-187.1,254z M-187.6,253.6c-0.3-0.2-0.3-0.2-0.5,0.1l-0.1-0.1l0.7-1l0.1,0.1c-0.1,0.3-0.1,0.3,0.1,0.5
				l0.9,0.6c0.3,0.2,0.3,0.2,0.5,0l0.1,0.1l-0.7,1c-0.1,0.1-0.2,0.3-0.4,0.4s-0.4,0.1-0.5-0.1c-0.2-0.1-0.3-0.4-0.1-0.7
				c-0.1,0-0.4,0-0.6,0s-0.4,0-0.4,0c-0.1,0-0.1,0.1-0.2,0.1l-0.1-0.1l0.1-0.1c0.2-0.4,0.4-0.4,0.7-0.4s0.4,0,0.6,0.1
				c0.1,0,0.1,0,0.2-0.1l0.1-0.1L-187.6,253.6z M-188.8,257.4l-0.1,0.1c-0.1,0.1-0.2,0.2-0.3,0.2s-0.1,0-0.4-0.1l-0.1,0.1
				c0.1,0.1,0.4,0.3,0.5,0.4l0.1-0.1c0-0.1,0-0.1,0.1-0.2l1-1.1c0.1-0.1,0.1-0.1,0.2-0.1l0.1-0.1c-0.1-0.1-0.3-0.3-0.4-0.5l-0.1,0.1
				c0.1,0.1,0.1,0.2,0.1,0.3c0,0.1,0,0.1-0.2,0.4l-0.1,0.1l-1.1-0.9c-0.2-0.2-0.2-0.3-0.1-0.5l-0.1-0.1l-0.8,0.9l0.1,0.1
				c0.2-0.2,0.3-0.2,0.5,0L-188.8,257.4z M-191,258.1l-0.4,0.3l0.6,0.4l0,0L-191,258.1z M-191.9,257.8L-191.9,257.8
				c-0.1,0.1-0.1,0.2,0,0.3l0.3,0.1l0.5-0.4c0-0.1-0.1-0.2-0.1-0.4c-0.1-0.1-0.1-0.1-0.2-0.1l-0.1,0.1l-0.1-0.1l0.7-0.5l0.1,0.1
				c-0.1,0.1-0.2,0.2-0.1,0.5l0.4,1.8l-0.1,0.1l-1.6-1c-0.2-0.1-0.3-0.1-0.5,0l-0.1-0.1l0.9-0.7L-191.9,257.8z M-193.6,261l-0.1,0.1
				c-0.1,0.1-0.3,0.1-0.4,0.1c-0.1,0-0.1-0.1-0.3-0.2l-0.1,0.1c0.1,0.1,0.3,0.4,0.4,0.6h0.1c0-0.1,0-0.1,0.1-0.1l1.3-0.7
				c0.1-0.1,0.1-0.1,0.2,0h0.1c-0.1-0.1-0.1-0.4-0.3-0.6l-0.1,0.1c0.1,0.1,0.1,0.3,0,0.4c0,0.1-0.1,0.1-0.4,0.3l-0.1,0.1l-0.7-1.4
				c-0.1-0.3-0.1-0.4,0.1-0.5l-0.1-0.1l-1.1,0.6l0.1,0.1c0.3-0.1,0.4-0.1,0.5,0.1L-193.6,261z M-196.4,261.8
				c0.1,0.4,0.1,0.4-0.1,0.4l0.1,0.1l1.1-0.4l-0.1-0.1c-0.3,0.1-0.3,0.1-0.4-0.3l-0.4-1c-0.1-0.3-0.1-0.4,0.1-0.4l-0.1-0.1l-1.1,0.4
				l0.1,0.1c0.3-0.1,0.3-0.1,0.4,0.3L-196.4,261.8z M-198,261.3c-0.1-0.2-0.1-0.5-0.2-0.6s-0.3-0.1-0.7-0.1
				c-0.5,0.1-0.8,0.4-0.7,0.8c0.1,0.4,0.4,0.5,0.7,0.6h0.1c0.2,0,0.4,0.1,0.4,0.3c0,0.1-0.1,0.4-0.3,0.4c-0.2,0.1-0.4-0.1-0.6-0.4
				l-0.1,0.1c0.1,0.2,0.1,0.4,0.1,0.5c0.1,0,0.3,0.1,0.5,0c0.5-0.1,0.8-0.4,0.7-0.8c-0.1-0.3-0.4-0.4-0.7-0.5h-0.1
				c-0.2-0.1-0.4-0.1-0.4-0.4c0-0.2,0.1-0.4,0.3-0.4c0.3-0.1,0.6,0.2,0.7,0.5L-198,261.3z M-201.8,262.1c0,0.3,0.2,0.5,0.5,0.5
				s0.5-0.2,0.5-0.5s-0.2-0.5-0.5-0.5C-201.6,261.5-201.8,261.8-201.8,262.1 M-207.2,236.9L-207.2,236.9L-207.2,236.9 M-186.9,234.6
				c0.1-0.1,0.3-0.2,0.5-0.1l0,0c-0.1-0.1-0.4-0.1-0.7,0c-0.1,0.1-0.1,0.4,0,0.7l0,0C-187.1,234.9-187,234.8-186.9,234.6
				 M-189.2,227.6c2.6,3.4,4.2,8,4.2,13c0,2.8-0.5,5.5-1.4,7.9c0,0.1-0.1,0.1-0.1,0.2h-1.8c0.2,0.1,0.3,0.4,0.3,0.5
				c0,0.4-0.2,0.4-0.7,0.4h-0.1h-4.9h-0.1c-0.3,0-0.6,0-0.7-0.1c0,0.1,0-0.1,0-0.1c0-0.2,0.1-0.4,0.3-0.5h-3.3
				c0.2-0.3,0.4-0.7,0.6-1.3c0.7-2.3,0.6-4.8,0.7-6.9c0-1.2,0-1.1,0-2.2c0,0,0.2-0.1,0.1-0.5c-0.1-0.2-0.2-0.4-0.4-0.6
				c0-0.1,0-0.2-0.1-0.3l-0.1-0.1v-0.1c0-0.1-0.1-0.3-0.1-0.5c0-0.7-0.4-2.1-0.4-2.1s0.1,0.1,0.3,0c0.3-0.1,0.3-0.4,0.1-0.7
				c-0.1-0.1-0.3-0.4-0.4-0.6c-0.1-0.2-0.3-0.6-0.3-0.8c-0.1-0.2,0-1.3,0-1.6c0.1-2.4-1-2.5-1.3-2.7c-0.1-0.1-0.2-0.1-0.4-0.2
				c0,0.4-0.7,0.7-1.3,0.7c-0.7,0-1.3-0.3-1.3-0.7c0,0,0-0.1,0.1-0.1l-0.3,0.1c-0.4,0.1-0.5,0.1-0.7,0.1c-0.5,0.2-0.7,0.7-0.7,0.8
				c-0.2,0.5-0.4,1-0.4,1c-0.1,0.1-0.1,0.4-0.1,0.4s-0.1-0.1-0.2-0.2c-0.1-0.1-1-0.9-1.1-1c-0.1-0.1-0.6,0.1-0.6,0.1
				c1,0.8,1.9,1.9,2,2.1c0.1,0.1,0,0.1-0.1,0.1c-1.1-0.5-2.6-0.4-2.6-0.4l-0.4,0.4c1.6-0.1,2.7,0,3,0.4c0.1,0.1,0.2,0.1,0.4,0.1
				c0.1,0,0.2-0.1,0.2-0.3c0-0.1,0-0.1,0.1-0.2c0.7-1.6,2.7-2.3,2.7-2.3l0.8,2.4c0.3,0.1,0.4,0.1,0.6,0.1c-0.1-0.1-0.4-0.4-0.3-0.6
				c0-0.1,0.4,0,0.5-0.1c0.2-0.1,0.4-0.4,0.2-1.1c-0.1-0.1-0.1-0.3-0.1-0.4l0.1-0.1c0,0.1,0.1,0.1,0.1,0.4c0.4,1-0.1,1.2-0.2,1.3
				l-0.1,0.1c-0.1,0.1,0,0.4,0.1,0.4c0.1,0.1,0.1,0.1,0.1,0.1v0.5c-0.6-0.3-2.2-0.3-2.1-0.3c0.1,0,0.3-0.1,0.2-0.2c0,0-0.2,0-0.4,0
				c-0.1,0-0.1-0.1,0-0.1c0,0,0.1,0,0.2-0.1c0.2-0.1,0.4-0.4,0.4-0.4c0.1-0.1-0.1-0.1-0.1-0.1c0-0.1-0.1-0.1-0.2-0.1
				c-0.1,0-0.4,0.2-0.6,0.2c-0.1,0-0.1-0.1-0.1-0.1c0.2-0.3,0.3-0.3,0.4-0.5c0.1-0.2-0.1-0.2-0.1-0.1c-0.1,0.1-0.7,0.6-0.9,0.7
				c-0.1,0.1-0.1,0-0.1-0.1c0.1-0.2,0-0.2,0-0.4c0-0.1-0.2-0.2-0.2-0.1c0,0.1,0,0.3-0.1,0.4c-0.1,0.2-0.1,0.5-0.1,0.6
				c-0.8,0.6-1.5,0.4-1.5,0.4c-0.1-0.2-0.7-0.4-1-0.1c-0.8,0.7-0.4,2.4-0.4,2.5c0.4,1,1,0.4,1,0.4c0.7-0.7,0.9-1.6,0.9-1.6
				c0.4-0.1,0.6-0.2,0.8-0.4c0.4-0.2,0.6-0.4,0.7-0.4c0.1,0,0.4-0.1,0.5-0.1v0.1c-0.4,0.1-1.1,0.8-1.1,0.7c-0.1,0.5-1.3,2.1-0.8,2.4
				c0.2,0.1,0.1,0.4,0,0.7c0,0-0.2,1-0.4,3c0,0-0.1,0.5,0.1,0.7c0.1,0.1,0.8,0.2,1.3,0.1c0.1,0,0.4,0.1,0.5,0.1c0,0-0.1,0.8-0.1,0.8
				c-0.4,0.1-0.4-0.5-0.4-0.4c0,0.1-0.1-0.1-0.1-0.1c-0.2,0.1-0.5,0-1,0c-0.1,0-0.2,0.1-0.2,0.1c0,0.1,0,0.2-0.1,1
				c0,0.3-0.1,0.4-0.1,0.7c0,0.1,0,1.2-0.1,1.6c-0.1,0.9-0.1,3.3-0.1,4c-1.6,0.1-3-0.1-2.4-0.7c0.1-0.1,0.2-0.1,0.3-0.3
				c0.4-0.4,0.4,0,1-0.7c0.4-0.7,0.6-1.6,0.7-2.2c0.1-0.5-0.1-0.7-0.4,0c-0.1,0.1-0.1,0.4-0.4,0.7c-0.1,0.1-0.3,0.4-0.5,0.4
				c-0.4,0.1-0.7-0.7-0.1-1.3c0.2-0.3,0.5-0.2,0.5-0.1c0,0,0.1,0.1,0.2,0c0.1-0.1,0.2-0.4,0.2-0.4c0.7-1,0.9-2.4,0.9-2.7
				c0-0.1,0-0.2,0-0.4c0-0.6-0.4-0.8-0.5-0.4c-0.1,0.3-0.4,0.2-0.3-0.1c0.2-1.4,1-3.3,1.1-3.5c0.1-0.2-0.1-0.2-0.1-0.3
				c-0.1-0.1-0.1-0.1-0.1-0.3c0.1-0.7,0.9-2.2,0.9-2.2c0.1-0.1-0.1-0.2-0.1-0.1c-1.6,2.5-2.3,6.8-2.3,7.1c0,1.1,0.7,0.5,0.7,0.5
				c-0.2,0.8-0.6,1.2-0.8,1.5c-1.4,2.1-0.8,3.1-0.8,3.1c0.2,0.4,0.6,0.8-0.2,1.5c-0.3,0.2-1.2,0.9-0.1,1.6c0.3,0.2,0.5,0.4,0.7,0.4
				h-1.5c0.2,0.1,0.3,0.4,0.3,0.5c0,0.4-0.2,0.4-0.7,0.4h-5.2c-0.3,0-0.6,0-0.7-0.1c-0.1-0.1-0.1-0.2-0.1-0.3c0-0.2,0.1-0.4,0.3-0.5
				h-1.6c0-0.1-0.1-0.1-0.1-0.2c-0.9-2.4-1.4-5.1-1.4-7.9c0-5,1.6-9.6,4.2-13c0,0,0,0,0-0.1v6.8c-0.1-0.1-0.4-0.1-0.5,0.1l0,0
				c0.1,0,0.4,0,0.5,0.1c0.1,0.1,0.1,0.3,0.1,0.4l-0.1,0.1v0.2c0.1,0.2,0.4,0.5,1,0.5c0.4,0,0.9-0.3,0.9-0.9c0,0-0.1-0.1-0.1-0.1
				c-0.1,0.2-0.2,0.4-0.4,0.4s-0.4-0.2-0.4-0.4s0.2-0.4,0.4-0.4s0.4,0.2,0.4,0.4c0.1,0,0.2,0,0.2-0.3c-0.2,0-0.4-0.2-0.4-0.4
				s0.2-0.4,0.4-0.4c0.2,0,0.4,0.2,0.4,0.4s-0.1,0.4-0.4,0.4c0,0.3,0.1,0.3,0.2,0.3c0-0.2,0.2-0.4,0.4-0.4s0.4,0.2,0.4,0.4
				s-0.2,0.4-0.4,0.4s-0.4-0.1-0.4-0.4c-0.1,0-0.1,0.1-0.1,0.1c0,0.5,0.5,0.9,0.9,0.9c0.7,0,1-0.6,1-0.7c-0.1-0.1-0.3-0.2-0.3-0.4
				c0-0.1,0.1-0.2,0.1-0.3c0.1,0,0.4,0,0.4,0.1c0.1,0.1,0.1,0.3,0.1,0.5l0,0c0.1-0.1,0.1-0.4,0-0.7c-0.1-0.1-0.3-0.1-0.4-0.1v-7.4
				c0,0-0.7-5.6,7.8-5.6c8.1-0.1,8,5.6,8,5.6v7.5c-0.1,0-0.3,0-0.4,0.1c-0.1,0.1-0.1,0.4,0,0.7l0,0c0-0.1,0-0.4,0.1-0.5
				c0.1-0.1,0.3-0.1,0.5-0.1c0.1,0.1,0.1,0.2,0.1,0.3c0,0.2-0.1,0.4-0.3,0.4c0,0.1,0.2,0.7,1,0.7c0.4,0,0.9-0.3,0.9-0.9
				c0,0-0.1-0.1-0.1-0.1c-0.1,0.2-0.2,0.4-0.4,0.4s-0.4-0.2-0.4-0.4s0.2-0.4,0.4-0.4s0.4,0.2,0.4,0.4c0.1,0,0.2,0,0.2-0.3
				c-0.2-0.1-0.4-0.2-0.4-0.4c0-0.2,0.2-0.4,0.4-0.4c0.2,0,0.4,0.2,0.4,0.4c0,0.2-0.1,0.4-0.4,0.4c0,0.3,0.1,0.3,0.2,0.3
				c0-0.2,0.2-0.4,0.4-0.4s0.4,0.2,0.4,0.4s-0.2,0.4-0.4,0.4s-0.4-0.1-0.4-0.4c-0.1,0-0.1,0.1-0.1,0.1c0,0.5,0.5,0.9,0.9,0.9
				c0.7,0,1-0.6,1-0.7c-0.1,0-0.1-0.1-0.1-0.1c0-0.1,0-0.4,0.1-0.5c0.1-0.1,0.3-0.2,0.5-0.1l0,0c-0.1-0.1-0.3-0.1-0.4-0.1
				L-189.2,227.6C-189.2,227.5-189.2,227.6-189.2,227.6 M-209.1,235.3c0,0,0.1,0.8,0.8,0.7c0.2,0,0.4-0.1,0.4-0.1
				c-0.1,0.1-0.2,0.1-0.3,0.1c-0.6,0-0.7-0.4-0.8-0.7c0-0.1,0-0.1,0-0.1L-209.1,235.3z M-215.1,234.8
				C-215.1,234.8-215.1,234.8-215.1,234.8c0.1,0,0.3,0.1,0.4,0.2c0.1,0.1,0.1,0.3,0.1,0.5l0,0c0.1-0.1,0.1-0.4,0-0.7
				C-214.6,234.6-214.9,234.6-215.1,234.8 M-215.5,235.1c0.1-0.1,0.1-0.4,0-0.7c-0.1-0.1-0.4-0.1-0.7,0l0,0c0.1,0,0.4,0,0.5,0.1
				C-215.5,234.8-215.5,235-215.5,235.1C-215.5,235.1-215.5,235.1-215.5,235.1 M-215.3,235.6c0.1,0.2,0.4,0.4,0.7,0.5
				c0.2,0,0.4-0.1,0.5-0.1c-0.1,0.1-0.2,0.1-0.4,0.1c-0.4,0-0.6-0.2-0.7-0.5L-215.3,235.6z M-208.1,249.2c0-0.2-0.1-0.4-0.4-0.5
				c-0.1-0.1-0.2-0.1-0.4-0.1l0,0l0,0l0,0h-4.8l0,0l0,0l0,0c-0.1,0.1-0.3,0.1-0.4,0.1c-0.2,0.1-0.4,0.4-0.4,0.5v0.1L-208.1,249.2
				C-208.1,249.3-208.1,249.2-208.1,249.2 M-207,234.5L-207,234.5c0.1,0,0.3,0.1,0.4,0.2c0.1,0.1,0.1,0.3,0.1,0.5l0,0
				c0.1-0.1,0.1-0.4,0-0.7C-206.5,234.2-206.8,234.2-207,234.5 M-206.9,235.4c-0.2,0.1-0.4,0.4-0.4,1.2c0,0.2,0,0.3,0,0.4h-7.9v5.5
				c0,1.5,0.8,2.7,2,3.5c0.6,0.4,1.3,0.5,2,0.5c0.5,0,1-0.1,1.5-0.3c-0.6,0.4-1.3,0.5-2,0.5c-0.5,0-1-0.1-1.5-0.3v2h4.1v-2.5
				c1.2-0.7,2-2,2-3.5v-5.5l0,0c0,0,0-0.1,0-0.4C-207.2,235.8-207.1,235.5-206.9,235.4 M-207.4,234.8c-0.1-0.1-0.4-0.1-0.7,0l0,0
				c0.1,0,0.4,0,0.5,0.1c0.1,0.1,0.2,0.3,0.1,0.5l0,0C-207.1,235.3-207.1,235-207.4,234.8 M-198.5,223.1c0-0.4,0-0.8-0.7-0.8
				c0.2,0-0.5-0.1-0.5,0.3c0,0.2-0.1,0.5-0.5,0.5c0,0-0.8-0.2-0.4-0.4c0.1-0.1,0.5-0.3,0.3-0.8c-0.1-0.1-0.5-0.5-1-0.1
				c-0.1,0.1,0,0.4-0.2,0.4c-0.2,0-0.2-0.2-0.2-0.3c0-0.1-0.1-0.4-0.4-0.4c-0.4,0-0.4,0.3-0.4,0.4c0,0.2,0.1,0.2,0.1,0.4
				c0.1,0.1,0.1,0.4-0.1,0.2c-0.1-0.1-0.8-0.7-1.6-0.3c-0.4,0.2-0.3,0.5-0.1,0.7c0.1,0.1,0.1,0.1,0,0.2c-0.1,0.1-0.4,0.7,0.1,1
				c0.3,0.2,0.8,0.3,1-0.1c0.1-0.1,0.1-0.4,0.1-0.7c0-0.1,0.1-0.4,0.5-0.3c0.2,0,0.2,0.1,0.1,0.3c-0.1,0.1-0.6,0.4-0.7,1.3
				c0,0.2-0.1,0.4-0.4,0.6c0-0.1-0.4,0.2,0,0.7c0.2,0.3,0.3,0.4-0.2,0.8c-0.1,0.1-0.3,0.2,0.1,0.2c0.2,0,1,0,1.6-0.1l-0.1-0.2
				c-0.5,0.1-1.2,0.1-1.2,0.1c0.7-0.5,0.4-1.2,0.4-1.2c-0.2-0.3,0-0.4,0.4-0.5c0.4-0.1,0.5,0,0.9,0.1c0,0-0.6-0.1-0.8,0.1v0.1
				c0,0,0,0.1,0.1,0.1c0.4-0.1,0.7-0.1,0.7-0.1s0.1,0.1,0,0.1c0,0-0.1,0.1-0.1,0c0,0-0.1,0.1-0.1,0l0.1,0.1c0,0.1,0,0.1-0.1,0.1
				c-0.1,0-0.1,0-0.1-0.1c0-0.1,0-0.1,0-0.1c-0.1,0-0.1,0-0.3,0.1c0,0,0,0,0,0.1v0.1c0.1,0.1,0.1,0.2,0.1,0.3c0,0.1,0,0.1,0.1,0.1
				c0,0,0,0.1,0.1,0.1c0.1,0.3,0.4,0.8,1,0.7c0,0,0.1,0,0.1,0.1c0,0,0,0.1-0.1,0.1c0,0-0.1,0-0.1,0.1c-0.1,0.1-0.2,0.1-0.4,0
				c0,0.1,0.1,0.1,0.1,0.1s-0.2,0-0.3,0.1c0,0.1,0,0,0,0.1c0,0.4,0.5,0.7,1.1,0.7s1.1-0.3,1.1-0.7v-0.1l0,0
				c-0.1-0.1-0.1-0.1-0.1-0.1c-0.3-0.4-0.2-0.6-0.2-0.6c0-0.1,0-0.1,0-0.1c0.5,0,1-0.1,1.5-0.1c0.1,0,0.2-0.1,0.1-0.2
				c-0.1-0.1-0.9-0.1-0.9-0.7c0-0.4,0.1-0.8-0.6-1c-0.1,0-0.1-0.1-0.1-0.1c0-0.1-0.1-0.5-0.2-0.7c-0.1-0.1-0.3-0.3-0.3-0.4h0.1
				c0,0,0.3,0.1,0.4,0.4c0.1,0.2,0.3,0.4,0.9,0.4C-198.6,224-198.5,223.4-198.5,223.1 M-188.1,234.8c-0.1,0.1-0.1,0.4,0,0.7l0,0
				c0-0.1,0-0.4,0.1-0.5c0.1-0.1,0.3-0.2,0.5-0.1l0,0C-187.6,234.6-187.8,234.6-188.1,234.8 M-188.2,236c-0.1,0-0.3,0-0.4-0.1
				c0.1,0.1,0.3,0.1,0.5,0.1c0.4,0,0.6-0.2,0.7-0.5l-0.1-0.1C-187.6,235.7-187.8,235.9-188.2,236 M-191.2,240.5h0.2h0.2v-0.4
				c0-0.2-0.1-0.2-0.3-0.2v-0.1h0.9v0.1c-0.1,0-0.4,0-0.4,0.2v0.4h0.2v0.4c0.1,0,0.1,0,0.1,0c0.3,0,0.4-0.1,0.4-0.4
				c0-0.1,0-0.2,0-0.3h0.1c0,0.1,0,0.1,0,0.4v-0.1c0,0.1-0.1,0.3-0.1,0.4c-0.1,0.1-0.2,0.1-0.4,0.1h-0.1v0.5h0.9v-2.2h-1.9
				L-191.2,240.5L-191.2,240.5z M-189.2,238L-189.2,238L-189.2,238L-189.2,238l-0.2-0.1l0,0l0,0l0.1,0.1l0,0
				C-189.3,237.9-189.3,238-189.2,238C-189.2,238-189.2,238-189.2,238 M-189.2,238.2c-0.1,0-0.2,0.1-0.2,0.1
				c0.3-0.1,0.3,0.1,0.3,0.1S-189,238.2-189.2,238.2 M-189.2,238L-189.2,238C-189.2,238-189.2,238-189.2,238
				C-189.2,238-189.2,238-189.2,238c0.1,0.1,0.1,0.1,0.1,0.1l0,0h0.1l0,0l0,0L-189.2,238L-189.2,238 M-189,239.4c-0.1,0-0.1,0-0.1,0
				v0.1C-189,239.6-189,239.5-189,239.4L-189,239.4 M-189.5,242.9c0.1-0.3,0.2-0.6,0.2-0.9v-0.3h-0.9v0.1c0,0.1,0,0.1,0,0.2
				L-189.5,242.9z M-190.9,242.8c-0.1,0-0.1,0-0.2,0v1.1c0.3,0,0.7-0.1,0.9-0.3L-190.9,242.8z M-191.6,241.1v-0.5h-0.5v0.5H-191.6
				v0.6h-0.5l0,0c0,0.4,0.2,0.7,0.5,0.8v-0.8h0.6v0.8c0.3-0.1,0.5-0.4,0.5-0.7v-0.1l0,0h-0.5v-0.6H-191.6z M-190.9,241.1h0.5v-0.5
				h-0.5V241.1z M-193.3,237.7C-193.3,237.7-193.3,237.7-193.3,237.7C-193.3,237.7-193.3,237.7-193.3,237.7
				C-193.2,237.7-193.2,237.7-193.3,237.7L-193.3,237.7h0.1l0,0l0,0H-193.3L-193.3,237.7L-193.3,237.7L-193.3,237.7L-193.3,237.7
				L-193.3,237.7L-193.3,237.7z M-193.1,240v1.5h0.9v-0.4L-193.1,240z M-191.6,240.5h0.2v-1.1h-1.1L-191.6,240.5z M-193.1,241.7v0.3
				c0,1,0.8,1.9,1.9,1.9v-1.1c-0.1,0-0.1,0-0.2,0v0.1v-0.1c0,0.1-0.1,0.3-0.1,0.4c-0.1,0.1-0.2,0.1-0.4,0.1c-0.1,0-0.3,0-0.4-0.1
				c-0.1-0.1-0.1-0.2-0.1-0.4v-0.5c0-0.2-0.1-0.2-0.3-0.2v-0.1h0.7c0-0.1-0.1-0.2-0.1-0.3v-0.1
				C-192.3,241.7-193.1,241.7-193.1,241.7z M-192.1,242.3c-0.1,0-0.2,0.1-0.2,0.2v0.4c0,0.3,0.1,0.4,0.4,0.4c0.3,0,0.4-0.1,0.4-0.4
				c0,0,0,0,0-0.1C-191.9,242.7-192.1,242.5-192.1,242.3 M-193.6,235.4c-0.1,0.2-0.2,0.7-0.8,0.7c-0.1,0-0.2-0.1-0.3-0.1
				c0.1,0.1,0.3,0.1,0.4,0.1c0.8,0.1,0.8-0.7,0.8-0.7L-193.6,235.4C-193.6,235.2-193.6,235.3-193.6,235.4 M-195.3,234.8
				c-0.1,0.1-0.1,0.4,0,0.7l0,0c0-0.1,0-0.4,0.1-0.5c0.1-0.1,0.3-0.1,0.5-0.1l0,0C-194.7,234.6-195.1,234.6-195.3,234.8 M-196,234.6
				c0.1-0.1,0.3-0.2,0.5-0.1l0,0c-0.1-0.1-0.4-0.1-0.7,0c-0.1,0.1-0.1,0.4,0,0.7l0,0C-196.2,234.9-196.2,234.8-196,234.6
				 M-195.6,235.4c0.1,0.1,0.3,0.4,0.3,1.1c0,0.3,0,0.4,0,0.4l0,0v4.7h1.9v-1.1c-0.2,0.1-0.5,0.1-0.5,0.1c-0.1,0.1,0,0.4,0,0.4
				c-0.1,0-0.1-0.2-0.1-0.2c-0.1,0-0.1,0.2-0.1,0.2c-0.1-0.1,0-0.2-0.1-0.2s-0.2,0.1-0.2,0.1c0-0.1,0.1-0.3,0.1-0.3
				c-0.1-0.1-0.1,0-0.1,0c0.1-0.3,0.3-0.1,0.4-0.1c0.1,0,0.1,0.1,0.1,0c0.1-0.1,0.4-0.2,0.4-0.2c-0.1,0-0.2-0.1-0.2-0.1
				c0.1,0,0.2-0.1,0.2-0.1c0.1-0.1,0.2-0.2,0.3-0.3v-0.3c-0.1-0.1-0.3-0.1-0.3-0.1c-0.4,0.4-0.5,0.5-0.6,0.5c0,0-0.1,0-0.1,0.1
				c0,0.1-0.1,0.2-0.1,0.2s0-0.1-0.1-0.1s-0.1,0.1-0.1,0.1c-0.1-0.1,0-0.3,0-0.3c-0.1,0-0.2,0.1-0.2,0.1c-0.1-0.1,0.1-0.2,0.1-0.2
				c-0.1,0-0.2,0-0.2,0c0.1-0.1,0.3-0.1,0.4-0.1c0,0.1,0.1,0.1,0.1,0c0.1-0.1,0.4-0.4,0.5-0.5c-0.1,0-0.2,0-0.4-0.1
				c0,0,0.2,0,0.4-0.1c0,0,0-0.1-0.1-0.1c-0.3-0.2-0.7-0.6-0.7-0.6c-0.2,0-0.3-0.1-0.3-0.1c0.1,0,0.2,0,0.2-0.1s-0.2-0.1-0.2-0.1
				c0.1-0.1,0.2,0,0.2,0l-0.1-0.2c0.1,0,0.2,0.1,0.2,0.1c0-0.1,0-0.2,0-0.2c0.2,0.1,0.1,0.4,0.1,0.4l0.7,0.5
				c0.1,0.1,0.3,0.1,0.4-0.1c0.1-0.1,0-0.2-0.1-0.2h-0.1c0-0.1,0-0.1,0-0.1c0.1,0,0.2,0,0.2,0s0.1-0.1,0-0.1
				c-0.2-0.1-0.3-0.1-0.3-0.1c0-0.1,0-0.1,0-0.1c0.1,0,0.1,0,0.1,0c0.1-0.1,0.1-0.1,0.2-0.1s0.2,0.1,0.3,0.1h0.1
				c0.1-0.1,0.3,0,0.3,0c-0.1,0-0.1,0.1-0.1,0.1c0.1,0.1,0,0.3-0.1,0.3c-0.1,0.1,0.1,0.4,0.1,0.4c-0.1,0.1-0.3,0-0.3,0
				c0,0.3,0.5,0.4,0.5,0.4c-0.1,0.1-0.4,0.1-0.4,0.1c-0.1,0-0.1,0.1,0,0.1c0.1,0.1,0.4,0.1,0.4,0.3h0.4c0-0.1,0-0.1,0-0.2
				c0-0.1-0.1-0.3-0.3-0.5c-0.1-0.1-0.1-0.1-0.1-0.1c0,0-0.2-0.4-0.1-0.5c0.1-0.2,0.4-0.1,0.4-0.1c0.1-0.1,0.4-0.1,0.4,0.1
				c0.1,0.3-0.1,0.3,0,0.7c-0.1,0-0.6-0.4-0.4-0.7c0,0-0.1,0-0.1,0c-0.1,0-0.1,0-0.1,0.1c-0.1,0.1,0,0.3,0.1,0.4
				c0,0.1,0.1,0.1,0.1,0.1c0.1,0.1,0.3,0.4,0.3,0.5c0,0.1,0,0.1,0,0.2h0.4v-2.3h-1.6h-1.9h-0.1c0-0.1,0-0.1,0-0.3
				C-195.1,235.7-195.3,235.4-195.6,235.4 M-195.3,242.4c0,0.2,0,0.4,0.1,0.7h2.2c-0.2-0.3-0.3-0.7-0.3-1v-0.3h-1.9V242.4
				 M-194.5,244.7c0.3,0.4,0.6,0.7,1,1v2.6h4.2v-2c-0.4,0.2-1,0.3-1.5,0.3c-0.7,0-1.4-0.2-2-0.5c0.4,0.1,0.9,0.3,1.4,0.3v-1.7
				L-194.5,244.7 M-188.1,249.2c0-0.3-0.3-0.5-0.8-0.7h-4.8c-0.5,0.1-0.8,0.4-0.8,0.7v0.1L-188.1,249.2
				C-188.1,249.3-188.1,249.2-188.1,249.2 M-187.2,241.7h-1.9v0.3c0,0.2,0,0.4-0.1,0.5c0.1,0,0.3,0,0.4,0c0,0,0.3,0,0.4,0
				c0.1,0,0.1,0,0.2,0c0.1,0,0.4-0.1,0.4-0.2c0,0,0.1-0.1,0-0.1v-0.1c-0.1,0-0.2,0-0.4,0.1c-0.1,0.1-0.4,0.1-0.4,0.1
				c-0.1,0-0.1-0.1,0-0.2c0,0,0-0.1,0.2-0.1c0.1,0,0.1,0.1,0,0.1c-0.1,0-0.1,0.1-0.2,0.1c0,0.1,0,0.1,0,0.1s0.1,0.1,0.4-0.1
				c0.1-0.1,0.3-0.1,0.4-0.1c0.1,0,0.1,0.1,0.1,0.1c0,0.1-0.1,0.1-0.1,0.1c-0.1,0.1-0.3,0.2-0.4,0.2c0.1,0.1,0.1,0.1,0.1,0.1
				s0,0.1,0,0.1c0,0.2,0.3,0.1,0.3,0.1c0,0.1-0.1,0.4-0.1,0.4s-0.1,0.1-0.2,0.1c-0.1,0,0-0.1,0-0.1h0.1l0.1-0.2
				c-0.3,0.1-0.4-0.2-0.4-0.2s-0.1,0.3-0.5,0.5c-0.1,0.1-0.2,0-0.2,0c-0.1-0.1,0.1-0.1,0.1-0.1c0.1-0.1,0.4-0.4,0.4-0.4
				s0.1-0.1-0.3,0.1c-0.3,0.1-0.4,0.1-0.6,0.1l0,0c-0.1,0.3-0.4,0.5-0.7,0.7c-0.3,0.1-0.6,0.3-1,0.3v2.3c0.8,0,1.6-0.3,2.2-0.7l0,0
				c1-0.7,1.7-1.9,1.7-3.3V241.7z M-187.2,236.9h-3.9v2.3h1.1c0,0,0,0,0.1-0.1c-0.1,0-0.1-0.1-0.2-0.1c0,0,0.2,0,0.4-0.1
				c0,0,0-0.1-0.1-0.1c-0.3-0.2-0.7-0.6-0.7-0.6c-0.2,0-0.3-0.1-0.3-0.1c0.1,0,0.2,0,0.2-0.1s-0.2-0.1-0.2-0.1c0.1-0.1,0.2,0,0.2,0
				l-0.1-0.2c0.1,0,0.2,0.1,0.2,0.1c0-0.1,0-0.2,0-0.2c0.2,0.1,0.1,0.4,0.1,0.4l0.5,0.4c0.1,0.1,0.3,0.1,0.4-0.1
				c0,0-0.1-0.1-0.2-0.1c0,0,0.1,0,0.2-0.1c0.1-0.1,0-0.4,0.1-0.4l0.6,0.1c0,0,0,0.3-0.1,0.4c0,0,0,0.2,0.1,0.2h-0.2v0.1
				c0,0.1,0.1,0.4,0.2,0.4c0.2,0.1,0.6,0.4,0.6,0.4c0.1,0,0.2,0,0.3-0.1s0.1-0.1,0-0.2c0-0.1-0.1-0.3-0.3-0.5
				c-0.1-0.1-0.1-0.1-0.1-0.1c0,0-0.2-0.4-0.1-0.5c0.1-0.2,0.4-0.1,0.4-0.1c0.1-0.1,0.4-0.1,0.4,0.1c0.1,0.3-0.1,0.3,0,0.7
				c-0.1,0-0.6-0.4-0.4-0.7c0,0-0.1,0-0.1,0c-0.1,0-0.1,0-0.1,0.1c-0.1,0.1,0,0.3,0.1,0.4c0,0,0.1,0.1,0.1,0.1
				c0.1,0.1,0.3,0.4,0.3,0.5c0,0.1,0,0.3-0.1,0.4c-0.1,0.2-0.3,0.2-0.4,0.2c0,0.1,0,0.1,0.1,0.1c0.1,0.1,0.1,0.1,0.1,0.1
				c-0.1,0.1-0.1,0.3,0,0.4c0.1,0.1,0.2,0,0.2,0c0.1,0.6-0.7,1-0.7,1c0,0.1,0.1,0,0.1,0.1c0.1,0.1-0.1,0.2-0.1,0.2
				c0-0.1,0-0.2-0.1-0.2s-0.1,0.2-0.1,0.2c-0.1-0.1,0.1-0.2,0.1-0.2c-0.1,0-0.2,0.2-0.2,0.2c-0.1-0.1,0.1-0.2,0.1-0.2
				c-0.1,0-0.2,0.1-0.2,0.1c0-0.3,0.2-0.3,0.4-0.3c0.4,0,0.4-0.5,0.4-0.5c-0.2,0.2-0.4,0.1-0.4,0.1c0.1-0.1,0.1-0.1,0.1-0.3
				c-0.1-0.4-0.1-0.4,0-0.5c0-0.1-0.1,0-0.1,0c-0.1,0.2-0.4,0.5-0.4,0.5c0.1,0,0.2,0.1,0.2,0.1c0,0.1-0.1,0.1-0.2,0.2v1.1h1.7V236.9
				z"/>
		</g>
	</g>
</g>
</svg>
