<?xml version="1.0" encoding="utf-8"?>
<!-- Generator: Adobe Illustrator 19.1.0, SVG Export Plug-In . SVG Version: 6.00 Build 0)  -->
<svg version="1.1" id="Laag_1" xmlns="http://www.w3.org/2000/svg" xmlns:xlink="http://www.w3.org/1999/xlink" x="0px" y="0px"
	 viewBox="-260 217.3 118.5 46.7" style="enable-background:new -260 217.3 118.5 46.7;" xml:space="preserve">
<style type="text/css">
	.st0{fill:#222222;}
</style>
<g>
	<path class="st0" d="M-204.3,260.5v-0.2c0.4-0.1,0.4-0.1,0.4-0.6v-1.4c0-0.7-0.3-0.9-0.7-0.9c-0.2,0-0.5,0.1-0.7,0.3v2
		c0,0.4,0.1,0.5,0.4,0.6v0.2h-1.9v-0.2c0.5-0.1,0.5-0.1,0.5-0.6v-4c-0.4-0.1-0.8-0.1-1.6-0.1h-0.4v3.9c0,0.7,0.1,0.7,0.7,0.8v0.3
		h-2.4v-0.3c0.7-0.1,0.7-0.1,0.7-0.8v-3.9h-0.4c-0.7,0-0.9,0.1-1,0.3c-0.1,0.1-0.2,0.4-0.3,0.7h-0.3c0.1-0.5,0.1-1.1,0.1-1.6h0.1
		c0.1,0.1,0.2,0.2,0.4,0.2h3.4c0.7,0,0.8-0.1,0.8-0.1V255c0.2-0.1,0.7-0.1,0.9-0.2v2.5c0.3-0.3,0.7-0.5,1.1-0.5
		c0.7,0,1.1,0.4,1.1,1.3v1.5c0,0.5,0.1,0.6,0.5,0.6v0.2L-204.3,260.5L-204.3,260.5L-204.3,260.5z M-199.1,259.9
		c-0.5,0.7-1.1,0.9-1.4,0.9c-1,0-1.6-0.8-1.6-1.8c0-0.6,0.2-1.1,0.6-1.5c0.4-0.4,0.8-0.6,1.3-0.6c0.7,0,1.3,0.6,1.3,1.3
		c0,0.1-0.1,0.3-0.2,0.3c-0.1,0-1.2,0.1-2,0.1c0,1,0.6,1.4,1.1,1.4c0.3,0,0.6-0.1,0.9-0.4L-199.1,259.9z M-201.1,258.2
		c0.4,0,0.7,0,1.1,0c0.1,0,0.1,0,0.2-0.1c0-0.4-0.2-0.8-0.6-0.8C-200.8,257.1-201.1,257.5-201.1,258.2z M-191.6,255.6
		c-0.4,0-0.6,0.1-0.7,0.5c0,0.2-0.1,0.6-0.1,1.3v3.3h-0.4l-3.4-4.2l0,0v1.9c0,0.7,0,1.1,0.1,1.3c0.1,0.4,0.2,0.5,0.8,0.5v0.3h-2
		v-0.3c0.4,0,0.7-0.1,0.7-0.5c0-0.3,0.1-0.7,0.1-1.3v-1.8c0-0.5,0-0.7-0.1-0.9s-0.4-0.3-0.7-0.3v-0.2h1.4l3.2,3.8l0,0v-1.6
		c0-0.7-0.1-1.1-0.1-1.3c-0.1-0.4-0.2-0.4-0.8-0.5v-0.3h2V255.6z M-188.2,259.9c-0.5,0.7-1.1,0.9-1.4,0.9c-1,0-1.6-0.8-1.6-1.8
		c0-0.6,0.2-1.1,0.6-1.5c0.4-0.4,0.8-0.6,1.3-0.6c0.7,0,1.3,0.6,1.3,1.3c0,0.1-0.1,0.3-0.2,0.3s-1.2,0.1-2,0.1c0,1,0.6,1.4,1.1,1.4
		c0.3,0,0.6-0.1,0.9-0.4L-188.2,259.9z M-190.3,258.2c0.4,0,0.7,0,1.1,0c0.1,0,0.1,0,0.2-0.1c0-0.4-0.2-0.8-0.6-0.8
		C-190.1,257.1-190.3,257.5-190.3,258.2z M-186.1,260.5c-0.1,0.1-0.3,0.1-0.4,0.1c-0.6,0-0.9-0.3-0.9-1v-2.3h-0.5l-0.1-0.1l0.2-0.3
		h0.4v-0.6l0.8-0.6l0.1,0.1v1.2h0.8c0.1,0.1,0.1,0.3-0.1,0.4h-0.8v2.1c0,0.7,0.3,0.7,0.4,0.7c0.1,0,0.3-0.1,0.4-0.1l0.1,0.2
		L-186.1,260.5z M-182.9,260.5v-0.2c0.4-0.1,0.4-0.1,0.4-0.6v-1.4c0-0.7-0.3-0.9-0.7-0.9c-0.2,0-0.5,0.1-0.7,0.3v2
		c0,0.4,0.1,0.5,0.4,0.6v0.2h-1.9v-0.2c0.4-0.1,0.5-0.1,0.5-0.6v-3.9c0-0.5,0-0.5-0.5-0.6V255c0.4-0.1,1-0.1,1.4-0.3v2.6
		c0.3-0.3,0.7-0.5,1.1-0.5c0.7,0,1.1,0.4,1.1,1.3v1.5c0,0.5,0.1,0.5,0.5,0.6v0.2L-182.9,260.5L-182.9,260.5L-182.9,260.5z
		 M-177.6,259.9c-0.5,0.7-1.1,0.9-1.4,0.9c-1,0-1.6-0.8-1.6-1.8c0-0.6,0.2-1.1,0.6-1.5c0.4-0.4,0.8-0.6,1.3-0.6
		c0.7,0,1.3,0.6,1.3,1.3c0,0.1-0.1,0.3-0.2,0.3s-1.2,0.1-2,0.1c0,1,0.6,1.4,1.1,1.4c0.3,0,0.6-0.1,0.9-0.4L-177.6,259.9z
		 M-179.8,258.2c0.4,0,0.7,0,1.1,0c0.1,0,0.1,0,0.2-0.1c0-0.4-0.2-0.8-0.6-0.8C-179.4,257.1-179.8,257.5-179.8,258.2z M-175.8,257.8
		c0.3-0.4,0.6-0.9,1-0.9c0.3,0,0.5,0.2,0.5,0.4s-0.1,0.4-0.4,0.5c-0.1,0.1-0.2,0-0.2,0c-0.1-0.1-0.2-0.1-0.4-0.1
		c-0.1,0-0.4,0.1-0.5,0.5v1.5c0,0.5,0.1,0.5,0.7,0.6v0.2h-2.1v-0.2c0.4-0.1,0.5-0.1,0.5-0.6v-1.8c0-0.4-0.1-0.5-0.4-0.6V257
		c0.4-0.1,0.9-0.1,1.3-0.3L-175.8,257.8L-175.8,257.8z M-174.1,260.5v-0.2c0.5-0.1,0.5-0.1,0.5-0.7v-3.8c0-0.5-0.1-0.5-0.5-0.6V255
		c0.4-0.1,1-0.1,1.4-0.3v4.9c0,0.5,0.1,0.6,0.6,0.7v0.2H-174.1L-174.1,260.5z M-169.1,260.6c-0.2,0-0.4-0.1-0.4-0.1
		s-0.1-0.2-0.2-0.3c-0.3,0.2-0.7,0.5-0.9,0.5c-0.7,0-1-0.5-1-1c0-0.4,0.2-0.7,0.7-0.8c0.5-0.1,1.1-0.4,1.3-0.5v-0.3
		c0-0.5-0.2-0.8-0.6-0.8c-0.1,0-0.2,0.1-0.3,0.1c-0.1,0.1-0.1,0.3-0.2,0.5s-0.1,0.2-0.3,0.2s-0.4-0.1-0.4-0.4c0-0.1,0.1-0.2,0.3-0.4
		c0.3-0.2,0.8-0.5,1.3-0.6c0.3,0,0.5,0.1,0.7,0.2c0.3,0.2,0.4,0.6,0.4,1v1.4c0,0.4,0.1,0.4,0.3,0.4c0.1,0,0.2,0,0.3-0.1l0.1,0.2
		L-169.1,260.6z M-169.8,258.5c-0.1,0.1-0.4,0.2-0.5,0.3c-0.3,0.1-0.4,0.3-0.4,0.6c0,0.4,0.3,0.6,0.5,0.6c0.1,0,0.3-0.1,0.4-0.2
		V258.5L-169.8,258.5z M-165.8,260.5v-0.2c0.4-0.1,0.4-0.1,0.4-0.7v-1.3c0-0.6-0.2-0.8-0.6-0.8c-0.2,0-0.5,0.1-0.7,0.3v1.9
		c0,0.5,0.1,0.5,0.4,0.6v0.2h-1.9v-0.2c0.5-0.1,0.6-0.1,0.6-0.6V258c0-0.5-0.1-0.5-0.4-0.6v-0.2c0.4-0.1,0.9-0.1,1.3-0.3v0.6
		c0.1-0.1,0.3-0.2,0.5-0.4c0.2-0.1,0.4-0.2,0.7-0.2c0.7,0,1,0.4,1,1.3v1.6c0,0.5,0.1,0.5,0.5,0.6v0.2L-165.8,260.5L-165.8,260.5z
		 M-159.4,260.4c-0.2,0-0.9,0.1-1.5,0.3v-0.5l-0.5,0.3c-0.2,0.1-0.4,0.1-0.5,0.1c-0.7,0-1.6-0.6-1.6-1.8c0-1.1,1-2,2.2-2
		c0.1,0,0.2,0,0.4,0.1v-1c0-0.4-0.1-0.5-0.6-0.6v-0.2c0.5-0.1,1.1-0.1,1.5-0.3v4.7c0,0.4,0.1,0.4,0.4,0.5h0.2L-159.4,260.4
		L-159.4,260.4z M-160.9,257.6c-0.1-0.3-0.4-0.4-0.7-0.4c-0.3,0-0.9,0.2-0.9,1.5c0,1,0.6,1.4,1,1.4c0.2,0,0.4-0.1,0.6-0.2
		L-160.9,257.6L-160.9,257.6z M-156.9,257.9c-0.2-0.5-0.4-0.8-0.9-0.8c-0.2,0-0.4,0.2-0.4,0.5s0.2,0.4,0.7,0.7
		c0.7,0.3,1.1,0.6,1.1,1.2c0,0.8-0.7,1.2-1.4,1.2c-0.4,0-0.8-0.1-1-0.3c-0.1-0.1-0.1-0.7-0.1-1h0.2c0.1,0.5,0.5,1,1,1
		c0.3,0,0.5-0.2,0.5-0.5s-0.1-0.4-0.6-0.7s-1-0.5-1-1.2c0-0.6,0.5-1.1,1.3-1.1c0.4,0,0.6,0.1,0.7,0.1c0.1,0.2,0.1,0.7,0.2,0.9
		L-156.9,257.9L-156.9,257.9z"/>
	<g>
		<path class="st0" d="M-201.8,226.9c-0.8,0.1-1.2,0.3-1.3,0.8c-0.1,0.4-0.1,1-0.1,2.1v0.7c0,1.6-0.2,2.7-1,3.6
			c-0.7,0.7-1.5,1-2.5,1c-0.9,0-1.7-0.2-2.3-0.7c-0.8-0.7-1.2-1.7-1.2-3.3v-2.8c0-1.3-0.1-1.3-1.2-1.4v-0.4h3.8v0.4
			c-1,0.1-1.2,0.1-1.2,1.4v2.5c0,2.2,0.8,3.4,2.4,3.4c1.9,0,2.4-1.5,2.4-3.8v-0.7c0-1.1-0.1-1.7-0.1-2.1c-0.1-0.5-0.4-0.7-1.3-0.8
			v-0.4h3.5L-201.8,226.9L-201.8,226.9z M-192.6,227.5c0.4,0,0.8-0.4,0.8-0.8c0-0.5-0.4-0.9-0.8-0.9s-0.8,0.4-0.8,0.9
			C-193.6,227.2-193.1,227.5-192.6,227.5z M-190.8,234.9v-0.4c-0.9-0.1-1-0.1-1-1.1v-4.8c-0.5,0.1-1.8,0.4-2.4,0.5v0.4
			c0.7,0.1,1,0.1,1,1v2.8c0,1-0.1,1-1,1.1v0.4L-190.8,234.9L-190.8,234.9z M-182.6,231c0.1-1,0.6-1.8,1.3-1.8s1,0.7,1,1.5
			c0,0.2-0.1,0.3-0.3,0.3H-182.6z M-179.1,231.4c0.2,0,0.4-0.1,0.4-0.4c0-1.6-1-2.4-2.4-2.4c-0.7,0-1.4,0.2-2,0.9
			c-0.6,0.6-1,1.6-1,2.5c0,1.6,1.1,3,2.9,3c0.5,0,1.6-0.3,2.4-1.4l-0.2-0.3c-0.5,0.4-1,0.7-1.6,0.7c-1,0-2-0.6-2-2.4L-179.1,231.4z
			 M-158.1,231c0.1-1,0.6-1.8,1.3-1.8s1,0.7,1,1.5c0,0.2-0.1,0.3-0.3,0.3H-158.1z M-154.6,231.4c0.3,0,0.4-0.1,0.4-0.4
			c0-1.6-1-2.4-2.4-2.4c-0.7,0-1.4,0.2-2,0.9c-0.6,0.6-1,1.6-1,2.5c0,1.6,1.1,3,2.9,3c0.5,0,1.6-0.3,2.4-1.4l-0.2-0.3
			c-0.5,0.4-1,0.7-1.6,0.7c-1,0-2-0.6-2-2.4L-154.6,231.4z M-175.8,230.1v-1.6c-0.7,0.3-1.5,0.4-2.2,0.5v0.4c0.7,0.1,0.8,0.2,0.8,1
			v3c0,0.9-0.1,1-1,1v0.4h3.6v-0.4c-1-0.1-1.2-0.1-1.2-1v-2.6c0.3-0.7,0.7-1,1-1c0.2,0,0.5,0.1,0.7,0.4c0.1,0.1,0.2,0.1,0.3,0
			c0.3-0.2,0.5-0.6,0.5-1s-0.4-0.7-0.9-0.7C-174.6,228.6-175.3,229.3-175.8,230.1L-175.8,230.1z M-168.6,230.4
			c0-0.3-0.1-1.3-0.3-1.6c-0.3-0.1-0.7-0.2-1.3-0.2c-1.4,0-2.3,0.9-2.3,1.9c0,1.1,1,1.6,1.8,2s1.1,0.7,1.1,1.2s-0.4,0.9-0.9,0.9
			c-0.9,0-1.5-0.9-1.8-1.8l-0.4,0.1c0,0.6,0.1,1.6,0.2,1.8c0.3,0.2,1,0.4,1.7,0.4c1.2,0,2.4-0.7,2.4-2c0-1-0.7-1.6-1.9-2
			c-0.7-0.3-1.1-0.6-1.1-1.1s0.4-0.9,0.8-0.9c0.7,0,1.2,0.6,1.5,1.4L-168.6,230.4z M-166.1,227.5c0.4,0,0.8-0.4,0.8-0.8
			c0-0.5-0.4-0.9-0.8-0.9c-0.4,0-0.8,0.4-0.8,0.9C-167.1,227.2-166.4,227.5-166.1,227.5z M-164.2,234.9v-0.4c-0.9-0.1-1-0.1-1-1.1
			v-4.8c-0.5,0.1-1.7,0.4-2.4,0.5v0.4c0.7,0.1,1,0.1,1,1v2.8c0,1-0.1,1-1,1.1v0.4L-164.2,234.9
			C-164.2,234.8-164.2,234.9-164.2,234.9z M-152,227.5c0.4,0,0.8-0.4,0.8-0.8c0-0.5-0.4-0.9-0.8-0.9c-0.4,0-0.8,0.4-0.8,0.9
			C-152.8,227.2-152.4,227.5-152,227.5z M-150.1,234.9v-0.4c-0.9-0.1-1-0.1-1-1.1v-4.8c-0.5,0.1-1.7,0.4-2.4,0.5v0.4
			c0.7,0.1,1,0.1,1,1v2.8c0,1-0.1,1-1,1.1v0.4L-150.1,234.9C-150.1,234.8-150.1,234.9-150.1,234.9z M-148.9,227.8v1.1h-0.7l-0.3,0.5
			v0.1h1v3.9c0,1.2,0.7,1.7,1.6,1.7c0.2,0,0.3-0.1,0.4-0.1c0.2-0.1,1-0.4,1.3-0.7l-0.1-0.4c-0.2,0.1-0.6,0.2-0.9,0.2
			s-0.8-0.2-0.8-1.3v-3.4h1.6c0.1-0.1,0.1-0.4,0.1-0.7h-1.7v-1.9l-0.2-0.1C-147.9,227.2-148.6,227.5-148.9,227.8z M-163.1,227.8v1.1
			h-0.7l-0.3,0.5v0.1h1v3.9c0,1.2,0.7,1.7,1.6,1.7c0.2,0,0.3-0.1,0.4-0.1c0.2-0.1,1-0.4,1.3-0.7l-0.1-0.4c-0.2,0.1-0.6,0.2-0.9,0.2
			s-0.8-0.2-0.8-1.3v-3.4h1.6c0.1-0.1,0.2-0.4,0.1-0.7h-1.7v-1.9l-0.2-0.1C-162,227.2-162.8,227.5-163.1,227.8z M-186.6,234.9
			c0.7-2.1,1.1-3.4,1.6-4.8c0.2-0.7,0.4-0.7,1-0.8v-0.4h-2.7v0.4c0.1,0,0.4,0.1,0.5,0.1c0.3,0.1,0.4,0.3,0.2,0.7l-1.2,4h-0.1l0,0
			l-1.1-4c-0.1-0.4-0.1-0.6,0.1-0.7c0.1-0.1,0.4-0.1,0.6-0.1v-0.4h-3.3v0.4c0.8,0.1,0.7,0.1,1,0.9l1.6,4.7L-186.6,234.9
			L-186.6,234.9z M-201.8,229.5c0.7,0.1,1,0.2,1,1v2.9c0,0.9-0.1,1-1,1.1v0.4h3.3v-0.4c-0.7-0.1-0.8-0.1-0.8-1v-3.3
			c0.4-0.3,0.9-0.6,1.2-0.6c0.7,0,1.3,0.4,1.3,1.4v2.4c0,1-0.1,1-0.8,1.1v0.4h3.2v-0.4c-0.7-0.1-1-0.1-1-1v-2.7
			c0-1.4-0.7-2.2-1.8-2.2c-0.4,0-0.7,0.1-0.9,0.2l-1.2,0.8v-1c-0.5,0.1-1.8,0.4-2.4,0.5L-201.8,229.5L-201.8,229.5z M-195.4,241.5
			c0.4,0,0.8-0.4,0.8-0.8c0-0.5-0.4-0.9-0.8-0.9c-0.4,0-0.8,0.4-0.8,0.9C-196.3,241.1-195.9,241.5-195.4,241.5z M-193.6,248.8v-0.4
			c-0.9-0.1-1-0.1-1-1.1v-4.8c-0.5,0.1-1.7,0.4-2.4,0.5v0.4c0.7,0.1,1,0.1,1,1v2.8c0,1-0.1,1-1,1.1v0.4L-193.6,248.8L-193.6,248.8z
			 M-201.6,244.9c0.1-1,0.6-1.8,1.3-1.8s1,0.7,1,1.5c0,0.2-0.1,0.3-0.3,0.3H-201.6z M-198.1,245.4c0.2,0,0.4-0.1,0.4-0.4
			c0-1.6-1-2.4-2.4-2.4c-0.7,0-1.4,0.2-2,0.9c-0.6,0.6-1,1.6-1,2.5c0,1.6,1.1,3,2.9,3c0.5,0,1.6-0.3,2.4-1.4l-0.2-0.3
			c-0.5,0.4-1,0.7-1.6,0.7c-1,0-2-0.6-2-2.4L-198.1,245.4z M-184.2,244.9c0.1-1,0.6-1.8,1.3-1.8s1,0.7,1,1.5c0,0.2-0.1,0.3-0.3,0.3
			H-184.2z M-180.8,245.4c0.2,0,0.4-0.1,0.4-0.4c0-1.6-1-2.4-2.4-2.4c-0.7,0-1.4,0.2-2,0.9c-0.6,0.6-1,1.6-1,2.5c0,1.6,1.1,3,2.9,3
			c0.5,0,1.6-0.3,2.4-1.4l-0.2-0.3c-0.5,0.4-1,0.7-1.6,0.7c-1,0-2-0.6-2-2.4L-180.8,245.4z M-204.3,246.4c-0.2,0.7-0.5,1-0.8,1.3
			c-0.4,0.4-0.8,0.5-1.4,0.5c-0.5,0-0.8,0-1.1-0.1s-0.3-0.4-0.3-1.1v-4.8c0-1.2,0.1-1.3,1.3-1.3v-0.4h-4v0.4
			c1.1,0.1,1.3,0.1,1.3,1.3v4.9c0,1.2-0.1,1.3-1.4,1.3v0.4h6.5c0.1-0.4,0.4-1.9,0.5-2.4H-204.3z M-188.8,247.7
			c-0.3,0.2-0.7,0.4-1,0.4c-0.7,0-1.8-0.7-1.8-2.4c0-2.1,1.1-2.5,1.6-2.5c0.6,0,1,0.1,1.3,0.6L-188.8,247.7L-188.8,247.7z
			 M-186.1,248.1l-0.4-0.1c-0.5-0.1-0.7-0.1-0.7-0.9v-7.7c-0.6,0.2-1.7,0.4-2.5,0.5v0.4c1,0.1,1.1,0.1,1.1,1v1.5
			c-0.4-0.1-0.8-0.1-1-0.1c-2.3,0-3.5,1.6-3.5,3.5c0,2,1.4,2.9,2.6,2.9c0.1,0,0.6,0,1-0.2l0.8-0.5v0.8c0.5-0.1,1.8-0.4,2.5-0.5
			L-186.1,248.1L-186.1,248.1z M-179.8,243.4c0.7,0.1,1,0.2,1,1v2.9c0,0.9-0.1,1-1,1.1v0.4h3.3v-0.4c-0.7-0.1-0.8-0.1-0.8-1v-3.3
			c0.4-0.3,0.9-0.6,1.2-0.6c0.7,0,1.3,0.4,1.3,1.4v2.4c0,1-0.1,1-0.8,1.1v0.4h3.1v-0.4c-0.7-0.1-0.9-0.1-0.9-1v-2.7
			c0-1.4-0.7-2.2-1.8-2.2c-0.4,0-0.7,0.1-0.9,0.2l-1.1,0.8v-1c-0.5,0.1-1.7,0.4-2.4,0.5v0.4H-179.8z"/>
		<g>
			<path class="st0" d="M-246.8,229.8c0.2-0.1,0.5-0.1,0.7-0.1v1.6c0,0.2,0,0.2,0.2,0.2v0.1h-1v-0.1c0.2,0,0.2,0,0.2-0.2v-1.2
				c0-0.1,0-0.1-0.1-0.1h-0.1L-246.8,229.8L-246.8,229.8z M-227.1,229.7c0,0.1-0.1,0.3-0.1,0.6h0.1c0.1-0.1,0.1-0.2,0.3-0.2h0.7
				c-0.3,0.5-0.6,1-1,1.6v0.1l0.4-0.1c0.3-0.6,0.5-1.3,0.8-1.9v-0.1L-227.1,229.7L-227.1,229.7L-227.1,229.7z M-225.4,229.7l-0.1,1
				c0.1,0,0.1-0.1,0.3-0.1s0.4,0.1,0.4,0.4c0,0.2-0.1,0.4-0.2,0.4c-0.1,0-0.3-0.1-0.4-0.2h-0.1c-0.1,0.1-0.1,0.1-0.1,0.1
				c0,0.1,0,0.1,0.1,0.1c0.1,0.1,0.2,0.1,0.4,0.1c0.1,0,0.4-0.1,0.5-0.2c0.2-0.1,0.3-0.4,0.3-0.6c0-0.2-0.2-0.5-0.7-0.5
				c-0.1,0-0.2,0.1-0.4,0.1l0.1-0.4h0.8l0.1-0.4L-225.4,229.7L-225.4,229.7L-225.4,229.7z M-245.3,229.7l-0.1,1
				c0.1,0,0.1-0.1,0.3-0.1s0.4,0.1,0.4,0.4c0,0.2-0.1,0.4-0.2,0.4c-0.1,0-0.3-0.1-0.4-0.2h-0.1c-0.1,0.1-0.1,0.1-0.1,0.1
				c0,0.1,0,0.1,0.1,0.1c0.1,0.1,0.2,0.1,0.4,0.1c0.1,0,0.4-0.1,0.5-0.2c0.2-0.1,0.3-0.4,0.3-0.6c0-0.2-0.2-0.5-0.7-0.5
				c-0.1,0-0.2,0.1-0.4,0.1l0.1-0.4h0.8l0.1-0.4L-245.3,229.7L-245.3,229.7L-245.3,229.7z M-215.8,240.7c0,12.7-8.9,23.1-19.8,23.1
				c-10.9,0-19.8-10.4-19.8-23.1s8.9-23.1,19.8-23.1C-224.8,217.7-215.8,228.1-215.8,240.7z M-215.6,240.7c0-12.9-9-23.4-20.1-23.4
				s-20.1,10.5-20.1,23.4s9.1,23.4,20.1,23.4C-224.6,264-215.6,253.7-215.6,240.7z M-236.3,226.7c0.1,0.1,0.2,0.1,0.3,0.1
				c0.1-0.1,0.3-0.2,0.3-0.2c-0.1,0-0.1,0-0.2,0c-0.1,0-0.1,0.1-0.1,0.1C-236.2,226.6-236.2,226.6-236.3,226.7 M-236.2,226.2
				c-0.1,0-0.1,0.1-0.1,0.1c0.1,0,0.1-0.1,0.1,0h0.1c0.1,0,0.1-0.1,0.1,0c0.1,0,0.1-0.1,0-0.1s-0.1,0-0.1,0
				C-236.2,226.3-236.2,226.2-236.2,226.2L-236.2,226.2 M-236.1,225.6L-236.1,225.6L-236.1,225.6L-236.1,225.6z M-235.6,225.3
				c-0.2,0-0.6,0.1-0.6,0.1v0.1h0.1l0,0c0,0,0,0,0,0.1s0.1,0.1,0.1,0.1l0.1-0.1c0-0.1,0-0.1-0.1-0.1c0.1,0,0.1-0.1,0.3-0.1
				C-235.4,225.5-235.4,225.5-235.6,225.3C-235.4,225.3-235.4,225.3-235.6,225.3 M-236.3,225.2c0.4-0.2,0.7-0.4,1.2-0.4
				c0.4,0,0.5,0.3,0.5,0.3c0.1-0.1,0.1-0.6-0.4-0.6C-235.8,224.7-236.2,225.1-236.3,225.2 M-235.8,236.5c-0.9-0.1-1-0.7-1-1
				c0-0.2,0.2-0.1-0.1-0.3c-0.7-0.4-1.3-0.1-1.3-0.1l0.1,0.1c0.6,0,0.8,0.2,0.8,0.2c-0.1,1.6,1,1.5,1,1.5c0.1,0.3,0.4,0.4,0.7,0.4
				c0.1,0,0.2-0.1,0.3-0.1C-235.6,237.1-235.8,236.5-235.8,236.5 M-233.2,236.8l0.4-0.1c0.1-0.2,0.2-0.3,0.3-0.4
				c0.1,0,0.1-0.1,0.1-0.1c0-0.2,0-0.3-0.1-0.5c-0.5-0.7-0.5-1.3-0.6-1.3c0-0.1-0.1,0-0.1,0s0.3,1.3-0.2,1.4c0,0,0.1,0.7-0.6,0.8
				c-0.1,0-0.1,0.1-0.1,0.1c0,0.1-0.1,0.3-0.1,0.4C-233.8,237-233.4,236.9-233.2,236.8C-233.2,236.9-233.2,236.9-233.2,236.8
				 M-233.1,233.7c0.1,0,0.2-0.1,0.5-0.1s0.4,0.2,0.4,0.2l0.1,0.3c0,0,0.3,0.1,0.4,0s0.1-0.2-0.1-0.4c-0.2-0.2-0.3-0.3-0.7-0.3
				C-232.9,233.4-233.2,233.6-233.1,233.7L-233.1,233.7 M-239.9,231.8c-0.4,0.2-0.5,0.8-0.4,1.6c0.1,1,0.6,1.2,1,0.6
				c0.4-0.4,0.5-0.9,0.4-0.9c-0.2,0.1-0.7,0.1-0.8-0.1C-240.1,232.5-239.9,232.1-239.9,231.8L-239.9,231.8 M-233.4,249
				c-0.4-0.4-1-0.8-1.4-1.5c-1-1.7-1.2-3-1.2-6.9c0-0.1,0-0.3,0-0.4l-0.6-0.1c0,0-0.1,4-0.1,4.5c0,0.6,0.1,1.2,0.3,0
				c0.1-0.6-0.1-2.4,0.1-2.4c0.2,0,0.2,6.8,0,6.8c-0.4,0-0.6-0.1-1.3-0.1c-0.2-0.3-0.9-0.3-1-0.2c0,0,0.2,0.1,0.4,0.2l-7.1,2
				l-0.4-0.3l-3,1.3l3.3-0.3l0.1-0.5l7.3-1.9c0.3,0.1,0.7,0.3,0.7,0.3c0.1,0.1,1-0.1,1,0.3c0,0.2-0.3,0.4-0.5,0.4s-0.6,0-0.6,0.1
				s0.7,0.1,0.8,0.1c0.2-0.1,0.9-0.3,1.4-0.8C-235.2,249.5-233.8,249.4-233.4,249C-233.4,249.1-233.4,249.1-233.4,249 M-245.6,251.3
				l-1.9,0.3l2.1-0.6L-245.6,251.3z M-245.1,238.7c0,0,1,0.1,1-0.4c0-0.2-0.1-0.3-0.2-0.3c-0.1,0-0.2,0.1-0.1,0.3
				C-244.4,238.4-244.4,238.5-245.1,238.7 M-245.8,238.2c0,0.1,0.1,0.1,0.1,0.1c0.1,0,0.1-0.1,0.1-0.1l0,0h0.1c0,0,0.1,0,0.1-0.1
				c0,0,0-0.1-0.1-0.1h-0.4c0,0-0.1,0-0.1,0.1c0,0,0,0,0.1,0h0.1C-245.8,238.2-245.8,238.2-245.8,238.2 M-243.1,241.9
				c0.1-0.2,0.6-0.2,0.7,0.1c0,0-0.4,0-0.4,0.1c0,0,0.4,0.1,0.4,0.4c0,0-0.1-0.2-0.4-0.2c0,0,0.1,0.4-0.1,0.5c0,0-0.1-0.4-0.3-0.4
				s-0.2,0.2-0.2,0.3c0,0-0.1-0.1-0.1-0.4c0-0.1-0.1-0.2-0.1-0.2s-0.7-0.1-1.3-0.8c0,0-0.4,0.2-1,0.3c0,0-0.1,0.1,0.1,0.1
				c0.1,0,0.9,0,1.3,0.7c0.1,0.1,0.2,0.2,0.6,0.2c0,0,0,0.4-0.7,0.4c0,0,0.4,0.3,0.7,0.6c0.1,0.1,0.1,0.1,0.3,0
				c0.1-0.1,0.6-0.4,0.8,0.1c0,0-0.3-0.1-0.4,0c0,0,0.3,0.3,0.2,0.6c0,0-0.2-0.3-0.4-0.2c-0.1,0,0.1,0.3-0.1,0.4c0,0,0-0.4-0.3-0.4
				c0,0,0.1,0.2-0.2,0.3c0,0,0.1-0.4-0.1-0.6c-0.1,0-1.5-0.2-1.7-0.8c0,0,0.2-0.1,0.4-0.1c0,0-0.8-0.6-1-1c0,0-0.1-0.1-0.1,0.1
				c0.1,0.1,0.2,0.2,0.1,1c0,0.2,0.1,0.4,0.3,0.6c0,0-0.5,0.2-1-0.4c0,0,0,1.1,0.6,1.2c0.2,0,0.7,0,0.7,0.7c0,0-0.2-0.3-0.4-0.2
				c0,0,0.1,0.2,0.1,0.4c0,0-0.2-0.3-0.4-0.2c0,0,0.1,0.2,0,0.4c0,0-0.2-0.4-0.3-0.4s-0.2,0.2-0.2,0.4c0,0-0.4-0.1-0.1-0.4
				c0.1-0.1,0.1-0.1,0.2-0.2s-1.6-0.7-1.4-1.9c0,0,0.3,0.2,0.4,0.1s0.1-0.5-0.3-0.8c0,0,0.3-0.1,0.4-0.1c0.1,0,0.1-0.1,0.1-0.3
				c-0.1,0-0.5,0-0.7-0.2c-0.1-0.1-0.2-0.4-0.1-0.7c0.1-0.3,0.4-0.7,0.6-1c0.1-0.1,0.1-0.2,0.2-0.3c0.1-0.2,0.3-0.6,0.2-0.8
				c-0.1-0.1-0.1-0.1-0.3-0.1c-0.1,0-0.1,0-0.1,0c0.1,0.3-0.1,0.6-0.4,0.8c-0.4,0.3-0.4,0.7-0.4,0.7s-0.1-0.7-0.1-1.3
				c0.1-0.4,0.4-0.8,0.7-0.4c0,0,0.1,0,0.2,0c0.3,0,0.4,0.1,0.5,0.3c0.2,0.4-0.1,1-0.2,1.1s-0.1,0.1-0.2,0.3c-0.2,0.3-0.5,0.7-0.6,1
				c0.1,0.1,0.1,0.2,0.2,0.3c0.2,0.1,0.5,0.1,0.6,0.1c0,0,0.7-0.6,1.2-0.7c0.2-0.1,0.2-0.3,0.1-0.2c-0.1,0-0.7,0.1-1-0.2
				c0,0,0.7-0.2,0.7-0.6c0,0-0.3,0.2-0.7,0.1c0,0,0.6-0.4,0.4-0.8c-0.1-0.1-0.1-0.6,0-0.7c0.1-0.1-0.1-0.2-0.2-0.2
				c0,0,0.3-0.3,0.5,0h0.1c0.1,0,0.3-0.1,0.4-0.1s0.3-0.1,0.4,0.1c0,0,0.1,0.1,0.3,0.1c0.1,0,0.1,0.1,0.1,0.3c0,0.1-0.1,0.1-0.4,0.1
				c-0.1,0-0.3,0.4-0.2,0.4s0.4-0.1,0.6-0.1c0.1,0,0.1,0.1,0.1,0.3c-0.1,0.1-0.1,0-0.3,0s-0.3,0.2-0.1,0.4c0.1,0.1,0.7,0.3,1-0.5
				c0,0,0.1,0.1,0.1,0.6l1.1-0.9c0,0-0.1-0.6,0.4-0.8c0,0-0.1,0.2-0.1,0.4c0,0,0.3-0.2,0.4-0.2l-0.3,0.4c0,0,0.4-0.1,0.5,0
				c0,0-0.4,0.2-0.4,0.3s0.3,0.1,0.4,0.1c0,0-0.1,0.3-0.6,0.2c0,0-0.4,0.7-1.1,1.1c-0.1,0.1,0,0.4,0.4,0.2c0.1-0.1,0.3-0.1,0.3-0.2
				c0,0,0.4,0.7-0.8,0.8c0,0,0.7,0.7,0.8,0.9C-243.1,242.1-243.1,241.9-243.1,241.9 M-223.4,245.3c0,0.1,0,0.1-0.1,0.1
				s-0.1,0-0.1,0.1c-0.1,0.1-0.1,0.1,0,0.1C-223.4,245.6-223.3,245.4-223.4,245.3c0.1-0.1,0.2-0.1,0.3-0.1s0-0.1,0-0.1h-0.1
				c0-0.1,0-0.2-0.1-0.2c0.1,0,0.4,0,0.6-0.1c0-0.1,0.1-0.1,0.1-0.1l-0.1-0.1c-0.1-0.1-0.4-0.1-0.5,0c-0.3,0.1-0.4,0-0.4-0.1v-0.3
				c0.1,0.1,0.2,0,0.2,0c0.1-0.1,0.1-0.1,0-0.1c-0.2-0.1-0.3,0.1-0.3,0.1c-0.1,0.1-0.1,0.2,0,0.2c0.1,0.1,0.4,0.1,0.6,0.1
				c0.1-0.1,0.4,0,0.4,0v0.1l-0.1,0.1c-0.1,0.1-0.4,0.1-0.7,0.1c-0.2-0.1-0.4,0.1-0.5,0.1c-0.1,0.1-0.2,0.1-0.3,0.1
				c-0.1-0.1,0.1-0.4,0.1-0.4c0.1-0.1,0-0.1-0.1-0.1c-0.3,0.1-0.3-0.1-0.3-0.1c-0.1-0.1-0.1,0-0.1,0c-0.1,0.1,0.1,0.4-0.1,0.4
				c-0.4,0.1-0.6-0.3-0.6-0.3h-0.1c0.1,0.2,0.2,0.3,0.3,0.4c0.1,0.1,0.1,0.1,0.1,0.1l0.1,0.1l-0.1,0.2c0,0.1-0.3,0.3-0.3,0.3
				c-0.1,0-0.3,0.1-0.2,0.1c0.1,0.1,0.4,0,0.4,0c0-0.1,0.4-0.4,0.5-0.4c0,0,0.4-0.1,0.6-0.1c0.1-0.1,0.1,0,0.1,0
				c-0.1,0.1-0.2,0.4-0.2,0.4c-0.1,0-0.3,0.1-0.2,0.1c0.1,0.1,0.3-0.1,0.3-0.1c0-0.1,0.1-0.2,0.1-0.2l0.2-0.4l0.1-0.1
				c0,0,0.1,0.1,0.1,0.2C-223.2,245.2-223.4,245.3-223.4,245.3 M-223.2,237.9l0.1-0.3l-0.4,0.1v-0.3l-0.2,0.2l-0.2-0.1v0.3
				L-223.2,237.9z M-228.1,238.1c-0.4-0.1-0.4-0.1-0.3-0.2s0-0.1-0.1-0.1s-0.1,0-0.1,0.1C-228.4,238.2-228.1,238.1-228.1,238.1
				 M-228.8,237.3h-0.1v0.4h0.1V237.3z M-226.6,237.3h-0.1v0.4h0.1V237.3z M-229.1,238.7h-0.1v0.4h0.1V238.7z M-229.3,240.7h-0.1
				v0.4h0.1V240.7z M-228.1,241.2h-0.1v0.4h0.1V241.2z M-232.6,241.6c0-0.1,0-0.3-0.1-0.3s-0.3,0-0.4,0.8c0,0,0.3-0.1,0.4,0
				C-232.6,242.1-232.6,241.8-232.6,241.6 M-232.1,238.2c-0.1,0-0.3,0.1-0.4,0.4c-0.1,0.3-0.1,0.5-0.1,0.7c0.1,0,0.1,0,0.1,0
				c0.1-0.1,0.1-0.5,0.4-0.7c0,0,0,0,0-0.1C-232.1,238.2-232.1,238.2-232.1,238.2 M-233.1,239.3h0.1c0-0.1,0-0.4-0.1-0.7
				s-0.2-0.4-0.3-0.4s-0.2,0-0.4,0.2C-233.4,238.7-233.2,239-233.1,239.3C-233.2,239.3-233.1,239.3-233.1,239.3 M-230.9,240.7
				c0-0.3,0-0.6,0-0.9c-0.1,0.1-0.1,0.3-0.1,0.4C-231.1,240.4-231.1,240.5-230.9,240.7 M-232.6,243.9
				C-232.4,243.9-232.4,244-232.6,243.9c0.1,0.1,0.1,0.1,0.1,0.2c0.1,0.4,0,1.3,0,1.3c0.3-0.6,0.4-1,0.2-1.4c0-0.1-0.1-0.1-0.1-0.3
				C-232.3,243.6-232.6,243.9-232.6,243.9 M-232.1,240.3c0.1-0.1,0.1-0.4-0.1-0.7v-0.1c0,0,0.1-0.5,0.5-0.8c0.1-0.1,0.2-0.1,0.3,0
				s0.1,0.4,0.1,0.8c0-0.1-0.1-0.2-0.1-0.3c-0.1-0.1-0.2-0.2-0.4-0.1c-0.1,0.1-0.2,0.2-0.1,0.4c0.1,0.3,0.3,0.7,0.5,1.6l0.1,0.3
				c0.1,0.7-0.1,1.3-0.4,2.3c-0.2,0.8-0.6,2.4-0.4,3.3c0.2-1.4,0.6-2.9,0.8-3.3c0.1-0.1,0.1-0.4,0.3-0.7c-0.1,1.6-0.2,3.2-0.7,4.7
				c-0.1,0.6-0.4,1-0.7,1.3c-0.2,0.3-0.4,0.4-0.4,0.4l0,0l0,0c0,0,0,0-0.1,0l0,0c-0.2-0.1-0.8-0.5-1.4-1.2c-0.2-0.2-0.4-0.4-0.5-0.7
				c-0.7-1.3-1-2.2-1-4.4c0-0.4,0-1,0-1.6c0-0.2,0-0.4,0-0.6c0-1.9,0.1-2.8,0.1-2.8s0.4-0.1,1.3-0.4c0.4-0.1,1-0.1,1.6-0.1v0.1
				c0.1,0.1,0.1,0.1,0.2,0.1c-0.1,0.1-0.3,0.2-0.4,0.4c-0.1-0.2-0.2-0.4-0.4-0.4c-0.3-0.1-0.6,0-0.8,0.4c-0.3-0.1-0.6-0.1-0.8,0.1
				c-0.4,0.3-0.4,1.1,0.1,2.2c-0.1,0.1-0.1,0.3-0.1,0.4c-0.4,1.6,0.2,2.4,0.7,3.3c0.3,0.7,0.9,2.7,1,2.8c0.1-0.3-0.1-2.2-0.6-3.1
				c-0.3-0.7-1-1.6-0.6-2.8c0.1-0.4,0.4-1,0.5-1.6c0-0.3-0.4-0.7-0.5-0.3c0,0.1-0.1,0.3-0.1,0.5c-0.2-0.6-0.3-1-0.1-1.2
				c0.1-0.1,0.4-0.1,0.5,0c0.3,0.1,0.4,0.6,0.5,0.8l0,0c0.1,0.2,0.1,0.4,0,0.7c-0.1,0.4-0.3,0.5,0,0.7c0.1,0.1,0.4,0.2,0.4,0.2
				s-0.7,1.6,0.4,1.8c0.2,0.1,0.5-0.1,0.5-0.2c0-0.1-0.1-0.4,0.1-0.8c0.1-0.1,0.3-0.6,0.2-0.8c0-0.1-0.1-0.3-0.1-0.4 M-232.9,244
				c0.1-0.1,0.4-0.5,0.4-0.5c0.4-0.4,0.7-0.5,0.8-1c0.1-0.4,0.1-0.4,0.2-1c0.1-0.5-0.2-1-0.3-0.6s-0.1,1-0.3,1.4
				c-0.1,0.4-0.4,0.6-0.6,0.8c-0.1,0.1-0.1,0.1-0.1,0.1l-0.1-0.1c-0.7-0.3-1-0.4-1-1c-0.1-0.7,0.1-0.8-0.2-1.5
				c-0.1-0.1-0.1,0.1-0.2,0.3c0,0.1,0,0.2,0,0.4c0.1,0.4-0.1,0.7,0.1,1.3c0.2,0.6,0.6,0.7,1.3,1c-0.1,0.1-0.2,0.4-0.2,0.6
				c-0.1,0.4,0.1,1,0.3,1.3C-233.1,245.2-233.1,244.5-232.9,244 M-231.1,238.4L-231.1,238.4v-0.1c0-0.2-0.1-0.4-0.4-0.5
				c-0.1,0.1-0.2,0.1-0.4,0.1c0.1,0.1,0.1,0.3,0.1,0.4C-231.4,238.2-231.1,238.3-231.1,238.4 M-232.9,240.5c0-0.1,0-0.1-0.1-0.1
				c0.1,0,0.1-0.1,0.1-0.1v-0.1h-0.1c-0.1,0.1-0.6,0.2-0.6,0.2l-0.1,0.1c0,0,0,0.1,0.1,0.1c0,0,0.1,0,0.3-0.1v0.1
				c0,0.1,0.1,0.1,0.1,0.1C-233.1,240.7-232.9,240.6-232.9,240.5 M-232.1,240.3c-0.3-0.1-0.5-0.2-0.5-0.2h-0.1v0.1
				c0,0,0.1,0,0.1,0.1c-0.1,0-0.1,0.1-0.1,0.1c0,0.1,0.1,0.1,0.1,0.1c0.1,0,0.1-0.1,0.1-0.1c0-0.1,0-0.1,0-0.1
				C-232.3,240.2-232.2,240.3-232.1,240.3 M-232.6,241.3c-0.1,0-0.3,0-0.4,0.8c0,0,0.3-0.1,0.4,0c0,0,0-0.4,0.1-0.5
				C-232.6,241.5-232.6,241.3-232.6,241.3 M-232.6,240.9C-232.8,240.9-232.6,240.9-232.6,240.9c-0.1,0-0.2,0.1-0.1,0.1
				s0.1-0.1,0.1,0h0.1c0.1,0,0.1,0,0.1,0c0.1,0,0.1-0.1,0-0.1s-0.1,0-0.1,0C-232.6,241-232.6,241-232.6,240.9 M-243.2,248.7
				L-243.2,248.7L-243.2,248.7L-243.2,248.7 M-248.2,248.7L-248.2,248.7C-248.1,248.7-248.1,248.7-248.2,248.7
				C-248.1,248.7-248.2,248.7-248.2,248.7 M-239.6,256.5c0,2.2,1.8,3.9,3.9,3.9s3.9-1.8,3.9-3.9v-5.4h-7.9v5.4 M-222.6,252.4
				c-2.5,4-6.3,6.8-10.6,7.6c-0.7,0.5-1.5,0.7-2.4,0.7s-1.7-0.3-2.4-0.7c-4.3-0.7-8.1-3.6-10.5-7.6h8.9v-1.2v-0.1h0.1h8h0.1v0.1v1.2
				H-222.6 M-233.1,256.9c0-0.1,0.1-0.5-0.3-0.6c-0.4-0.1-0.7,0.4-0.7,0.4c0,0.1-0.1,0.1-0.1,0.1c-0.1,0-0.6,0.1-0.6,0.5
				s0.4,0.4,0.5,0.4c0.2,0,0.4,0,0.6-0.1c0.1,0,0.2,0,0.3-0.1s0.1-0.2,0.1-0.3C-233.2,257.1-233.1,257-233.1,256.9 M-232.6,257.5
				c0.1,0,0.1,0.1,0.1,0.2s-0.1,0.1-0.2,0.1c-0.1,0-0.2,0-0.4,0c0,0.1-0.1,0.2-0.1,0.4c0,0.1-0.1,0.1-0.2,0.1
				c-0.1,0-0.1-0.1-0.1-0.2s0-0.1,0-0.2l0,0c-0.2,0.1-0.4,0.1-0.7,0.1c-0.5-0.1-0.9-0.4-0.9-0.8s0.4-0.7,0.7-0.8l-1.2-1.6l-1.3,1.6
				c0.3,0.1,0.7,0.4,0.7,0.8s-0.3,0.8-0.8,0.8c-0.3,0-0.5-0.1-0.7-0.1l0,0c0,0.1,0,0.1,0,0.2s-0.1,0.2-0.1,0.2
				c-0.1,0-0.2-0.1-0.2-0.1c0-0.1,0-0.2-0.1-0.4c-0.1,0-0.2,0-0.4,0c-0.1,0-0.2-0.1-0.2-0.1c0-0.1,0.1-0.2,0.1-0.2
				c0.1,0,0.1,0,0.2,0l0,0c-0.1-0.1-0.2-0.4-0.3-0.7c-0.1-0.5,0.1-1,0.6-1c0.4-0.1,0.7,0.1,0.9,0.4l1.3-1.7l-0.7-1l0,0l-1.3,1
				l-0.2-0.3l0.7-0.5l-0.2-0.3l-0.7,0.5l-0.5-0.7l0.3-0.2l0.2,0.3l0.3-0.3l-0.2-0.3l0.3-0.2l0.5,0.7l0.3-0.2l-0.4-1l0.3-0.2l1.8,2.2
				l1.8-2.2l0.3,0.2l-0.5,0.7l0.3,0.2l0.5-0.7l0.3,0.2l-0.2,0.3l0.3,0.3l0.2-0.3l0.3,0.2l-0.5,0.7l-0.6-0.4l-0.2,0.3l0.7,0.5
				l-0.2,0.3l-1.3-1l0,0l-0.7,1l1.3,1.7c0.1-0.3,0.5-0.5,0.9-0.4s0.7,0.5,0.6,1c-0.1,0.3-0.1,0.5-0.3,0.7l0,0
				C-232.9,257.5-232.8,257.5-232.6,257.5 M-236.8,257.4c0-0.4-0.6-0.5-0.6-0.5c-0.1,0-0.1-0.1-0.1-0.1s-0.2-0.6-0.7-0.4
				c-0.4,0.1-0.3,0.4-0.3,0.6c0.1,0.2,0.1,0.4,0.2,0.5c0.1,0.1,0.1,0.2,0.1,0.3c0.1,0,0.2,0,0.3,0.1c0.2,0.1,0.4,0.1,0.6,0.1
				C-236.9,257.6-236.6,257.6-236.8,257.4 M-238.1,261.9c-0.1-0.1-0.1-0.1-0.2-0.1c-0.1,0-0.4,0-0.5,0.4c-0.1,0.3,0.1,0.4,0.4,0.5
				c0.2,0,0.2,0,0.2-0.1L-238.1,261.9z M-237.9,261.4c0.1-0.4,0-0.4-0.3-0.4v-0.1l1.2,0.2v0.1c-0.3,0-0.3,0-0.4,0.4l-0.1,1.1
				c-0.1,0.4,0,0.4,0.2,0.4v0.1l-1.2-0.2c-0.4-0.1-0.7-0.4-0.7-0.7c0.1-0.4,0.4-0.6,0.8-0.5c0.1,0,0.1,0,0.2,0l0.2,0.1L-237.9,261.4
				L-237.9,261.4z M-240.8,261.2l-0.1-0.1c-0.1,0-0.2-0.1-0.3-0.1s-0.2,0.1-0.3,0.3c-0.1,0.3,0.1,0.5,0.3,0.6s0.2,0.1,0.2-0.1
				L-240.8,261.2z M-240.6,260.8c0.1-0.3,0.1-0.4-0.1-0.5l0.1-0.1l1.1,0.4l-0.1,0.1c-0.3-0.1-0.3-0.1-0.4,0.2l-0.4,1
				c-0.1,0.4-0.1,0.4,0.1,0.4l-0.1,0.1l-1.1-0.4c-0.2-0.1-0.4-0.1-0.4-0.3c-0.1-0.1-0.1-0.3-0.1-0.5c0.1-0.3,0.4-0.4,0.6-0.4
				c0-0.1-0.1-0.4-0.1-0.6c-0.1-0.2-0.1-0.3-0.1-0.4c-0.1-0.1-0.1-0.1-0.1-0.2l0.1-0.1l0.1,0.1c0.4,0.1,0.4,0.3,0.5,0.5
				c0.1,0.1,0.1,0.4,0.1,0.6c0,0.1,0.1,0.1,0.1,0.2h0.1L-240.6,260.8z M-243.2,259.9l-0.5-0.3l-0.1,0.7l0,0L-243.2,259.9z
				 M-243.4,258.9L-243.4,258.9c-0.2-0.1-0.2-0.1-0.3,0.1l-0.1,0.3l0.6,0.4c0.1,0,0.1-0.1,0.3-0.2c0.1-0.1,0.1-0.1,0-0.2l-0.1-0.1
				l0.1-0.1l0.7,0.4l-0.1,0.1c-0.2-0.1-0.3-0.1-0.5,0.1l-1.5,1.1l-0.1-0.1l0.3-1.9c0.1-0.3-0.1-0.4-0.2-0.4l0.1-0.1l1,0.6
				L-243.4,258.9z M-245.2,258.2c0.2-0.3,0.3-0.3,0.5-0.1l0.1-0.1l-1.4-1.2c-0.1,0.1-0.4,0.3-0.4,0.4l0.1,0.1
				c0.1-0.1,0.2-0.1,0.4-0.1s0.2,0.1,0.4,0.1c0.1,0.1,0.2,0.1,0.2,0.2s0,0.1-0.1,0.3l-0.3,0.4l-0.2-0.2c-0.2-0.1-0.2-0.2-0.1-0.4
				l-0.1-0.1l-0.5,0.7l0.1,0.1c0.2-0.1,0.2-0.1,0.4,0l0.2,0.2l-0.4,0.4c-0.1,0.1-0.1,0.1-0.1,0l-0.1-0.1c-0.1-0.1-0.2-0.2-0.2-0.3
				c0-0.1,0-0.1,0.1-0.3l-0.1-0.1c-0.1,0.2-0.3,0.4-0.3,0.4l1.3,1.1l0.1-0.1c-0.2-0.2-0.2-0.2,0-0.5L-245.2,258.2z M-247.1,256.8
				c0.1-0.2,0.3-0.4,0.4-0.5c0-0.1-0.1-0.4-0.3-0.6c-0.4-0.4-0.8-0.5-1.1-0.2s-0.2,0.6-0.1,1l0.1,0.1c0.1,0.1,0.1,0.4-0.1,0.4
				c-0.1,0.1-0.3,0.1-0.4,0c-0.1-0.2-0.1-0.4,0-0.7l-0.1-0.1c-0.1,0.2-0.2,0.3-0.3,0.4c0.1,0.1,0.1,0.3,0.3,0.4
				c0.4,0.4,0.8,0.4,1.1,0.1c0.2-0.2,0.1-0.5,0.1-0.8l-0.1-0.1c-0.1-0.2-0.1-0.4,0.1-0.6c0.1-0.1,0.4-0.1,0.5,0.1
				C-246.9,256-247.1,256.4-247.1,256.8L-247.1,256.8z M-249.9,254.9c-0.3,0.2-0.3,0.2-0.5,0h-0.1l0.7,1l0.1-0.1
				c-0.1-0.2-0.1-0.3,0.1-0.5l0.9-0.7c0.3-0.2,0.3-0.2,0.5,0l0.1-0.1l-0.7-1l-0.1,0.1c0.1,0.2,0.1,0.3-0.1,0.5L-249.9,254.9z
				 M-250.1,252.5c0.2-0.1,0.3-0.2,0.1-0.4c-0.2-0.4-0.7-0.5-1.2-0.2s-0.7,0.7-0.4,1.1c0.1,0.1,0.1,0.1,0.1,0.2c0,0,0.1,0,0.1-0.1
				L-250.1,252.5z M-251.8,253.1c-0.2-0.4-0.3-0.7-0.2-1c0.1-0.2,0.2-0.4,0.4-0.6c0.7-0.4,1.3,0,1.7,0.7l0.5,0.9l-0.1,0.1
				c-0.1-0.2-0.1-0.2-0.4-0.1l-1,0.5c-0.4,0.2-0.4,0.2-0.2,0.5l-0.1,0.1L-251.8,253.1z M-252.6,250c-0.3,0.1-0.4,0.1-0.5-0.1
				l-0.1,0.1l0.4,1.1l0.1-0.1c-0.1-0.3-0.1-0.3,0.2-0.4l1.1-0.4c0.3-0.1,0.4-0.1,0.5,0.1l0.1-0.1l-0.4-1.1l-0.2,0.1
				c0.1,0.3,0.1,0.3-0.2,0.4L-252.6,250z M-253.4,249.1l0.1-0.1c-0.1-0.3-0.1-0.4,0.3-0.4l0.7-0.2c0.4-0.1,0.6-0.2,0.7-0.4
				c0.1-0.2,0.1-0.4,0-0.7s-0.2-0.5-0.4-0.6s-0.5-0.1-0.8,0l-0.2,0.1c-0.3,0.1-0.4,0.1-0.6,0.1c-0.1,0-0.2-0.1-0.2-0.2h-0.1l0.3,0.9
				l0.1-0.1c-0.1-0.2,0-0.3,0.1-0.4c0.1-0.1,0.2-0.1,0.6-0.2l0.2-0.1c0.5-0.1,0.9-0.1,1,0.3c0.1,0.4-0.1,0.7-0.7,0.8l-0.6,0.1
				c-0.4,0.2-0.4,0.1-0.6-0.1l-0.1,0.1L-253.4,249.1z M-254.8,243.6l1.5,0.4l-1.3,0.9l0.1,0.8h0.1c0-0.3,0-0.4,0.4-0.4l0.7-0.1
				c0.3,0,0.4,0,0.5,0s0.2,0.1,0.2,0.3h0.1l-0.1-0.9h-0.1c0,0.2,0,0.4-0.1,0.4s-0.2,0.1-0.6,0.1l-0.7,0.1l0,0l1.5-0.9v-0.1l-1.7-0.7
				l0,0l1.3-0.2c0.3-0.1,0.4,0,0.4,0.3h0.1l-0.1-1.2h-0.1c0,0.4,0,0.4-0.3,0.4l-1.2,0.2c-0.3,0.1-0.4,0-0.4-0.3h-0.1L-254.8,243.6z
				 M-253.8,240.7c-0.3,0-0.5,0.2-0.5,0.5s0.2,0.5,0.5,0.5s0.5-0.2,0.5-0.5C-253.3,241-253.6,240.7-253.8,240.7 M-253.4,239.3
				l0.1-0.5l-0.7,0.1l0,0L-253.4,239.3z M-252.8,238.7L-252.8,238.7c0-0.2,0-0.2-0.2-0.1l-0.3,0.1l-0.1,0.7c0.1,0,0.2,0.1,0.4,0.1
				c0.1,0.1,0.1,0,0.2-0.1v-0.1h0.1l-0.1,0.9h-0.1c0-0.2,0-0.3-0.3-0.4l-1.6-0.8v-0.1l1.9-0.6c0.3-0.1,0.3-0.2,0.3-0.4h0.1l-0.1,1.1
				L-252.8,238.7z M-253.6,235.1c-0.2,0-0.4,0-0.6-0.1c-0.1,0.1-0.1,0.3-0.2,0.7c-0.1,0.7,0.2,1.4,0.9,1.6c0.5,0.1,1.2-0.2,1.3-1
				c0.1-0.3,0-0.6,0-0.7c-0.1-0.1-0.4-0.2-0.6-0.3v0.1c0.3,0.2,0.5,0.4,0.4,0.8c-0.1,0.4-0.5,0.7-1.1,0.6c-0.5-0.1-0.8-0.4-0.7-0.9
				c0.1-0.3,0.2-0.5,0.7-0.5L-253.6,235.1z M-252.6,234l0.1-0.5l-0.7,0.1l0,0L-252.6,234z M-251.8,233.6L-251.8,233.6
				c0-0.2,0-0.2-0.2-0.2h-0.3l-0.2,0.7c0.1,0,0.1,0.1,0.3,0.2c0.1,0.1,0.1,0.1,0.2-0.1l0.1-0.1l0.1,0.1l-0.2,0.8l-0.1-0.1
				c0-0.2,0.1-0.3-0.2-0.5l-1.4-1.2V233l1.9-0.1c0.3,0,0.3-0.1,0.4-0.3h0.1l-0.3,1L-251.8,233.6z M-251.3,231.3
				c0.2,0.1,0.4,0.1,0.4-0.1c0.2-0.4,0-0.9-0.5-1.1c-0.6-0.2-1-0.1-1.1,0.4c-0.1,0.1-0.1,0.2-0.1,0.2l0.1,0.1L-251.3,231.3z
				 M-252.8,230.4c0.1-0.4,0.4-0.7,0.7-0.8c0.2-0.1,0.5-0.1,0.7,0c0.7,0.4,0.8,1,0.4,1.8l-0.4,1l-0.1-0.1c0.1-0.3,0.1-0.3-0.2-0.4
				l-1-0.4c-0.3-0.1-0.4-0.1-0.5,0.1l-0.1-0.1L-252.8,230.4z M-250.2,229.2c0.3,0.1,0.3,0.2,0.1,0.5l0.1,0.1l1-1.6
				c-0.1-0.1-0.4-0.3-0.4-0.4l-0.1,0.1c0.1,0.1,0.1,0.2,0.2,0.3c0,0.1,0,0.2-0.1,0.4c-0.1,0.1-0.1,0.2-0.2,0.3
				c-0.1,0.1-0.1,0-0.3-0.1l-0.4-0.2l0.1-0.3c0.1-0.2,0.1-0.2,0.4-0.1l0.1-0.1l-0.6-0.4l-0.1,0.1c0.2,0.1,0.2,0.1,0.1,0.4l-0.2,0.2
				l-0.5-0.4c-0.1-0.1-0.1-0.1,0-0.1l0.1-0.1c0.1-0.2,0.2-0.3,0.3-0.3s0.1,0,0.4,0.1l0.1-0.1c-0.2-0.1-0.4-0.2-0.5-0.3l-0.9,1.5
				l0.1,0.1c0.1-0.2,0.2-0.2,0.5-0.1L-250.2,229.2z M-250.2,229.2c0.3,0.1,0.3,0.2,0.1,0.5l0.1,0.1l1-1.6c-0.1-0.1-0.4-0.3-0.4-0.4
				l-0.1,0.1c0.1,0.1,0.1,0.2,0.2,0.3c0,0.1,0,0.2-0.1,0.4c-0.1,0.1-0.1,0.2-0.2,0.3c-0.1,0.1-0.1,0-0.3-0.1l-0.4-0.2l0.1-0.3
				c0.1-0.2,0.1-0.2,0.4-0.1l0.1-0.1l-0.6-0.4l-0.1,0.1c0.2,0.1,0.2,0.1,0.1,0.4l-0.2,0.2l-0.5-0.4c-0.1-0.1-0.1-0.1,0-0.1l0.1-0.1
				c0.1-0.2,0.2-0.3,0.3-0.3s0.1,0,0.4,0.1l0.1-0.1c-0.2-0.1-0.4-0.2-0.5-0.3l-0.9,1.5l0.1,0.1c0.1-0.2,0.2-0.2,0.5-0.1
				L-250.2,229.2z M-249.1,224.6l0.7,1.4l-1.6-0.4l-0.5,0.6l0.1,0.1c0.2-0.2,0.2-0.3,0.5,0l0.5,0.5c0.2,0.2,0.3,0.3,0.4,0.4
				s0.1,0.2-0.1,0.4l0.1,0.1l0.6-0.7l-0.1-0.1c-0.1,0.1-0.2,0.2-0.4,0.1c-0.1-0.1-0.1-0.1-0.4-0.4l-0.5-0.5l0,0l1.7,0.5l0.1-0.1
				l-0.8-1.8l0,0l1,0.7c0.2,0.2,0.2,0.2,0.1,0.5l0.1,0.1l0.7-0.9l-0.1-0.1c-0.2,0.2-0.2,0.2-0.5,0.1l-0.9-0.7
				c-0.2-0.2-0.2-0.2-0.1-0.5l-0.1-0.1L-249.1,224.6z M-246.8,223.2c-0.2-0.3-0.2-0.3,0-0.5l-0.1-0.1l-0.9,0.8l0.1,0.1
				c0.2-0.2,0.3-0.2,0.5,0.1l0.7,0.8c0.2,0.3,0.2,0.3,0,0.5l0.1,0.1l0.9-0.8l-0.1-0.1c-0.2,0.2-0.3,0.2-0.5-0.1L-246.8,223.2z
				 M-245.1,222.7l0.4-0.3l-0.6-0.4l0,0L-245.1,222.7z M-244.1,223L-244.1,223c0.1-0.1,0.1-0.2,0-0.3l-0.3-0.1l-0.5,0.4
				c0,0.1,0.1,0.2,0.1,0.4c0.1,0.1,0.1,0.1,0.2,0.1l0.1-0.1l0.1,0.1l-0.7,0.5l-0.1-0.1c0.1-0.1,0.2-0.2,0.1-0.5l-0.4-1.8l0.1-0.2
				l1.6,1c0.2,0.1,0.3,0.1,0.5,0l0.1,0.1L-244.1,223L-244.1,223z M-242.6,220.8c-0.1-0.3-0.4-0.4-0.7-0.2c-0.2,0.1-0.4,0.4-0.2,0.7
				s0.4,0.4,0.7,0.2C-242.6,221.4-242.3,221.1-242.6,220.8 M-239.6,220.9c0-0.1-0.1-0.4-0.1-0.7h-0.1c0,0.2,0,0.4-0.1,0.4
				c-0.1,0.1-0.1,0.1-0.3,0.2c-0.1,0.1-0.2,0.1-0.3,0.1s-0.1-0.1-0.2-0.3l-0.3-1c-0.1-0.4-0.1-0.4,0.2-0.5l-0.1-0.1l-1.1,0.4
				l0.1,0.1c0.3-0.1,0.3-0.1,0.4,0.3l0.4,1c0.1,0.3,0.1,0.4-0.3,0.4l0.1,0.1L-239.6,220.9z M-239.6,218.7v0.1c0.3,0,0.3,0,0.4,0.4
				l0.1,0.7c0.1,0.4,0.2,0.6,0.4,0.7c0.2,0.1,0.4,0.1,0.7,0.1c0.3-0.1,0.5-0.1,0.7-0.4c0.1-0.3,0.1-0.6,0.1-0.9l-0.1-0.2
				c-0.1-0.3-0.1-0.5-0.1-0.6s0.1-0.2,0.3-0.2v-0.1l-0.9,0.1v0.1c0.2,0,0.3,0,0.4,0.1c0,0.1,0.1,0.3,0.1,0.6v0.2
				c0.1,0.5,0,0.9-0.4,1s-0.6-0.2-0.7-0.7l-0.1-0.7c-0.1-0.4,0-0.4,0.2-0.4v-0.1L-239.6,218.7z M-234.3,218.9c0-0.3,0-0.5-0.1-0.6
				c-0.1,0-0.4-0.1-0.7-0.1c-0.7,0-1.4,0.4-1.4,1.1c0,0.7,0.5,1.1,1.3,1.1c0.3,0,0.6-0.1,0.8-0.1c0-0.1,0-0.1,0-0.3v-0.2
				c0-0.2,0-0.2,0.2-0.3v-0.1h-1.1v0.1c0.4,0,0.4,0.1,0.4,0.3v0.3c0,0.3-0.1,0.3-0.2,0.3c-0.6,0-0.8-0.5-0.8-1
				c0-0.7,0.4-0.9,0.7-0.9s0.6,0.1,0.7,0.6L-234.3,218.9z M-232.8,220.2c-0.1,0.3-0.1,0.4,0.2,0.4c0.5,0.1,0.8-0.1,1-0.7
				c0.1-0.6-0.1-1-0.6-1c-0.1,0-0.2-0.1-0.2,0l-0.1,0.1L-232.8,220.2z M-232.1,218.7c0.4,0.1,0.7,0.2,0.9,0.5
				c0.1,0.2,0.2,0.4,0.1,0.7c-0.1,0.8-0.9,1-1.6,0.8l-1-0.2v-0.1c0.3,0.1,0.4,0,0.4-0.3l0.2-1c0.1-0.4,0.1-0.4-0.2-0.4v-0.1
				L-232.1,218.7z M-230.2,219.2l-0.1,0.1c0.3,0.1,0.3,0.1,0.1,0.5l-0.3,0.7c-0.1,0.3-0.1,0.6,0,0.8s0.3,0.4,0.5,0.4
				c0.3,0.1,0.5,0.1,0.7,0.1c0.2-0.1,0.4-0.3,0.5-0.7l0.1-0.2c0.1-0.4,0.2-0.5,0.3-0.6s0.1-0.1,0.4-0.1l0.1-0.1l-0.9-0.4l-0.1,0.1
				c0.2,0.1,0.3,0.1,0.2,0.3c0,0.1-0.1,0.3-0.2,0.6l-0.1,0.2c-0.2,0.4-0.5,0.7-0.9,0.6c-0.4-0.1-0.4-0.5-0.2-1l0.2-0.6
				c0.1-0.3,0.1-0.4,0.4-0.2l0.1-0.1L-230.2,219.2z M-225.8,222.6c0.2-0.3,0.3-0.4,0.4-0.5c0.1-0.1,0.2-0.1,0.4,0l0.1-0.1l-0.8-0.5
				l-0.1,0.1c0.2,0.1,0.2,0.2,0.2,0.4c-0.1,0.1-0.1,0.2-0.3,0.5l-0.3,0.4l0,0l-0.3-1.9l-0.6-0.4l-0.1,0.1c0.3,0.2,0.3,0.3,0.1,0.6
				l-0.4,0.6c-0.2,0.3-0.3,0.4-0.4,0.5s-0.2,0.1-0.4,0l-0.1,0.1l0.8,0.4l0.1-0.1c-0.2-0.1-0.2-0.2-0.2-0.4c0.1-0.1,0.1-0.2,0.3-0.5
				l0.4-0.5l0,0l0.3,2.2l0.2,0.1L-225.8,222.6z M-224.8,223.5c-0.4,0.4-0.5,1-0.2,1.2c0.2,0.2,0.6,0.2,1-0.2s0.5-0.9,0.2-1.2
				C-223.9,223.1-224.6,223.1-224.8,223.5 M-223.6,223.2c0.5,0.5,0.5,1.2,0.1,1.6c-0.5,0.6-1.2,0.4-1.7,0c-0.6-0.5-0.5-1.3-0.1-1.6
				C-224.8,222.6-223.9,222.8-223.6,223.2 M-222.2,226.2c0.2-0.2,0.3-0.5,0.1-0.7c-0.1-0.2-0.5-0.2-0.7-0.1
				c-0.2,0.2-0.3,0.5-0.1,0.7C-222.8,226.4-222.6,226.4-222.2,226.2 M-221.4,227.3l0.1,0.1c0.1,0.1,0.3,0.3,0.6,0.1
				c0.2-0.1,0.1-0.4,0.1-0.5c-0.1-0.1-0.1-0.1-0.2-0.1L-221.4,227.3z M-221.6,227.4l-0.4,0.3c-0.3,0.1-0.2,0.3-0.1,0.4
				c0.1,0.1,0.4,0.3,0.6,0.1C-221.2,228-221.3,227.8-221.6,227.4L-221.6,227.4z M-221.4,226.7c0.3-0.2,0.3-0.2,0.1-0.4l0.1-0.1
				l0.7,1c0.2,0.4,0.3,0.7,0,0.9c-0.2,0.1-0.5,0-0.7-0.1l0,0c0.1,0.3,0.1,0.6-0.1,0.8c-0.4,0.3-0.8-0.1-1-0.5l-0.6-0.9l0.1-0.1
				c0.1,0.2,0.2,0.2,0.5,0.1L-221.4,226.7z M-220.4,229.7l0.2,0.5l0.5-0.5l0,0H-220.4z M-220.8,230.5L-220.8,230.5
				c0.1,0.2,0.2,0.2,0.4,0l0.2-0.2l-0.3-0.6c-0.1,0-0.2,0-0.4,0.1c-0.1,0-0.1,0.1-0.1,0.2l0.1,0.1l-0.1,0.1l-0.4-0.8l0.1-0.1
				c0.1,0.1,0.1,0.2,0.5,0.2l1.9-0.1l0.1,0.1l-1.3,1.4c-0.2,0.2-0.1,0.3-0.1,0.5l-0.1,0.1L-220.8,230.5L-220.8,230.5z M-218.2,232.1
				l0.1,0.1c0.1,0.1,0.1,0.3,0.1,0.4s-0.1,0.1-0.3,0.2l0.1,0.1c0.1-0.1,0.4-0.2,0.6-0.3v-0.1c-0.1,0-0.1-0.1-0.1-0.1l-0.5-1.4
				c-0.1-0.1-0.1-0.1,0-0.2v-0.1c-0.1,0.1-0.4,0.1-0.7,0.2l0.1,0.1c0.2,0,0.3,0,0.4,0s0.1,0.1,0.2,0.4l0.1,0.1l-1.3,0.5
				c-0.4,0.1-0.4,0.1-0.6-0.1l-0.1,0.1l0.4,1.1l0.1-0.1c-0.1-0.3-0.1-0.4,0.2-0.4L-218.2,232.1z M-218.6,234.1l0.1,0.5l0.6-0.4l0,0
				L-218.6,234.1z M-219.1,234.9L-219.1,234.9c0.1,0.2,0.1,0.2,0.3,0.1l0.2-0.1l-0.1-0.7c-0.1,0-0.2,0-0.4,0s-0.1,0-0.1,0.1v0.1
				h-0.1l-0.2-0.8h0.1c0.1,0.2,0.1,0.3,0.4,0.3l1.8,0.3l0.1,0.1l-1.6,1.2c-0.2,0.1-0.2,0.3-0.1,0.4h-0.1l-0.3-1L-219.1,234.9
				L-219.1,234.9z M-218.9,237c0.7,0.1,1.6,0.4,1.8,0.4c0.3,0.1,0.4,0.1,0.4,0.4h0.1l-0.1-0.9h-0.1v0.1c0,0.1-0.1,0.2-0.2,0.1
				c-0.1,0-1-0.1-1.2-0.2l1-0.7c0.1-0.1,0.2-0.1,0.2,0v0.1h0.1l-0.1-1.1h-0.1c0,0.2,0,0.3-0.2,0.4l-1.6,1L-218.9,237z M-217.8,238.7
				v0.5l0.7-0.3l0,0L-217.8,238.7z M-218.6,239.3L-218.6,239.3c0,0.2,0.1,0.2,0.3,0.1l0.3-0.1l-0.1-0.7c-0.1,0-0.2-0.1-0.4-0.1
				c-0.1,0-0.1,0-0.2,0.1v0.1h-0.1l-0.1-0.9h0.1c0.1,0.2,0.1,0.3,0.4,0.4l1.7,0.6l0.1,0.1l-1.7,0.8c-0.2,0.1-0.3,0.2-0.3,0.4h-0.1
				v-1L-218.6,239.3L-218.6,239.3z M-217.4,241.8c0.3,0,0.5-0.2,0.5-0.5s-0.2-0.5-0.5-0.5s-0.5,0.2-0.5,0.5
				C-217.9,241.6-217.8,241.8-217.4,241.8 M-218.9,244.3c0.1,0.1,0.4,0.1,0.6,0.2v-0.1c-0.2-0.1-0.3-0.1-0.4-0.2c0-0.1,0-0.3,0-0.4
				c0-0.1,0-0.2,0.1-0.3s0.1-0.1,0.4-0.1l1,0.1c0.4,0.1,0.4,0.1,0.4,0.4h0.1l0.1-1.2h-0.1c-0.1,0.3-0.1,0.3-0.4,0.3l-1.1-0.1
				c-0.4,0-0.4-0.1-0.4-0.4h-0.1L-218.9,244.3z M-217.6,246.3c0.4,0.1,0.4,0.1,0.3,0.4h0.1l0.2-1.1h-0.1c-0.1,0.3-0.1,0.3-0.4,0.2
				l-1-0.2c-0.4-0.1-0.4-0.1-0.3-0.4h-0.1l-0.2,1.1h0.1c0.1-0.3,0.1-0.3,0.4-0.2L-217.6,246.3z M-218.6,248.5l-0.1,0.1
				c-0.1,0.2-0.1,0.4,0.2,0.5c0.2,0.1,0.4-0.1,0.4-0.3c0.1-0.1,0.1-0.2-0.1-0.2L-218.6,248.5z M-218.8,248.5l-0.5-0.1
				c-0.3-0.1-0.4,0-0.4,0.1c-0.1,0.2,0,0.4,0.3,0.5s0.5-0.1,0.6-0.4L-218.8,248.5z M-218.1,248.2c0.3,0.1,0.4,0.1,0.4-0.1l0.1,0.1
				l-0.4,1.2c-0.1,0.4-0.4,0.7-0.7,0.5c-0.3-0.1-0.3-0.4-0.3-0.6l0,0c-0.1,0.3-0.4,0.5-0.7,0.4c-0.4-0.1-0.4-0.7-0.3-1.1l0.4-1
				l0.1,0.1c-0.1,0.3-0.1,0.3,0.3,0.4L-218.1,248.2z M-220.2,250.8c-0.3-0.1-0.3-0.2-0.2-0.5l-0.1-0.1l-0.8,1.7
				c0.1,0.1,0.4,0.3,0.4,0.4l0.1-0.1c-0.1-0.1-0.2-0.2-0.2-0.3s0-0.2,0.1-0.4s0.1-0.2,0.2-0.3c0.1-0.1,0.1,0,0.4,0.1l0.4,0.2
				l-0.1,0.3c-0.1,0.2-0.1,0.2-0.4,0.1l-0.1,0.1l0.7,0.3l0.1-0.1c-0.2-0.1-0.2-0.1-0.1-0.4l0.1-0.3l0.6,0.3c0.1,0.1,0.1,0.1,0.1,0.1
				l-0.2,0.2c-0.1,0.2-0.2,0.3-0.2,0.3c-0.1,0-0.1,0-0.4,0l-0.1,0.1c0.2,0.1,0.4,0.1,0.5,0.2l0.8-1.6l-0.1-0.1
				c-0.1,0.2-0.1,0.3-0.5,0.1L-220.2,250.8z M-221.6,254.2L-221.6,254.2c-0.1,0.1-0.2,0.3-0.2,0.4c0,0.1,0.1,0.3,0.2,0.4
				c0.2,0.1,0.5,0.1,0.6-0.1c0.1-0.1,0.1-0.1,0-0.2L-221.6,254.2z M-222.1,253.8c-0.3-0.2-0.3-0.2-0.5,0.1l-0.1-0.1l0.7-1l0.1,0.1
				c-0.1,0.3-0.1,0.3,0.1,0.5l0.9,0.6c0.3,0.2,0.3,0.2,0.5,0l0.1,0.1l-0.7,1c-0.1,0.1-0.2,0.3-0.4,0.4s-0.4,0.1-0.5-0.1
				c-0.2-0.1-0.3-0.4-0.1-0.7c-0.1,0-0.4,0-0.6,0s-0.4,0-0.4,0c-0.1,0-0.1,0.1-0.2,0.1l-0.1-0.1l0.1-0.1c0.2-0.4,0.4-0.4,0.7-0.4
				s0.4,0,0.6,0.1c0.1,0,0.1,0,0.2-0.1l0.1-0.1L-222.1,253.8z M-223.2,257.5l-0.1,0.1c-0.1,0.1-0.2,0.2-0.3,0.2s-0.1,0-0.4-0.1
				l-0.1,0.1c0.1,0.1,0.4,0.3,0.5,0.4l0.1-0.1c0-0.1,0-0.1,0.1-0.2l1-1.1c0.1-0.1,0.1-0.1,0.2-0.1l0.1-0.1c-0.1-0.1-0.3-0.3-0.4-0.5
				l-0.1,0.1c0.1,0.1,0.1,0.2,0.1,0.3c0,0.1,0,0.1-0.2,0.4l-0.1,0.1l-1.1-0.9c-0.2-0.2-0.2-0.3-0.1-0.5l-0.1-0.1l-0.8,0.9l0.1,0.1
				c0.2-0.2,0.3-0.2,0.5,0L-223.2,257.5z M-225.4,258.2l-0.4,0.3l0.6,0.4l0,0L-225.4,258.2z M-226.3,257.9L-226.3,257.9
				c-0.1,0.1-0.1,0.2,0,0.3l0.3,0.1l0.5-0.4c0-0.1-0.1-0.2-0.1-0.4c-0.1-0.1-0.1-0.1-0.2-0.1l-0.1,0.1l-0.1-0.1l0.7-0.5l0.1,0.1
				c-0.1,0.1-0.2,0.2-0.1,0.5l0.4,1.8l-0.1,0.1l-1.6-1c-0.2-0.1-0.3-0.1-0.5,0l-0.1-0.1l0.9-0.7L-226.3,257.9z M-228.1,261.1
				l-0.1,0.1c-0.1,0.1-0.3,0.1-0.4,0.1c-0.1,0-0.1-0.1-0.3-0.2l-0.1,0.1c0.1,0.1,0.3,0.4,0.4,0.6h0.1c0-0.1,0-0.1,0.1-0.1l1.3-0.7
				c0.1-0.1,0.1-0.1,0.2,0h0.1c-0.1-0.1-0.1-0.4-0.3-0.6l-0.1,0.1c0.1,0.1,0.1,0.3,0,0.4c0,0.1-0.1,0.1-0.4,0.3l-0.1,0.1l-0.7-1.4
				c-0.1-0.3-0.1-0.4,0.1-0.5l-0.1-0.1l-1.1,0.6l0.1,0.1c0.3-0.1,0.4-0.1,0.5,0.1L-228.1,261.1z M-230.8,261.9
				c0.1,0.4,0.1,0.4-0.1,0.4l0.1,0.1l1.1-0.4l-0.1-0.1c-0.3,0.1-0.3,0.1-0.4-0.3l-0.4-1c-0.1-0.3-0.1-0.4,0.1-0.4l-0.1-0.1l-1.1,0.4
				l0.1,0.1c0.3-0.1,0.3-0.1,0.4,0.3L-230.8,261.9z M-232.4,261.4c-0.1-0.2-0.1-0.5-0.2-0.6s-0.3-0.1-0.7-0.1
				c-0.5,0.1-0.8,0.4-0.7,0.8s0.4,0.5,0.7,0.6h0.1c0.2,0,0.4,0.1,0.4,0.3c0,0.1-0.1,0.4-0.3,0.4c-0.2,0.1-0.4-0.1-0.6-0.4l-0.1,0.1
				c0.1,0.2,0.1,0.4,0.1,0.5c0.1,0,0.3,0.1,0.5,0c0.5-0.1,0.8-0.4,0.7-0.8c-0.1-0.3-0.4-0.4-0.7-0.5h-0.1c-0.2-0.1-0.4-0.1-0.4-0.4
				c0-0.2,0.1-0.4,0.3-0.4c0.3-0.1,0.6,0.2,0.7,0.5H-232.4z M-236.2,262.2c0,0.3,0.2,0.5,0.5,0.5s0.5-0.2,0.5-0.5s-0.2-0.5-0.5-0.5
				C-236.1,261.6-236.2,261.9-236.2,262.2 M-241.6,237.1L-241.6,237.1L-241.6,237.1 M-221.3,234.8c0.1-0.1,0.3-0.2,0.5-0.1l0,0
				c-0.1-0.1-0.4-0.1-0.7,0c-0.1,0.1-0.1,0.4,0,0.7l0,0C-221.6,235.1-221.4,235-221.3,234.8 M-223.6,227.8c2.6,3.4,4.2,8,4.2,13
				c0,2.8-0.5,5.5-1.4,7.9c0,0.1-0.1,0.1-0.1,0.2h-1.8c0.2,0.1,0.3,0.4,0.3,0.5c0,0.4-0.2,0.4-0.7,0.4h-0.1h-4.9h-0.1
				c-0.3,0-0.6,0-0.7-0.1c0,0.1,0-0.1,0-0.1c0-0.2,0.1-0.4,0.3-0.5h-3.3c0.2-0.3,0.4-0.7,0.6-1.3c0.7-2.3,0.6-4.8,0.7-6.9
				c0-1.2,0-1.1,0-2.2c0,0,0.2-0.1,0.1-0.5c-0.1-0.2-0.2-0.4-0.4-0.6c0-0.1,0-0.2-0.1-0.3l-0.1-0.1V237c0-0.1-0.1-0.3-0.1-0.5
				c0-0.7-0.4-2.1-0.4-2.1s0.1,0.1,0.3,0c0.3-0.1,0.3-0.4,0.1-0.7c-0.1-0.1-0.3-0.4-0.4-0.6c-0.1-0.2-0.3-0.6-0.3-0.8
				c-0.1-0.2,0-1.3,0-1.6c0.1-2.4-1-2.5-1.3-2.7c-0.1-0.1-0.2-0.1-0.4-0.2c0,0.4-0.7,0.7-1.3,0.7c-0.7,0-1.3-0.3-1.3-0.7
				c0,0,0-0.1,0.1-0.1l-0.3,0.1c-0.4,0.1-0.5,0.1-0.7,0.1c-0.5,0.2-0.7,0.7-0.7,0.8c-0.2,0.5-0.4,1-0.4,1c-0.1,0.1-0.1,0.4-0.1,0.4
				s-0.1-0.1-0.2-0.2c-0.1-0.1-1-0.9-1.1-1s-0.6,0.1-0.6,0.1c1,0.8,1.9,1.9,2,2.1c0.1,0.1,0,0.1-0.1,0.1c-1.1-0.5-2.6-0.4-2.6-0.4
				l-0.4,0.4c1.6-0.1,2.7,0,3,0.4c0.1,0.1,0.2,0.1,0.4,0.1c0.1,0,0.2-0.1,0.2-0.3c0-0.1,0-0.1,0.1-0.2c0.7-1.6,2.7-2.3,2.7-2.3
				l0.8,2.4c0.3,0.1,0.4,0.1,0.6,0.1c-0.1-0.1-0.4-0.4-0.3-0.6c0-0.1,0.4,0,0.5-0.1c0.2-0.1,0.4-0.4,0.2-1.1
				c-0.1-0.1-0.1-0.3-0.1-0.4l0.1-0.1c0,0.1,0.1,0.1,0.1,0.4c0.4,1-0.1,1.2-0.2,1.3l-0.1,0.1c-0.1,0.1,0,0.4,0.1,0.4
				c0.1,0.1,0.1,0.1,0.1,0.1v0.5c-0.6-0.3-2.2-0.3-2.1-0.3c0.1,0,0.3-0.1,0.2-0.2c0,0-0.2,0-0.4,0c-0.1,0-0.1-0.1,0-0.1
				c0,0,0.1,0,0.2-0.1c0.2-0.1,0.4-0.4,0.4-0.4c0.1-0.1-0.1-0.1-0.1-0.1c0-0.1-0.1-0.1-0.2-0.1c-0.1,0-0.4,0.2-0.6,0.2
				c-0.1,0-0.1-0.1-0.1-0.1c0.2-0.3,0.3-0.3,0.4-0.5c0.1-0.2-0.1-0.2-0.1-0.1c-0.1,0.1-0.7,0.6-0.9,0.7c-0.1,0.1-0.1,0-0.1-0.1
				c0.1-0.2,0-0.2,0-0.4c0-0.1-0.2-0.2-0.2-0.1c0,0.1,0,0.3-0.1,0.4c-0.1,0.2-0.1,0.5-0.1,0.6c-0.8,0.6-1.5,0.4-1.5,0.4
				c-0.1-0.2-0.7-0.4-1-0.1c-0.8,0.7-0.4,2.4-0.4,2.5c0.4,1,1,0.4,1,0.4c0.7-0.7,0.9-1.6,0.9-1.6c0.4-0.1,0.6-0.2,0.8-0.4
				c0.4-0.2,0.6-0.4,0.7-0.4c0.1,0,0.4-0.1,0.5-0.1v0.1c-0.4,0.1-1.1,0.8-1.1,0.7c-0.1,0.5-1.3,2.1-0.8,2.4c0.2,0.1,0.1,0.4,0,0.7
				c0,0-0.2,1-0.4,3c0,0-0.1,0.5,0.1,0.7c0.1,0.1,0.8,0.2,1.3,0.1c0.1,0,0.4,0.1,0.5,0.1l-0.1,0.8c-0.4,0.1-0.4-0.5-0.4-0.4
				s-0.1-0.1-0.1-0.1c-0.2,0.1-0.5,0-1,0c-0.1,0-0.2,0.1-0.2,0.1c0,0.1,0,0.2-0.1,1c0,0.3-0.1,0.4-0.1,0.7c0,0.1,0,1.2-0.1,1.6
				c-0.1,0.9-0.1,3.3-0.1,4c-1.6,0.1-3-0.1-2.4-0.7c0.1-0.1,0.2-0.1,0.3-0.3c0.4-0.4,0.4,0,1-0.7c0.4-0.7,0.6-1.6,0.7-2.2
				c0.1-0.5-0.1-0.7-0.4,0c-0.1,0.1-0.1,0.4-0.4,0.7c-0.1,0.1-0.3,0.4-0.5,0.4c-0.4,0.1-0.7-0.7-0.1-1.3c0.2-0.3,0.5-0.2,0.5-0.1
				c0,0,0.1,0.1,0.2,0c0.1-0.1,0.2-0.4,0.2-0.4c0.7-1,0.9-2.4,0.9-2.7c0-0.1,0-0.2,0-0.4c0-0.6-0.4-0.8-0.5-0.4
				c-0.1,0.3-0.4,0.2-0.3-0.1c0.2-1.4,1-3.3,1.1-3.5s-0.1-0.2-0.1-0.3c-0.1-0.1-0.1-0.1-0.1-0.3c0.1-0.7,0.9-2.2,0.9-2.2
				c0.1-0.1-0.1-0.2-0.1-0.1c-1.6,2.5-2.3,6.8-2.3,7.1c0,1.1,0.7,0.5,0.7,0.5c-0.2,0.8-0.6,1.2-0.8,1.5c-1.4,2.1-0.8,3.1-0.8,3.1
				c0.2,0.4,0.6,0.8-0.2,1.5c-0.3,0.2-1.2,0.9-0.1,1.6c0.3,0.2,0.5,0.4,0.7,0.4h-1.5c0.2,0.1,0.3,0.4,0.3,0.5c0,0.4-0.2,0.4-0.7,0.4
				h-5.2c-0.3,0-0.6,0-0.7-0.1c-0.1-0.1-0.1-0.2-0.1-0.3c0-0.2,0.1-0.4,0.3-0.5h-1.6c0-0.1-0.1-0.1-0.1-0.2
				c-0.9-2.4-1.4-5.1-1.4-7.9c0-5,1.6-9.6,4.2-13c0,0,0,0,0-0.1v6.8c-0.1-0.1-0.4-0.1-0.5,0.1l0,0c0.1,0,0.4,0,0.5,0.1
				s0.1,0.3,0.1,0.4l-0.1,0.1v0.2c0.1,0.2,0.4,0.5,1,0.5c0.4,0,0.9-0.3,0.9-0.9l-0.1-0.1c-0.1,0.2-0.2,0.4-0.4,0.4s-0.4-0.2-0.4-0.4
				s0.2-0.4,0.4-0.4s0.4,0.2,0.4,0.4c0.1,0,0.2,0,0.2-0.3c-0.2,0-0.4-0.2-0.4-0.4s0.2-0.4,0.4-0.4s0.4,0.2,0.4,0.4s-0.1,0.4-0.4,0.4
				c0,0.3,0.1,0.3,0.2,0.3c0-0.2,0.2-0.4,0.4-0.4s0.4,0.2,0.4,0.4s-0.2,0.4-0.4,0.4s-0.4-0.1-0.4-0.4c-0.1,0-0.1,0.1-0.1,0.1
				c0,0.5,0.5,0.9,0.9,0.9c0.7,0,1-0.6,1-0.7c-0.1-0.1-0.3-0.2-0.3-0.4c0-0.1,0.1-0.2,0.1-0.3c0.1,0,0.4,0,0.4,0.1
				c0.1,0.1,0.1,0.3,0.1,0.5l0,0c0.1-0.1,0.1-0.4,0-0.7c-0.1-0.1-0.3-0.1-0.4-0.1v-7.4c0,0-0.7-5.6,7.8-5.6c8.1-0.1,8,5.6,8,5.6v7.5
				c-0.1,0-0.3,0-0.4,0.1c-0.1,0.1-0.1,0.4,0,0.7l0,0c0-0.1,0-0.4,0.1-0.5s0.3-0.1,0.5-0.1c0.1,0.1,0.1,0.2,0.1,0.3
				c0,0.2-0.1,0.4-0.3,0.4c0,0.1,0.2,0.7,1,0.7c0.4,0,0.9-0.3,0.9-0.9l-0.1-0.1c-0.1,0.2-0.2,0.4-0.4,0.4s-0.4-0.2-0.4-0.4
				s0.2-0.4,0.4-0.4s0.4,0.2,0.4,0.4c0.1,0,0.2,0,0.2-0.3c-0.2-0.1-0.4-0.2-0.4-0.4s0.2-0.4,0.4-0.4s0.4,0.2,0.4,0.4
				s-0.1,0.4-0.4,0.4c0,0.3,0.1,0.3,0.2,0.3c0-0.2,0.2-0.4,0.4-0.4s0.4,0.2,0.4,0.4s-0.2,0.4-0.4,0.4s-0.4-0.1-0.4-0.4
				c-0.1,0-0.1,0.1-0.1,0.1c0,0.5,0.5,0.9,0.9,0.9c0.7,0,1-0.6,1-0.7c-0.1,0-0.1-0.1-0.1-0.1c0-0.1,0-0.4,0.1-0.5s0.3-0.2,0.5-0.1
				l0,0c-0.1-0.1-0.3-0.1-0.4-0.1L-223.6,227.8C-223.6,227.7-223.6,227.8-223.6,227.8 M-243.6,235.5c0,0,0.1,0.8,0.8,0.7
				c0.2,0,0.4-0.1,0.4-0.1c-0.1,0.1-0.2,0.1-0.3,0.1C-243.3,236.2-243.4,235.8-243.6,235.5c0.1-0.1,0.1-0.1,0.1-0.1L-243.6,235.5z
				 M-249.6,235L-249.6,235c0.1,0,0.3,0.1,0.4,0.2c0.1,0.1,0.1,0.3,0.1,0.5l0,0c0.1-0.1,0.1-0.4,0-0.7
				C-249.1,234.8-249.3,234.8-249.6,235 M-249.9,235.3c0.1-0.1,0.1-0.4,0-0.7c-0.1-0.1-0.4-0.1-0.7,0l0,0c0.1,0,0.4,0,0.5,0.1
				C-249.9,235-249.9,235.2-249.9,235.3L-249.9,235.3 M-249.8,235.8c0.1,0.2,0.4,0.4,0.7,0.5c0.2,0,0.4-0.1,0.5-0.1
				c-0.1,0.1-0.2,0.1-0.4,0.1c-0.4,0-0.6-0.2-0.7-0.5H-249.8z M-242.6,249.4c0-0.2-0.1-0.4-0.4-0.5c-0.1-0.1-0.2-0.1-0.4-0.1l0,0
				l0,0l0,0h-4.8l0,0l0,0l0,0c-0.1,0.1-0.3,0.1-0.4,0.1c-0.2,0.1-0.4,0.4-0.4,0.5v0.1L-242.6,249.4
				C-242.6,249.5-242.6,249.4-242.6,249.4 M-241.4,234.7L-241.4,234.7c0.1,0,0.3,0.1,0.4,0.2c0.1,0.1,0.1,0.3,0.1,0.5l0,0
				c0.1-0.1,0.1-0.4,0-0.7C-240.9,234.4-241.2,234.4-241.4,234.7 M-241.3,235.6c-0.2,0.1-0.4,0.4-0.4,1.2c0,0.2,0,0.3,0,0.4h-7.9
				v5.5c0,1.5,0.8,2.7,2,3.5c0.6,0.4,1.3,0.5,2,0.5c0.5,0,1-0.1,1.5-0.3c-0.6,0.4-1.3,0.5-2,0.5c-0.5,0-1-0.1-1.5-0.3v2h4.1V246
				c1.2-0.7,2-2,2-3.5V237l0,0c0,0,0-0.1,0-0.4C-241.6,236-241.6,235.7-241.3,235.6 M-241.8,235c-0.1-0.1-0.4-0.1-0.7,0l0,0
				c0.1,0,0.4,0,0.5,0.1s0.2,0.3,0.1,0.5l0,0C-241.6,235.5-241.6,235.2-241.8,235 M-232.9,223.3c0-0.4,0-0.8-0.7-0.8
				c0.2,0-0.5-0.1-0.5,0.3c0,0.2-0.1,0.5-0.5,0.5c0,0-0.8-0.2-0.4-0.4c0.1-0.1,0.5-0.3,0.3-0.8c-0.1-0.1-0.5-0.5-1-0.1
				c-0.1,0.1,0,0.4-0.2,0.4s-0.2-0.2-0.2-0.3s-0.1-0.4-0.4-0.4c-0.4,0-0.4,0.3-0.4,0.4c0,0.2,0.1,0.2,0.1,0.4
				c0.1,0.1,0.1,0.4-0.1,0.2c-0.1-0.1-0.8-0.7-1.6-0.3c-0.4,0.2-0.3,0.5-0.1,0.7c0.1,0.1,0.1,0.1,0,0.2c-0.1,0.1-0.4,0.7,0.1,1
				c0.3,0.2,0.8,0.3,1-0.1c0.1-0.1,0.1-0.4,0.1-0.7c0-0.1,0.1-0.4,0.5-0.3c0.2,0,0.2,0.1,0.1,0.3c-0.1,0.1-0.6,0.4-0.7,1.3
				c0,0.2-0.1,0.4-0.4,0.6c0-0.1-0.4,0.2,0,0.7c0.2,0.3,0.3,0.4-0.2,0.8c-0.1,0.1-0.3,0.2,0.1,0.2c0.2,0,1,0,1.6-0.1l-0.1-0.2
				c-0.5,0.1-1.2,0.1-1.2,0.1c0.7-0.5,0.4-1.2,0.4-1.2c-0.2-0.3,0-0.4,0.4-0.5s0.5,0,0.9,0.1c0,0-0.6-0.1-0.8,0.1v0.1
				c0,0,0,0.1,0.1,0.1c0.4-0.1,0.7-0.1,0.7-0.1s0.1,0.1,0,0.1c0,0-0.1,0.1-0.1,0c0,0-0.1,0.1-0.1,0l0.1,0.1c0,0.1,0,0.1-0.1,0.1
				s-0.1,0-0.1-0.1s0-0.1,0-0.1c-0.1,0-0.1,0-0.3,0.1c0,0,0,0,0,0.1v0.1c0.1,0.1,0.1,0.2,0.1,0.3s0,0.1,0.1,0.1c0,0,0,0.1,0.1,0.1
				c0.1,0.3,0.4,0.8,1,0.7c0,0,0.1,0,0.1,0.1c0,0,0,0.1-0.1,0.1c0,0-0.1,0-0.1,0.1c-0.1,0.1-0.2,0.1-0.4,0c0,0.1,0.1,0.1,0.1,0.1
				s-0.2,0-0.3,0.1c0,0.1,0,0,0,0.1c0,0.4,0.5,0.7,1.1,0.7s1.1-0.3,1.1-0.7v-0.1l0,0c-0.1-0.1-0.1-0.1-0.1-0.1
				c-0.3-0.4-0.2-0.6-0.2-0.6c0-0.1,0-0.1,0-0.1c0.5,0,1-0.1,1.5-0.1c0.1,0,0.2-0.1,0.1-0.2c-0.1-0.1-0.9-0.1-0.9-0.7
				c0-0.4,0.1-0.8-0.6-1c-0.1,0-0.1-0.1-0.1-0.1c0-0.1-0.1-0.5-0.2-0.7c-0.1-0.1-0.3-0.3-0.3-0.4h0.1c0,0,0.3,0.1,0.4,0.4
				c0.1,0.2,0.3,0.4,0.9,0.4C-233.1,224.2-232.9,223.6-232.9,223.3 M-222.6,235c-0.1,0.1-0.1,0.4,0,0.7l0,0c0-0.1,0-0.4,0.1-0.5
				s0.3-0.2,0.5-0.1l0,0C-222.1,234.8-222.2,234.8-222.6,235 M-222.6,236.2c-0.1,0-0.3,0-0.4-0.1c0.1,0.1,0.3,0.1,0.5,0.1
				c0.4,0,0.6-0.2,0.7-0.5l-0.1-0.1C-222.1,235.9-222.2,236.1-222.6,236.2 M-225.6,240.7h0.2h0.2v-0.4c0-0.2-0.1-0.2-0.3-0.2V240
				h0.9v0.1c-0.1,0-0.4,0-0.4,0.2v0.4h0.2v0.4c0.1,0,0.1,0,0.1,0c0.3,0,0.4-0.1,0.4-0.4c0-0.1,0-0.2,0-0.3h0.1c0,0.1,0,0.1,0,0.4
				v-0.1c0,0.1-0.1,0.3-0.1,0.4c-0.1,0.1-0.2,0.1-0.4,0.1h-0.1v0.5h0.9v-2.2h-1.9L-225.6,240.7L-225.6,240.7z M-223.6,238.2
				L-223.6,238.2L-223.6,238.2L-223.6,238.2l-0.2-0.1l0,0l0,0L-223.6,238.2L-223.6,238.2C-223.8,238.1-223.8,238.2-223.6,238.2
				L-223.6,238.2 M-223.6,238.4c-0.1,0-0.2,0.1-0.2,0.1c0.3-0.1,0.3,0.1,0.3,0.1S-223.4,238.4-223.6,238.4 M-223.6,238.2
				L-223.6,238.2L-223.6,238.2L-223.6,238.2c0.1,0.1,0.1,0.1,0.1,0.1l0,0h0.1l0,0l0,0L-223.6,238.2L-223.6,238.2 M-223.4,239.6
				c-0.1,0-0.1,0-0.1,0v0.1C-223.4,239.8-223.4,239.7-223.4,239.6L-223.4,239.6 M-223.9,243.1c0.1-0.3,0.2-0.6,0.2-0.9v-0.3h-0.9
				v0.1c0,0.1,0,0.1,0,0.2L-223.9,243.1z M-225.3,243c-0.1,0-0.1,0-0.2,0v1.1c0.3,0,0.7-0.1,0.9-0.3L-225.3,243z M-226.1,241.3v-0.5
				h-0.5v0.5H-226.1v0.6h-0.5l0,0c0,0.4,0.2,0.7,0.5,0.8v-0.8h0.6v0.8c0.3-0.1,0.5-0.4,0.5-0.7v-0.1l0,0h-0.5v-0.6H-226.1z
				 M-225.3,241.3h0.5v-0.5h-0.5V241.3z M-227.8,237.9L-227.8,237.9L-227.8,237.9C-227.6,237.9-227.6,237.9-227.8,237.9
				L-227.8,237.9h0.1l0,0l0,0H-227.8L-227.8,237.9L-227.8,237.9L-227.8,237.9L-227.8,237.9L-227.8,237.9L-227.8,237.9z
				 M-227.6,240.2v1.5h0.9v-0.4L-227.6,240.2z M-226.1,240.7h0.2v-1.1h-1.1L-226.1,240.7z M-227.6,241.9v0.3c0,1,0.8,1.9,1.9,1.9
				v-1.1c-0.1,0-0.1,0-0.2,0v0.1v-0.1c0,0.1-0.1,0.3-0.1,0.4c-0.1,0.1-0.2,0.1-0.4,0.1c-0.1,0-0.3,0-0.4-0.1
				c-0.1-0.1-0.1-0.2-0.1-0.4v-0.5c0-0.2-0.1-0.2-0.3-0.2v-0.1h0.7c0-0.1-0.1-0.2-0.1-0.3v-0.1
				C-226.8,241.9-227.6,241.9-227.6,241.9z M-226.6,242.5c-0.1,0-0.2,0.1-0.2,0.2v0.4c0,0.3,0.1,0.4,0.4,0.4c0.3,0,0.4-0.1,0.4-0.4
				c0,0,0,0,0-0.1C-226.3,242.9-226.6,242.7-226.6,242.5 M-228.1,235.6c-0.1,0.2-0.2,0.7-0.8,0.7c-0.1,0-0.2-0.1-0.3-0.1
				c0.1,0.1,0.3,0.1,0.4,0.1C-228,236.4-228,235.6-228.1,235.6L-228.1,235.6C-228.1,235.4-228.1,235.5-228.1,235.6 M-229.8,235
				c-0.1,0.1-0.1,0.4,0,0.7l0,0c0-0.1,0-0.4,0.1-0.5s0.3-0.1,0.5-0.1l0,0C-229.1,234.8-229.6,234.8-229.8,235 M-230.4,234.8
				c0.1-0.1,0.3-0.2,0.5-0.1l0,0c-0.1-0.1-0.4-0.1-0.7,0c-0.1,0.1-0.1,0.4,0,0.7l0,0C-230.6,235.1-230.6,235-230.4,234.8
				 M-230.1,235.6c0.1,0.1,0.3,0.4,0.3,1.1c0,0.3,0,0.4,0,0.4l0,0v4.7h1.9v-1.1c-0.2,0.1-0.5,0.1-0.5,0.1c-0.1,0.1,0,0.4,0,0.4
				c-0.1,0-0.1-0.2-0.1-0.2c-0.1,0-0.1,0.2-0.1,0.2c-0.1-0.1,0-0.2-0.1-0.2s-0.2,0.1-0.2,0.1c0-0.1,0.1-0.3,0.1-0.3
				c-0.1-0.1-0.1,0-0.1,0c0.1-0.3,0.3-0.1,0.4-0.1c0.1,0,0.1,0.1,0.1,0c0.1-0.1,0.4-0.2,0.4-0.2c-0.1,0-0.2-0.1-0.2-0.1
				c0.1,0,0.2-0.1,0.2-0.1c0.1-0.1,0.2-0.2,0.3-0.3v-0.3c-0.1-0.1-0.3-0.1-0.3-0.1c-0.4,0.4-0.5,0.5-0.6,0.5c0,0-0.1,0-0.1,0.1
				s-0.1,0.2-0.1,0.2s0-0.1-0.1-0.1s-0.1,0.1-0.1,0.1c-0.1-0.1,0-0.3,0-0.3c-0.1,0-0.2,0.1-0.2,0.1c-0.1-0.1,0.1-0.2,0.1-0.2
				c-0.1,0-0.2,0-0.2,0c0.1-0.1,0.3-0.1,0.4-0.1c0,0.1,0.1,0.1,0.1,0c0.1-0.1,0.4-0.4,0.5-0.5c-0.1,0-0.2,0-0.4-0.1
				c0,0,0.2,0,0.4-0.1c0,0,0-0.1-0.1-0.1c-0.3-0.2-0.7-0.6-0.7-0.6c-0.2,0-0.3-0.1-0.3-0.1c0.1,0,0.2,0,0.2-0.1s-0.2-0.1-0.2-0.1
				c0.1-0.1,0.2,0,0.2,0l-0.1-0.2c0.1,0,0.2,0.1,0.2,0.1c0-0.1,0-0.2,0-0.2c0.2,0.1,0.1,0.4,0.1,0.4l0.7,0.5
				c0.1,0.1,0.3,0.1,0.4-0.1c0.1-0.1,0-0.2-0.1-0.2h-0.1c0-0.1,0-0.1,0-0.1c0.1,0,0.2,0,0.2,0s0.1-0.1,0-0.1
				c-0.2-0.1-0.3-0.1-0.3-0.1c0-0.1,0-0.1,0-0.1c0.1,0,0.1,0,0.1,0c0.1-0.1,0.1-0.1,0.2-0.1s0.2,0.1,0.3,0.1h0.1
				c0.1-0.1,0.3,0,0.3,0c-0.1,0-0.1,0.1-0.1,0.1c0.1,0.1,0,0.3-0.1,0.3c-0.1,0.1,0.1,0.4,0.1,0.4c-0.1,0.1-0.3,0-0.3,0
				c0,0.3,0.5,0.4,0.5,0.4c-0.1,0.1-0.4,0.1-0.4,0.1c-0.1,0-0.1,0.1,0,0.1c0.1,0.1,0.4,0.1,0.4,0.3h0.4c0-0.1,0-0.1,0-0.2
				c0-0.1-0.1-0.3-0.3-0.5c-0.1-0.1-0.1-0.1-0.1-0.1s-0.2-0.4-0.1-0.5c0.1-0.2,0.4-0.1,0.4-0.1c0.1-0.1,0.4-0.1,0.4,0.1
				c0.1,0.3-0.1,0.3,0,0.7c-0.1,0-0.6-0.4-0.4-0.7h-0.1c-0.1,0-0.1,0-0.1,0.1c-0.1,0.1,0,0.3,0.1,0.4c0,0.1,0.1,0.1,0.1,0.1
				c0.1,0.1,0.3,0.4,0.3,0.5s0,0.1,0,0.2h0.4v-2.3h-1.6h-1.9h-0.1c0-0.1,0-0.1,0-0.3C-229.6,235.9-229.8,235.6-230.1,235.6
				 M-229.8,242.6c0,0.2,0,0.4,0.1,0.7h2.2c-0.2-0.3-0.3-0.7-0.3-1v-0.3h-1.9v0.6 M-228.9,244.9c0.3,0.4,0.6,0.7,1,1v2.6h4.2v-2
				c-0.4,0.2-1,0.3-1.5,0.3c-0.7,0-1.4-0.2-2-0.5c0.4,0.1,0.9,0.3,1.4,0.3v-1.7L-228.9,244.9 M-222.6,249.4c0-0.3-0.3-0.5-0.8-0.7
				h-4.8c-0.5,0.1-0.8,0.4-0.8,0.7v0.1L-222.6,249.4C-222.6,249.5-222.6,249.4-222.6,249.4 M-221.6,241.9h-1.9v0.3
				c0,0.2,0,0.4-0.1,0.5c0.1,0,0.3,0,0.4,0c0,0,0.3,0,0.4,0c0.1,0,0.1,0,0.2,0c0.1,0,0.4-0.1,0.4-0.2c0,0,0.1-0.1,0-0.1v-0.1
				c-0.1,0-0.2,0-0.4,0.1c-0.1,0.1-0.4,0.1-0.4,0.1c-0.1,0-0.1-0.1,0-0.2c0,0,0-0.1,0.2-0.1c0.1,0,0.1,0.1,0,0.1s-0.1,0.1-0.2,0.1
				c0,0.1,0,0.1,0,0.1s0.1,0.1,0.4-0.1c0.1-0.1,0.3-0.1,0.4-0.1c0.1,0,0.1,0.1,0.1,0.1c0,0.1-0.1,0.1-0.1,0.1
				c-0.1,0.1-0.3,0.2-0.4,0.2c0.1,0.1,0.1,0.1,0.1,0.1v0.1c0,0.2,0.3,0.1,0.3,0.1c0,0.1-0.1,0.4-0.1,0.4s-0.1,0.1-0.2,0.1
				c-0.1,0,0-0.1,0-0.1h0.1l0.1-0.2c-0.3,0.1-0.4-0.2-0.4-0.2s-0.1,0.3-0.5,0.5c-0.1,0.1-0.2,0-0.2,0c-0.1-0.1,0.1-0.1,0.1-0.1
				c0.1-0.1,0.4-0.4,0.4-0.4s0.1-0.1-0.3,0.1c-0.3,0.1-0.4,0.1-0.6,0.1l0,0c-0.1,0.3-0.4,0.5-0.7,0.7c-0.3,0.1-0.6,0.3-1,0.3v2.3
				c0.8,0,1.6-0.3,2.2-0.7l0,0c1-0.7,1.7-1.9,1.7-3.3V241.9z M-221.6,237.1h-3.9v2.3h1.1c0,0,0,0,0.1-0.1c-0.1,0-0.1-0.1-0.2-0.1
				c0,0,0.2,0,0.4-0.1c0,0,0-0.1-0.1-0.1c-0.3-0.2-0.7-0.6-0.7-0.6c-0.2,0-0.3-0.1-0.3-0.1c0.1,0,0.2,0,0.2-0.1s-0.2-0.1-0.2-0.1
				c0.1-0.1,0.2,0,0.2,0l-0.1-0.2c0.1,0,0.2,0.1,0.2,0.1c0-0.1,0-0.2,0-0.2c0.2,0.1,0.1,0.4,0.1,0.4l0.5,0.4
				c0.1,0.1,0.3,0.1,0.4-0.1c0,0-0.1-0.1-0.2-0.1c0,0,0.1,0,0.2-0.1c0.1-0.1,0-0.4,0.1-0.4l0.6,0.1c0,0,0,0.3-0.1,0.4
				c0,0,0,0.2,0.1,0.2h-0.2v0.1c0,0.1,0.1,0.4,0.2,0.4c0.2,0.1,0.6,0.4,0.6,0.4c0.1,0,0.2,0,0.3-0.1s0.1-0.1,0-0.2
				c0-0.1-0.1-0.3-0.3-0.5c-0.1-0.1-0.1-0.1-0.1-0.1s-0.2-0.4-0.1-0.5c0.1-0.2,0.4-0.1,0.4-0.1c0.1-0.1,0.4-0.1,0.4,0.1
				c0.1,0.3-0.1,0.3,0,0.7c-0.1,0-0.6-0.4-0.4-0.7h-0.1c-0.1,0-0.1,0-0.1,0.1c-0.1,0.1,0,0.3,0.1,0.4l0.1,0.1
				c0.1,0.1,0.3,0.4,0.3,0.5s0,0.3-0.1,0.4c-0.1,0.2-0.3,0.2-0.4,0.2c0,0.1,0,0.1,0.1,0.1c0.1,0.1,0.1,0.1,0.1,0.1
				c-0.1,0.1-0.1,0.3,0,0.4c0.1,0.1,0.2,0,0.2,0c0.1,0.6-0.7,1-0.7,1c0,0.1,0.1,0,0.1,0.1c0.1,0.1-0.1,0.2-0.1,0.2
				c0-0.1,0-0.2-0.1-0.2s-0.1,0.2-0.1,0.2c-0.1-0.1,0.1-0.2,0.1-0.2c-0.1,0-0.2,0.2-0.2,0.2c-0.1-0.1,0.1-0.2,0.1-0.2
				c-0.1,0-0.2,0.1-0.2,0.1c0-0.3,0.2-0.3,0.4-0.3c0.4,0,0.4-0.5,0.4-0.5c-0.2,0.2-0.4,0.1-0.4,0.1c0.1-0.1,0.1-0.1,0.1-0.3
				c-0.1-0.4-0.1-0.4,0-0.5c0-0.1-0.1,0-0.1,0c-0.1,0.2-0.4,0.5-0.4,0.5c0.1,0,0.2,0.1,0.2,0.1c0,0.1-0.1,0.1-0.2,0.2v1.1h1.7
				L-221.6,237.1L-221.6,237.1z"/>
		</g>
	</g>
</g>
</svg>
